<!--?xml version="1.0" standalone="no"?-->
              <svg id="sw-js-blob-svg" viewBox="0 0 100 100" xmlns="http://www.w3.org/2000/svg" version="1.1">
                    <defs> 
                        <linearGradient id="sw-gradient" x1="0" x2="1" y1="1" y2="0">
                            <stop id="stop1" stop-color="rgba(122.787, 68.446, 247.102, 1)" offset="0%"></stop>
                            <stop id="stop2" stop-color="rgba(66.641, 111.343, 231.165, 1)" offset="100%"></stop>
                        </linearGradient>
                    </defs>
                <path fill="url(#sw-gradient)" d="M19.2,-24.5C24.5,-18.5,28,-12,29.7,-4.9C31.3,2.2,31,10,28.1,17.4C25.2,24.9,19.8,32.1,12.5,35.1C5.2,38.1,-3.9,36.8,-12.3,33.8C-20.8,30.7,-28.6,25.9,-33.4,18.8C-38.1,11.6,-39.7,2.2,-38.3,-6.9C-36.9,-16.1,-32.6,-24.9,-25.7,-30.6C-18.8,-36.4,-9.4,-39.2,-1.2,-37.8C7,-36.3,13.9,-30.6,19.2,-24.5Z" width="100%" height="100%" transform="translate(50 50)" stroke-width="0" style="transition: all 0.3s ease 0s;" stroke="url(#sw-gradient)"></path>
              </svg>