<?xml version="1.0" encoding="utf-8"?>
<!-- Generator: Adobe Illustrator 27.5.0, SVG Export Plug-In . SVG Version: 6.00 Build 0)  -->
<svg version="1.1" xmlns="http://www.w3.org/2000/svg" xmlns:xlink="http://www.w3.org/1999/xlink" x="0px" y="0px"
	 viewBox="0 0 750 500" style="enable-background:new 0 0 750 500;" xml:space="preserve">
<g id="BACKGROUND">
</g>
<g id="OBJECTS">
	<path d="M667.92,50.095v399.07c0,1.65-1.34,3-3,3H85.29c-0.56,0-1.07-0.15-1.52-0.42c-0.29-0.17-0.55-0.39-0.77-0.65v-0.01
		c-0.09-0.11-0.17-0.22-0.25-0.34c-0.17-0.27-0.3-0.57-0.37-0.89c-0.02-0.11-0.04-0.22-0.06-0.33c-0.02-0.13-0.03-0.27-0.03-0.41
		V47.825h583.36C666.9,47.825,667.92,48.835,667.92,50.095z"/>
	<path style="fill:#1F1F1F;" d="M667.92,49.511v32.948H82.29V47.981c0.03-0.052,0.06-0.104,0.09-0.156h583.27
		C666.9,47.825,667.92,48.575,667.92,49.511z"/>
	<g>
		<g>
			<g style="opacity:0.4;">
				<polygon style="fill:#FFFFFF;" points="525.493,62.904 525.493,73.72 507.259,73.72 507.259,62.904 516.381,70.239 				"/>
				<polygon style="fill:#FFFFFF;" points="525.493,60.979 516.381,68.312 507.259,60.979 				"/>
			</g>
			<path style="fill:#D49A3D;" d="M528.591,61.697c0,2.054-1.666,3.719-3.72,3.719c-2.053,0-3.719-1.666-3.719-3.719
				s1.665-3.719,3.719-3.719C526.925,57.978,528.591,59.643,528.591,61.697z"/>
			<text transform="matrix(1 0 0 1 523.5962 63.3658)" style="fill:#FFFFFF; font-family:'Montserrat-Bold'; font-size:4.793px;">3</text>
		</g>
		<g>
			<g style="opacity:0.4;">
				<path style="fill:#FFFFFF;" d="M555.4,62.357c-0.645-0.355-1.899-0.355-2.545,0c-0.96,0.528-2.19,1.861-2.669,5.211
					c-0.347,2.431-0.8,3.713-1.202,4.413c-0.366,0.639-0.349,1.123,0.37,1.282c1.086,0.241,2.78,0.522,4.774,0.522
					c2.224,0,3.802-0.245,4.788-0.474c0.717-0.167,0.721-0.691,0.355-1.33c-0.402-0.701-0.855-1.982-1.202-4.413
					C557.59,64.218,556.36,62.885,555.4,62.357z"/>
				<path style="fill:#FFFFFF;" d="M555.484,73.279c0,0.747-0.606,1.353-1.353,1.353c-0.747,0-1.353-0.606-1.353-1.353
					c0-0.748,0.606-1.353,1.353-1.353C554.877,71.925,555.484,72.531,555.484,73.279z"/>
			</g>
			<path style="fill:#FFFFFF;" d="M554.724,61.311c0-0.328-0.265-0.594-0.593-0.594l0,0c-0.328,0-0.593,0.266-0.593,0.594v1.561
				c0,0.328,0.265,0.593,0.593,0.593l0,0c0.328,0,0.593-0.265,0.593-0.593V61.311z"/>
			<path style="fill:#D49A3D;" d="M560.216,62.759c0,2.054-1.665,3.719-3.72,3.719c-2.053,0-3.719-1.665-3.719-3.719
				c0-2.054,1.666-3.719,3.719-3.719C558.55,59.039,560.216,60.705,560.216,62.759z"/>
			<text transform="matrix(1 0 0 1 555.0132 64.6372)" style="fill:#FFFFFF; font-family:'Montserrat-Bold'; font-size:4.793px;">6</text>
		</g>
		<g style="opacity:0.4;">
			
				<text transform="matrix(1 0 0 1 577.8335 69.3179)" style="fill:#FFFFFF; font-family:'Montserrat-Regular'; font-size:7.9883px;">Lorem Ipsum</text>
			<path style="fill:#FFFFFF;" d="M653.666,67.143c0,4.136-3.353,7.489-7.489,7.489c-4.135,0-7.488-3.352-7.488-7.489
				c0-4.136,3.353-7.488,7.488-7.488C650.313,59.655,653.666,63.008,653.666,67.143z"/>
		</g>
	</g>
	<path style="fill:#1F1F1F;" d="M173.3,47.825v404.26H85.17c-0.51,0-0.98-0.12-1.4-0.35c-0.29-0.17-0.55-0.39-0.77-0.64v-0.01
		c-0.09-0.11-0.17-0.22-0.25-0.34c-0.17-0.27-0.29-0.57-0.37-0.89c-0.02-0.11-0.04-0.22-0.06-0.33c-0.02-0.13-0.03-0.27-0.03-0.41
		V47.825H173.3z"/>
	<rect x="82.036" y="281.353" width="91.26" height="26.042"/>
	<g style="opacity:0.4;">
		<g>
			<g>
				
					<text transform="matrix(1 0 0 1 116.9153 120.5164)" style="fill:#B5B5B7; font-family:'Montserrat-Medium'; font-size:6.7748px;">Dashboard</text>
			</g>
			<polygon style="fill:#B5B5B7;" points="105.977,114.513 105.977,112.122 104.265,112.122 104.265,112.802 102.76,111.297 
				97.457,116.6 99.17,116.6 99.17,120.516 101.908,120.516 101.908,118.286 103.612,118.286 103.612,120.516 106.35,120.516 
				106.35,116.6 108.063,116.6 			"/>
		</g>
		<g>
			<g>
				
					<text transform="matrix(1 0 0 1 118.4475 143.5106)" style="fill:#B5B5B7; font-family:'Montserrat-Medium'; font-size:6.7748px;">Charts</text>
			</g>
			<g>
				<rect x="99.109" y="138.86" style="fill:#B5B5B7;" width="2.681" height="4.65"/>
				<rect x="102.996" y="133.747" style="fill:#B5B5B7;" width="2.681" height="9.763"/>
				<rect x="106.794" y="136.667" style="fill:#B5B5B7;" width="2.681" height="6.844"/>
			</g>
		</g>
		<g>
			<g>
				
					<text transform="matrix(1 0 0 1 118.1106 165.9618)" style="fill:#B5B5B7; font-family:'Montserrat-Medium'; font-size:6.7748px;">Pages</text>
			</g>
			<polygon style="fill:#B5B5B7;" points="103.955,156.741 105.453,159.776 108.802,160.262 106.379,162.625 106.951,165.96 
				103.955,164.385 100.96,165.96 101.532,162.625 99.109,160.262 102.458,159.776 			"/>
		</g>
		<g>
			<g>
				
					<text transform="matrix(1 0 0 1 118.2122 187.912)" style="fill:#B5B5B7; font-family:'Montserrat-Medium'; font-size:6.7748px;">Chat</text>
			</g>
			<path style="fill:#B5B5B7;" d="M107.841,181.353h-7.568c-0.643,0-1.164,0.521-1.164,1.164v3.688v1.711v1.879l1.653-1.879h7.079
				c0.643,0,1.164-0.521,1.164-1.164v-4.235C109.005,181.874,108.484,181.353,107.841,181.353z M107.698,186.306h-7.281v-0.273
				h7.281V186.306z M107.698,184.769h-7.281v-0.274h7.281V184.769z M107.698,183.233h-7.281v-0.273h7.281V183.233z"/>
		</g>
		<g>
			<g>
				
					<text transform="matrix(1 0 0 1 117.7971 211.3504)" style="fill:#B5B5B7; font-family:'Montserrat-Medium'; font-size:6.7748px;">Mailbox</text>
			</g>
			<path id="XMLID_219_" style="fill:#B5B5B7;" d="M108.17,205.369c-0.001-0.007,0.001-0.015,0-0.022
				c-0.001-0.007-0.006-0.014-0.008-0.021c-0.004-0.013-0.009-0.025-0.015-0.037c-0.003-0.007-0.005-0.014-0.009-0.02
				c0,0-0.001-0.002-0.001-0.002c-0.004-0.005-0.01-0.008-0.014-0.013c-0.009-0.011-0.019-0.02-0.03-0.029
				c-0.005-0.004-0.008-0.01-0.014-0.014l-0.004-0.003l-8.87,0.001l0,0l-0.004,0.003c-0.006,0.004-0.008,0.01-0.014,0.014
				c-0.011,0.009-0.02,0.018-0.029,0.029c-0.004,0.005-0.01,0.008-0.014,0.014c0,0,0,0.001-0.001,0.002
				c-0.004,0.006-0.006,0.013-0.009,0.019c-0.006,0.012-0.011,0.024-0.015,0.037c-0.002,0.007-0.007,0.014-0.009,0.022
				c-0.002,0.007,0,0.014,0,0.021c-0.001,0.007-0.004,0.012-0.004,0.019v5.758c0,0.119,0.096,0.215,0.215,0.215h4.788h3.848
				c0.119,0,0.215-0.096,0.215-0.215v-5.758C108.174,205.381,108.171,205.376,108.17,205.369z M107.745,210.931h-3.633h-4.573
				v-5.139l4.017,2.707c0.036,0.024,0.078,0.037,0.12,0.037c0.042,0,0.085-0.012,0.121-0.038l3.948-2.703V210.931z"/>
		</g>
		<g>
			
				<text transform="matrix(1 0 0 1 118.5676 235.4207)" style="fill:#B5B5B7; font-family:'Montserrat-Medium'; font-size:6.7748px;">Settings</text>
		</g>
		<g>
			<path style="fill:none;stroke:#B5B5B7;stroke-miterlimit:10;" d="M108.475,230.871c0,2.105-1.706,3.812-3.812,3.812
				c-2.106,0-3.813-1.706-3.813-3.812c0-2.106,1.707-3.813,3.813-3.813C106.769,227.059,108.475,228.765,108.475,230.871z"/>
			<line style="fill:none;stroke:#B5B5B7;stroke-miterlimit:10;" x1="104.663" y1="225.317" x2="104.663" y2="227.059"/>
			<line style="fill:none;stroke:#B5B5B7;stroke-miterlimit:10;" x1="100.735" y1="226.944" x2="101.967" y2="228.176"/>
			<line style="fill:none;stroke:#B5B5B7;stroke-miterlimit:10;" x1="99.109" y1="230.871" x2="100.85" y2="230.871"/>
			<line style="fill:none;stroke:#B5B5B7;stroke-miterlimit:10;" x1="100.735" y1="234.798" x2="101.966" y2="233.568"/>
			<line style="fill:none;stroke:#B5B5B7;stroke-miterlimit:10;" x1="104.662" y1="236.426" x2="104.662" y2="234.686"/>
			<line style="fill:none;stroke:#B5B5B7;stroke-miterlimit:10;" x1="108.59" y1="234.799" x2="107.359" y2="233.569"/>
			<line style="fill:none;stroke:#B5B5B7;stroke-miterlimit:10;" x1="110.217" y1="230.871" x2="108.476" y2="230.872"/>
			<line style="fill:none;stroke:#B5B5B7;stroke-miterlimit:10;" x1="108.59" y1="226.944" x2="107.359" y2="228.176"/>
		</g>
	</g>
	<g>
		
			<text transform="matrix(1 0 0 1 109.4114 296.9269)" style="fill:#D4993D; font-family:'Montserrat-Medium'; font-size:6.7748px;">SIGN OUT</text>
	</g>
	<g>
		<text transform="matrix(1 0 0 1 123.7406 77.1221)"><tspan x="0" y="0" style="fill:#FFFFFF; font-family:'Montserrat-Bold'; font-size:8px;">LOREM</tspan><tspan x="0" y="10" style="fill:#FFFFFF; font-family:'Montserrat-Bold'; font-size:8px;">IPSUM</tspan></text>
		<path style="fill:#D4993D;" d="M107.159,87.063L107.159,87.063c-5.64,0-10.213-4.572-10.213-10.213v0
			c0-5.64,4.572-10.213,10.213-10.213l0,0c5.64,0,10.213,4.572,10.213,10.213v0C117.372,82.491,112.799,87.063,107.159,87.063z"/>
	</g>
	<g>
		<g style="opacity:0.3;">
			<g>
				<path style="fill:none;stroke:#FFFFFF;stroke-miterlimit:10;" d="M641.26,100.592H195.354c-1.657,0-3,1.343-3,3v18.123
					c0,1.657,1.343,3,3,3H641.26c1.657,0,3-1.343,3-3v-18.123C644.26,101.935,642.917,100.592,641.26,100.592z"/>
			</g>
			<g>
				
					<text transform="matrix(1.0372 0 0 1 588.4271 115.661)" style="fill:#FFFFFF; font-family:'Montserrat-Bold'; font-size:6.7748px;">Search</text>
			</g>
			<g>
				<g>
					<g>
						<path style="fill:#FFFFFF;" d="M630.072,115.741c-2.02,0-3.664-1.585-3.664-3.533c0-1.948,1.644-3.533,3.664-3.533
							c2.02,0,3.663,1.585,3.663,3.533C633.735,114.156,632.092,115.741,630.072,115.741z M630.072,109.703
							c-1.433,0-2.599,1.123-2.599,2.505c0,1.382,1.167,2.505,2.599,2.505c1.433,0,2.598-1.123,2.598-2.505
							C632.67,110.827,631.505,109.703,630.072,109.703z"/>
					</g>
				</g>
				<g>
					<g>
						<polygon style="fill:#FFFFFF;" points="634.956,117.645 631.907,114.704 632.661,113.978 635.711,116.919 						"/>
					</g>
				</g>
			</g>
		</g>
		<g>
			<g>
				<g>
					<rect x="330.763" y="144.846" style="fill:#1F1F1F;" width="94.979" height="28.904"/>
					<g>
						<rect x="330.763" y="144.846" style="fill:#7AAF60;" width="30.919" height="28.904"/>
						<g>
							<text transform="matrix(1 0 0 1 340.929 164.1423)" style="font-family:'Montserrat-Bold'; font-size:16.5921px;">$</text>
						</g>
					</g>
				</g>
				<g>
					<g>
						
							<text transform="matrix(1 0 0 1 371.7659 156.8513)" style="fill:#606060; font-family:'Montserrat-Medium'; font-size:5.9193px;">TOTAL</text>
					</g>
					<g>
						
							<text transform="matrix(1 0 0 1 371.7659 166.8005)" style="fill:#606060; font-family:'Montserrat-Bold'; font-size:8.8789px;">34.56O</text>
					</g>
				</g>
			</g>
			<g>
				<g>
					<rect x="330.763" y="178.995" style="fill:#1F1F1F;" width="94.979" height="28.904"/>
					<g>
						<rect x="330.763" y="178.995" style="fill:#D39C3C;" width="30.919" height="28.904"/>
						<g>
							<g>
								<g>
									<g>
										<path d="M349.289,190.324c0,1.694-1.373,3.066-3.067,3.066c-1.694,0-3.066-1.373-3.066-3.066s1.373-3.067,3.066-3.067
											C347.916,187.258,349.289,188.63,349.289,190.324z"/>
									</g>
								</g>
								<g>
									<g>
										<path d="M351.442,199.637h-10.439v-0.788c0-2.489,2.018-4.507,4.507-4.507h1.426c2.489,0,4.507,2.018,4.507,4.507V199.637
											z"/>
									</g>
								</g>
							</g>
						</g>
					</g>
				</g>
				<g>
					<g>
						
							<text transform="matrix(1 0 0 1 371.8102 189.9406)" style="fill:#606060; font-family:'Montserrat-Medium'; font-size:5.9193px;">VISITORS</text>
					</g>
					<g>
						
							<text transform="matrix(1 0 0 1 371.7565 199.8898)" style="fill:#606060; font-family:'Montserrat-Bold'; font-size:8.8789px;">1,5876</text>
					</g>
				</g>
			</g>
			<g>
				<g>
					<rect x="437.674" y="144.846" style="fill:#1F1F1F;" width="94.979" height="28.904"/>
					<g>
						<rect x="437.674" y="144.846" style="fill:#B8514E;" width="30.919" height="28.904"/>
						<g>
							<g>
								<g>
									<g>
										<rect x="447.422" y="159.918" width="2.385" height="4.229"/>
									</g>
									<g>
										<rect x="451.688" y="156.535" width="2.62" height="7.612"/>
									</g>
									<g>
										<rect x="456.123" y="154.449" width="2.721" height="9.698"/>
									</g>
								</g>
							</g>
						</g>
					</g>
				</g>
				<g>
					<g>
						
							<text transform="matrix(1 0 0 1 478.6673 154.1584)" style="fill:#606060; font-family:'Montserrat-Medium'; font-size:5.9193px;">PAGES VIEW</text>
					</g>
					<g>
						
							<text transform="matrix(1 0 0 1 478.6673 164.1086)" style="fill:#606060; font-family:'Montserrat-Bold'; font-size:8.8789px;">134</text>
					</g>
				</g>
			</g>
			<g>
				<g>
					<rect x="437.674" y="178.995" style="fill:#1F1F1F;" width="94.979" height="28.904"/>
					<g>
						<rect x="437.674" y="178.995" style="fill:#5EA5E4;" width="30.919" height="28.904"/>
						<g>
							<g>
								<g>
									<g>
										<path d="M446.496,192.88c-0.021,0-0.042-0.002-0.063-0.006c-0.201-0.035-0.336-0.227-0.301-0.428
											c0.594-3.403,3.535-5.874,6.995-5.874c0.216,0,0.431,0.01,0.643,0.029c0.203,0.018,0.353,0.198,0.335,0.402
											c-0.018,0.203-0.179,0.354-0.401,0.335c-0.19-0.017-0.382-0.026-0.576-0.026c-3.1,0-5.734,2.212-6.267,5.26
											C446.829,192.753,446.672,192.88,446.496,192.88z"/>
									</g>
									<g>
										<g>
											<g>
												<path d="M454.763,200.575c-0.166,0-0.316-0.112-0.358-0.28c-0.05-0.198,0.071-0.399,0.269-0.449
													c2.497-0.624,4.408-2.757,4.755-5.305c0.028-0.203,0.215-0.35,0.417-0.316c0.202,0.027,0.344,0.214,0.317,0.416
													c-0.387,2.846-2.521,5.226-5.309,5.924C454.823,200.572,454.793,200.575,454.763,200.575z"/>
											</g>
											<g>
												<g>
													<polygon points="454.907,198.97 453.127,200.405 455.26,201.23 													"/>
												</g>
											</g>
										</g>
										<g>
											<g>
												<path d="M459.657,192.408c-0.166,0-0.316-0.112-0.358-0.28c-0.522-2.09-2.118-3.811-4.164-4.491
													c-0.194-0.064-0.299-0.274-0.234-0.467c0.065-0.194,0.274-0.301,0.468-0.235c2.285,0.759,4.066,2.68,4.649,5.014
													c0.05,0.198-0.071,0.399-0.269,0.449C459.717,192.404,459.686,192.408,459.657,192.408z"/>
											</g>
											<g>
												<g>
													<polygon points="458.433,191.885 459.858,193.674 460.695,191.546 													"/>
												</g>
											</g>
										</g>
										<g>
											<g>
												<polygon points="452.397,187.927 454.526,187.089 452.736,185.664 												"/>
											</g>
										</g>
										<g>
											<g>
												<path d="M452.103,200.698c-0.018,0-0.037-0.001-0.056-0.004c-2.834-0.432-5.115-2.51-5.81-5.293
													c-0.05-0.198,0.071-0.399,0.269-0.449c0.197-0.047,0.399,0.071,0.448,0.27c0.623,2.493,2.665,4.354,5.204,4.741
													c0.202,0.031,0.341,0.22,0.31,0.421C452.441,200.567,452.283,200.698,452.103,200.698z"/>
											</g>
											<g>
												<g>
													<polygon points="447.831,195.455 446.396,193.674 445.571,195.807 													"/>
												</g>
											</g>
										</g>
									</g>
								</g>
								<g>
									<path d="M453.127,197.206c-1.947,0-3.532-1.585-3.532-3.532c0-1.948,1.585-3.532,3.532-3.532s3.532,1.585,3.532,3.532
										C456.659,195.622,455.074,197.206,453.127,197.206z M453.127,190.882c-1.54,0-2.792,1.253-2.792,2.792
										c0,1.54,1.252,2.792,2.792,2.792s2.792-1.252,2.792-2.792C455.919,192.135,454.667,190.882,453.127,190.882z"/>
								</g>
							</g>
						</g>
					</g>
				</g>
				<g>
					<g>
						
							<text transform="matrix(1 0 0 1 478.6676 191.0632)" style="fill:#606060; font-family:'Montserrat-Medium'; font-size:5.9193px;">SHARES</text>
					</g>
					<g>
						
							<text transform="matrix(1 0 0 1 478.6676 201.0124)" style="fill:#606060; font-family:'Montserrat-Bold'; font-size:8.8789px;">100</text>
					</g>
				</g>
			</g>
		</g>
		<g>
			<rect x="192.354" y="288.879" style="fill:#1F1F1F;" width="219.064" height="133.787"/>
			<g>
				<g style="opacity:0.4;">
					<g>
						<g>
							<line style="fill:none;stroke:#FFFFFF;stroke-miterlimit:10;" x1="230.115" y1="393.688" x2="395.262" y2="393.688"/>
							<line style="fill:none;stroke:#FFFFFF;stroke-miterlimit:10;" x1="230.115" y1="387.588" x2="395.262" y2="387.588"/>
							<line style="fill:none;stroke:#FFFFFF;stroke-miterlimit:10;" x1="230.115" y1="381.488" x2="395.262" y2="381.488"/>
							<line style="fill:none;stroke:#FFFFFF;stroke-miterlimit:10;" x1="230.115" y1="375.388" x2="395.262" y2="375.388"/>
							<line style="fill:none;stroke:#FFFFFF;stroke-miterlimit:10;" x1="230.115" y1="369.288" x2="395.262" y2="369.288"/>
							<line style="fill:none;stroke:#FFFFFF;stroke-miterlimit:10;" x1="230.115" y1="363.188" x2="395.262" y2="363.188"/>
							<line style="fill:none;stroke:#FFFFFF;stroke-miterlimit:10;" x1="230.115" y1="357.087" x2="395.262" y2="357.087"/>
							<line style="fill:none;stroke:#FFFFFF;stroke-miterlimit:10;" x1="230.115" y1="350.987" x2="395.262" y2="350.987"/>
							<line style="fill:none;stroke:#FFFFFF;stroke-miterlimit:10;" x1="230.115" y1="344.887" x2="395.262" y2="344.887"/>
							<line style="fill:none;stroke:#FFFFFF;stroke-miterlimit:10;" x1="230.115" y1="338.787" x2="395.262" y2="338.787"/>
						</g>
						<polyline style="fill:none;stroke:#FFFFFF;stroke-miterlimit:10;" points="395.515,402.469 230.115,402.469 230.115,328.898 
													"/>
					</g>
				</g>
				<g>
					<defs>
						<rect id="SVGID_1_" x="230.115" y="328.898" width="161.605" height="74.364"/>
					</defs>
					<clipPath id="SVGID_00000170280568275759324290000001517564624958745521_">
						<use xlink:href="#SVGID_1_"  style="overflow:visible;opacity:0.5;"/>
					</clipPath>
					<g style="clip-path:url(#SVGID_00000170280568275759324290000001517564624958745521_);">
						<defs>
							
								<rect id="SVGID_00000161617072397200484480000000446882385369812630_" x="208.352" y="326.153" width="186.697" height="94.858"/>
						</defs>
						<clipPath id="SVGID_00000006673096164724077910000009386033356477199551_">
							<use xlink:href="#SVGID_00000161617072397200484480000000446882385369812630_"  style="overflow:visible;opacity:0.5;"/>
						</clipPath>
						<path style="clip-path:url(#SVGID_00000006673096164724077910000009386033356477199551_);fill:#D39C3C;" d="M372.19,388.674
							c-1.323-0.379-2.643-0.756-3.952-1.143c-7.792-2.303-15.914-5.531-20.782-12.505c-4.238-6.071-5.31-13.987-8.054-20.992
							c-2.744-7.005-8.678-13.856-15.634-12.741c-12.624,2.024-13.75,26.272-26.457,27.543
							c-9.313,0.932-15.549-12.005-24.888-12.551c-9.051-0.529-14.543,10.149-19.063,18.65
							c-12.506,23.517-34.225,41.077-58.614,47.389c16.355-4.163,32.702-4.174,49.325-5.825c17.507-1.739,35.082-2.667,52.662-2.785
							c17.151-0.114,34.307,0.545,51.41,1.979c12.912,1.083,28.81,9.857,41.729,8.526c13.915-1.434,13.284,0,13.284,0
							S390.934,394.038,372.19,388.674z"/>
						<path style="clip-path:url(#SVGID_00000006673096164724077910000009386033356477199551_);fill:#7AAF60;" d="M229.423,404.184
							c4.553-0.144,8.534-0.619,12.702-5.35c3.913-4.441,6.524-10.092,10.544-14.42c8.84-9.517,24.354-10.509,34.168-2.185
							c2.924,2.48,5.343,5.632,8.417,7.888s7.195,3.508,10.502,1.675c4.471-2.477,5.204-8.868,7.245-13.834
							c2.772-6.747,8.987-11.69,15.766-12.539c9.226-1.156,15.711,4.224,19.552,12.45c3.752,8.035,10.88,14.237,19.027,16.202
							c5.244,1.265,11.143,1.049,15.328,4.695c7.275,6.339,5.277,19.141,15.518,22.49c-56.283-5.146-113.063-6.125-169.449-2.341
							c-10.26,0.664-45.565,6.063-26.655-7.057c6.159-4.273,13.478-6.406,20.686-7.312
							C225.157,404.246,227.349,404.249,229.423,404.184z"/>
						<path style="clip-path:url(#SVGID_00000006673096164724077910000009386033356477199551_);fill:#B8514E;" d="M251.945,397.42
							c2.462-1.13,4.595-2.656,6.215-4.631c3.853-4.698,4.572-11.113,11.43-13.793c18.018-7.039,24.85,12.896,36.016,16.729
							c6.069,2.084,13.635,2.008,19.61-0.197c3.927-1.449,7.103-3.713,11.034-5.158c11.131-4.09,25.069-0.633,35.458,4.277
							c9.101,4.302,19.801,8.502,28.343,13.092c9.913,5.328-3.136,3.633-10.4,3.633c-11.163-0.054-22.329-0.186-33.492-0.075
							c-29.13,0.291-58.26,0.583-87.391,0.874c-23.295,0.233-46.589,0.482-69.889,0.699c-13.843,0.128-14.291-4.537-4.38-10.302
							c11.258-6.548,21.378-6.291,34.08-3.588C236.348,400.634,245.332,400.456,251.945,397.42z"/>
					</g>
				</g>
				<g style="opacity:0.4;">
					<g>
						
							<text transform="matrix(1 0 0 1 208.2582 334.8224)" style="fill:#FFFFFF; font-family:'Montserrat-Bold'; font-size:6.9696px;">400</text>
					</g>
					<g>
						
							<text transform="matrix(1 0 0 1 208.264 363.0494)" style="fill:#FFFFFF; font-family:'Montserrat-Bold'; font-size:6.9696px;">300</text>
					</g>
					<g>
						
							<text transform="matrix(1 0 0 1 208.2582 379.7911)" style="fill:#FFFFFF; font-family:'Montserrat-Bold'; font-size:6.9696px;">200</text>
					</g>
					<g>
						
							<text transform="matrix(1 0 0 1 208.2582 398.2277)" style="fill:#FFFFFF; font-family:'Montserrat-Bold'; font-size:6.9696px;">100</text>
					</g>
				</g>
				<g style="opacity:0.4;">
					
						<text transform="matrix(1 0 0 1 230.3065 315.0008)" style="fill:#FFFFFF; font-family:'Montserrat-Bold'; font-size:4.3762px;">LOREM IPSUM</text>
					
						<text transform="matrix(1 0 0 1 230.3065 321.2561)" style="fill:#FFFFFF; font-family:'Montserrat-Regular'; font-size:3.9477px;">Lorem ipsum dolor sit amet, consectetuer adipiscing elit.</text>
				</g>
			</g>
		</g>
		<rect x="427.75" y="288.879" style="fill:#1F1F1F;" width="216.511" height="80"/>
		<g>
			<path style="fill:#D39C3C;" d="M558.011,299.518c-0.736,0-1.336,0.599-1.336,1.336c0,0.736,0.599,1.336,1.336,1.336
				c0.736,0,1.336-0.599,1.336-1.336C559.347,300.117,558.748,299.518,558.011,299.518z"/>
			<polyline style="fill:none;stroke:#7AAF60;stroke-miterlimit:10;" points="464.399,345.683 479.586,321.275 490.218,332.991 
				499.547,335.378 522.979,327.567 544.241,304.569 563.985,325.831 578.087,337.33 593.274,334.944 602.821,337.764 
				613.669,319.539 624.734,314.115 638.199,345.629 			"/>
			<polyline style="opacity:0.3;fill:none;stroke:#FFFFFF;stroke-width:0.6373;stroke-miterlimit:10;" points="464.399,345.683 
				479.098,332.883 497.811,328.435 509.744,307.389 534.695,336.245 543.807,322.36 562.249,315.851 577.436,305.871 
				587.85,320.624 601.085,314.983 622.998,328.218 638.362,345.792 			"/>
			<path style="fill:#7AAF60;" d="M479.587,320.211c-0.736,0-1.336,0.599-1.336,1.336c0,0.736,0.599,1.336,1.336,1.336
				s1.336-0.599,1.336-1.336C480.922,320.81,480.323,320.211,479.587,320.211z"/>
			<path style="fill:#7AAF60;" d="M490.244,331.683c-0.736,0-1.336,0.599-1.336,1.336c0,0.736,0.599,1.336,1.336,1.336
				c0.736,0,1.336-0.599,1.336-1.336C491.58,332.282,490.981,331.683,490.244,331.683z"/>
			<path style="fill:#7AAF60;" d="M499.723,334.001c-0.736,0-1.336,0.599-1.336,1.336c0,0.736,0.599,1.336,1.336,1.336
				c0.736,0,1.336-0.599,1.336-1.336C501.059,334.6,500.46,334.001,499.723,334.001z"/>
			<path style="fill:#B5B5B7;" d="M497.771,327.167c-0.736,0-1.336,0.599-1.336,1.336c0,0.736,0.599,1.336,1.336,1.336
				s1.336-0.599,1.336-1.336C499.106,327.766,498.507,327.167,497.771,327.167z"/>
			<path style="fill:#B5B5B7;" d="M509.812,306.23c-0.736,0-1.336,0.599-1.336,1.336c0,0.736,0.599,1.336,1.336,1.336
				s1.336-0.599,1.336-1.336C511.148,306.829,510.548,306.23,509.812,306.23z"/>
			<path style="fill:#B5B5B7;" d="M534.763,334.543c-0.736,0-1.336,0.599-1.336,1.336c0,0.736,0.599,1.336,1.336,1.336
				c0.736,0,1.336-0.599,1.336-1.336C536.098,335.143,535.499,334.543,534.763,334.543z"/>
			<path style="fill:#B5B5B7;" d="M543.984,320.983c-0.736,0-1.336,0.599-1.336,1.336c0,0.736,0.599,1.336,1.336,1.336
				c0.736,0,1.336-0.599,1.336-1.336C545.319,321.583,544.72,320.983,543.984,320.983z"/>
			<path style="fill:#B5B5B7;" d="M562.317,314.474c-0.736,0-1.336,0.599-1.336,1.336s0.599,1.336,1.336,1.336
				c0.736,0,1.336-0.599,1.336-1.336S563.053,314.474,562.317,314.474z"/>
			<path style="fill:#B5B5B7;" d="M577.613,304.603c-0.736,0-1.336,0.599-1.336,1.336c0,0.736,0.599,1.336,1.336,1.336
				c0.736,0,1.336-0.599,1.336-1.336C578.948,305.202,578.349,304.603,577.613,304.603z"/>
			<path style="fill:#B5B5B7;" d="M587.864,319.031c-0.736,0-1.336,0.599-1.336,1.336s0.599,1.336,1.336,1.336
				c0.736,0,1.336-0.599,1.336-1.336S588.6,319.031,587.864,319.031z"/>
			<path style="fill:#B5B5B7;" d="M601.207,313.824c-0.736,0-1.336,0.599-1.336,1.336s0.599,1.336,1.336,1.336
				c0.736,0,1.336-0.599,1.336-1.336S601.944,313.824,601.207,313.824z"/>
			<path style="fill:#B5B5B7;" d="M623.12,326.896c-0.736,0-1.336,0.599-1.336,1.336c0,0.736,0.599,1.336,1.336,1.336
				c0.736,0,1.336-0.599,1.336-1.336C624.456,327.495,623.857,326.896,623.12,326.896z"/>
			<path style="fill:#B5B5B7;" d="M479.221,331.506c-0.736,0-1.336,0.599-1.336,1.336c0,0.736,0.599,1.336,1.336,1.336
				s1.336-0.599,1.336-1.336C480.556,332.105,479.957,331.506,479.221,331.506z"/>
			<path style="fill:#7AAF60;" d="M523.237,326.191c-0.736,0-1.336,0.599-1.336,1.336s0.599,1.336,1.336,1.336
				c0.736,0,1.336-0.599,1.336-1.336S523.973,326.191,523.237,326.191z"/>
			<path style="fill:#7AAF60;" d="M544.227,303.165c-0.736,0-1.336,0.599-1.336,1.336s0.599,1.336,1.336,1.336
				s1.336-0.599,1.336-1.336S544.964,303.165,544.227,303.165z"/>
			<path style="fill:#7AAF60;" d="M564.242,324.482c-0.736,0-1.336,0.599-1.336,1.336c0,0.736,0.599,1.336,1.336,1.336
				c0.736,0,1.336-0.599,1.336-1.336C565.578,325.082,564.978,324.482,564.242,324.482z"/>
			<path style="fill:#7AAF60;" d="M578.236,336.035c-0.736,0-1.336,0.599-1.336,1.336s0.599,1.336,1.336,1.336
				s1.336-0.599,1.336-1.336S578.973,336.035,578.236,336.035z"/>
			<path style="fill:#7AAF60;" d="M593.573,333.595c-0.736,0-1.336,0.599-1.336,1.336s0.599,1.336,1.336,1.336
				c0.736,0,1.336-0.599,1.336-1.336S594.309,333.595,593.573,333.595z"/>
			<path style="fill:#7AAF60;" d="M602.767,336.198c-0.736,0-1.336,0.599-1.336,1.336s0.599,1.336,1.336,1.336
				c0.736,0,1.336-0.599,1.336-1.336S603.503,336.198,602.767,336.198z"/>
			<circle style="fill:#7AAF60;" cx="613.587" cy="319.553" r="1.336"/>
			<path style="fill:#7AAF60;" d="M624.897,312.766c-0.736,0-1.336,0.599-1.336,1.336s0.599,1.336,1.336,1.336
				c0.736,0,1.336-0.599,1.336-1.336S625.633,312.766,624.897,312.766z"/>
			<polyline style="fill:none;stroke:#D39C3C;stroke-miterlimit:10;" points="464.616,345.521 484.034,340.042 492.279,311.295 
				510.612,320.95 525.148,310.102 542.614,314.224 558.018,300.881 574.182,321.167 598.915,327.241 611.608,309.342 
				617.791,333.316 638.199,345.629 			"/>
			
				<line style="opacity:0.4;fill:none;stroke:#FFFFFF;stroke-width:0.6373;stroke-miterlimit:10;" x1="454.527" y1="345.792" x2="644.26" y2="345.792"/>
			<path style="fill:#D39C3C;" d="M483.831,338.611c-0.736,0-1.336,0.599-1.336,1.336c0,0.736,0.599,1.336,1.336,1.336
				s1.336-0.599,1.336-1.336C485.167,339.211,484.567,338.611,483.831,338.611z"/>
			<path style="fill:#D39C3C;" d="M492.401,310.027c-0.736,0-1.336,0.599-1.336,1.336s0.599,1.336,1.336,1.336
				s1.336-0.599,1.336-1.336S493.137,310.027,492.401,310.027z"/>
			<path style="fill:#D39C3C;" d="M510.632,319.56c-0.736,0-1.336,0.599-1.336,1.336c0,0.736,0.599,1.336,1.336,1.336
				s1.336-0.599,1.336-1.336C511.968,320.159,511.369,319.56,510.632,319.56z"/>
			<path style="fill:#D39C3C;" d="M525.277,308.82c-0.736,0-1.336,0.599-1.336,1.336c0,0.736,0.599,1.336,1.336,1.336
				c0.736,0,1.336-0.599,1.336-1.336C526.613,309.419,526.014,308.82,525.277,308.82z"/>
			<path style="fill:#D39C3C;" d="M542.607,312.807c-0.736,0-1.336,0.599-1.336,1.336s0.599,1.336,1.336,1.336
				c0.736,0,1.336-0.599,1.336-1.336S543.343,312.807,542.607,312.807z"/>
			<path style="fill:#D39C3C;" d="M574.344,319.702c-0.736,0-1.336,0.599-1.336,1.336s0.599,1.336,1.336,1.336
				c0.736,0,1.336-0.599,1.336-1.336S575.081,319.702,574.344,319.702z"/>
			<path style="fill:#D39C3C;" d="M598.997,325.885c-0.736,0-1.336,0.599-1.336,1.336s0.599,1.336,1.336,1.336
				c0.736,0,1.336-0.599,1.336-1.336S599.733,325.885,598.997,325.885z"/>
			<path style="fill:#D39C3C;" d="M611.689,308.149c-0.736,0-1.336,0.599-1.336,1.336s0.599,1.336,1.336,1.336
				s1.336-0.599,1.336-1.336S612.425,308.149,611.689,308.149z"/>
			<path style="fill:#D39C3C;" d="M617.954,332.15c-0.736,0-1.336,0.599-1.336,1.336s0.599,1.336,1.336,1.336
				c0.736,0,1.336-0.599,1.336-1.336S618.69,332.15,617.954,332.15z"/>
			
				<text transform="matrix(1 0 0 1 462.6509 356.9378)" style="opacity:0.4;fill:#B5B5B7; font-family:'Montserrat-Regular'; font-size:4.1413px;">LOREM IPSUM</text>
			<path style="fill:#7AAF60;" d="M504.212,355.829c0,0.719-0.583,1.302-1.302,1.302c-0.719,0-1.302-0.583-1.302-1.302
				c0-0.719,0.583-1.302,1.302-1.302C503.629,354.527,504.212,355.11,504.212,355.829z"/>
			<path style="fill:#B5B5B7;" d="M459.076,355.18c0,0.719-0.583,1.302-1.302,1.302c-0.719,0-1.302-0.583-1.302-1.302
				c0-0.719,0.583-1.302,1.302-1.302C458.493,353.879,459.076,354.461,459.076,355.18z"/>
			
				<text transform="matrix(1 0 0 1 509.732 357.0472)" style="opacity:0.4;fill:#B5B5B7; font-family:'Montserrat-Regular'; font-size:4.1413px;">LOREM IPSUM</text>
			<g>
				<path style="fill:#D39C3C;" d="M551.292,355.938c0,0.719-0.583,1.302-1.302,1.302c-0.719,0-1.302-0.583-1.302-1.302
					c0-0.719,0.583-1.302,1.302-1.302C550.709,354.636,551.292,355.219,551.292,355.938z"/>
				
					<text transform="matrix(1 0 0 1 556.813 357.1556)" style="opacity:0.4;fill:#B5B5B7; font-family:'Montserrat-Regular'; font-size:4.1413px;">LOREM IPSUM</text>
			</g>
		</g>
		<g>
			<rect x="546.699" y="144.846" style="fill:#1F1F1F;" width="97.562" height="68.884"/>
			<g>
				<g style="opacity:0.3;">
					
						<text transform="matrix(1 0 0 1 556.5607 201.5293)" style="fill:#B5B5B7; font-family:'Montserrat-Bold'; font-size:49.9273px;">13</text>
					
						<text transform="matrix(1 0 0 1 556.8068 162.5752)" style="fill:#B5B5B7; font-family:'Montserrat-Bold'; font-size:7.3966px;">NOVEMBER</text>
				</g>
				<g>
					<g>
						<g>
							<path style="fill:#5EA5E4;" d="M625.414,176.841c-2.707,0-4.911-2.203-4.911-4.911c0-2.707,2.203-4.91,4.911-4.91
								c2.708,0,4.911,2.203,4.911,4.91C630.325,174.638,628.122,176.841,625.414,176.841z M625.414,168.184
								c-2.066,0-3.747,1.681-3.747,3.747c0,2.066,1.681,3.747,3.747,3.747c2.066,0,3.747-1.681,3.747-3.747
								C629.162,169.864,627.48,168.184,625.414,168.184z"/>
						</g>
						<g>
							<path style="fill:#5EA5E4;" d="M625.414,165.785c-0.321,0-0.581-0.26-0.581-0.582v-1.672c0-0.322,0.26-0.582,0.581-0.582
								c0.321,0,0.582,0.26,0.582,0.582v1.672C625.996,165.524,625.736,165.785,625.414,165.785z"/>
						</g>
						<g>
							<path style="fill:#5EA5E4;" d="M620.657,167.755c-0.149,0-0.298-0.057-0.411-0.17l-1.182-1.183
								c-0.227-0.227-0.227-0.595,0-0.822c0.227-0.227,0.595-0.227,0.822,0l1.182,1.183c0.227,0.227,0.227,0.595,0,0.822
								C620.955,167.699,620.806,167.755,620.657,167.755z"/>
						</g>
						<g>
							<path style="fill:#5EA5E4;" d="M618.686,172.513h-1.672c-0.322,0-0.582-0.26-0.582-0.582c0-0.322,0.26-0.582,0.582-0.582
								h1.672c0.321,0,0.582,0.26,0.582,0.582C619.268,172.253,619.008,172.513,618.686,172.513z"/>
						</g>
						<g>
							<path style="fill:#5EA5E4;" d="M619.473,178.453c-0.149,0-0.298-0.057-0.411-0.17c-0.227-0.227-0.227-0.596,0-0.822
								l1.184-1.183c0.227-0.227,0.595-0.227,0.822,0c0.227,0.227,0.227,0.596,0,0.822l-1.184,1.182
								C619.771,178.396,619.622,178.453,619.473,178.453z"/>
						</g>
						<g>
							<path style="fill:#5EA5E4;" d="M625.414,180.915c-0.321,0-0.581-0.26-0.581-0.582v-1.674c0-0.321,0.26-0.582,0.581-0.582
								c0.321,0,0.582,0.26,0.582,0.582v1.674C625.996,180.654,625.736,180.915,625.414,180.915z"/>
						</g>
						<g>
							<path style="fill:#5EA5E4;" d="M631.355,178.454c-0.149,0-0.298-0.057-0.411-0.17l-1.184-1.184
								c-0.227-0.227-0.227-0.595,0-0.822c0.227-0.227,0.595-0.227,0.822,0l1.184,1.184c0.227,0.227,0.227,0.595,0,0.823
								C631.653,178.397,631.504,178.454,631.355,178.454z"/>
						</g>
						<g>
							<path style="fill:#5EA5E4;" d="M632.141,172.513c-0.321,0-0.582-0.26-0.582-0.582c0-0.321,0.26-0.582,0.582-0.582
								l1.674-0.001c0.321,0,0.582,0.26,0.582,0.582c0,0.321-0.26,0.582-0.582,0.582L632.141,172.513z"/>
						</g>
						<g>
							<path style="fill:#5EA5E4;" d="M630.172,167.757c-0.149,0-0.298-0.057-0.411-0.17c-0.227-0.227-0.227-0.595,0-0.822
								l1.184-1.184c0.227-0.227,0.595-0.227,0.822,0c0.227,0.227,0.227,0.595,0,0.822l-1.184,1.184
								C630.469,167.7,630.32,167.757,630.172,167.757z"/>
						</g>
					</g>
					<g>
						
							<text transform="matrix(1 0 0 1 618.7531 195.4649)" style="fill:#5EA5E4; font-family:'Montserrat-Bold'; font-size:8.7919px;">-12</text>
						<path style="fill:#5EA5E4;" d="M632.076,184.347c0,0.737-0.597,1.335-1.335,1.335c-0.738,0-1.335-0.598-1.335-1.335
							c0-0.738,0.597-1.336,1.335-1.336C631.48,183.011,632.076,183.61,632.076,184.347z"/>
					</g>
				</g>
			</g>
		</g>
		<g>
			<rect x="192.354" y="144.846" style="fill:#1F1F1F;" width="126.331" height="130.932"/>
			<g>
				
					<text transform="matrix(1 0 0 1 242.1176 198.8897)" style="opacity:0.4;fill:#B5B5B7; font-family:'Montserrat-ExtraBold'; font-size:10.9446px;">22/12</text>
				<g>
					<g style="opacity:0.4;">
						<path style="fill:#B5B5B7;" d="M255.52,230.733c-19.314,0-35.028-15.714-35.028-35.028c0-19.314,15.714-35.027,35.028-35.027
							c19.315,0,35.028,15.713,35.028,35.027C290.548,215.019,274.834,230.733,255.52,230.733z M255.52,164.241
							c-17.349,0-31.464,14.114-31.464,31.463c0,17.349,14.115,31.464,31.464,31.464c17.349,0,31.464-14.115,31.464-31.464
							C286.983,178.355,272.868,164.241,255.52,164.241z"/>
					</g>
					<g>
						<path style="fill:#7AAF60;" d="M255.52,230.733c-0.984,0-1.782-0.798-1.782-1.782c0-0.984,0.798-1.782,1.782-1.782
							c17.349,0,31.464-14.115,31.464-31.464c0-17.349-14.115-31.463-31.464-31.463c-0.984,0-1.782-0.798-1.782-1.782
							c0-0.984,0.798-1.782,1.782-1.782c19.315,0,35.028,15.713,35.028,35.027C290.548,215.019,274.834,230.733,255.52,230.733z"/>
					</g>
				</g>
				<g>
					<g style="opacity:0.4;">
						<path style="fill:#B5B5B7;" d="M255.52,224.382c-15.813,0-28.678-12.865-28.678-28.678c0-15.813,12.865-28.677,28.678-28.677
							c15.813,0,28.677,12.865,28.677,28.677C284.197,211.518,271.333,224.382,255.52,224.382z M255.52,170.591
							c-13.848,0-25.114,11.266-25.114,25.113c0,13.848,11.266,25.114,25.114,25.114c13.848,0,25.113-11.266,25.113-25.114
							C280.633,181.857,269.368,170.591,255.52,170.591z"/>
					</g>
					<g>
						<g>
							<path style="fill:#D4993D;" d="M277.485,213.005c-0.356,0-0.714-0.106-1.027-0.326c-0.804-0.568-0.995-1.68-0.427-2.484
								c7.99-11.309,5.289-27.012-6.02-35.002c-11.311-7.991-27.012-5.289-35.002,6.02c-0.569,0.804-1.681,0.995-2.484,0.428
								c-0.804-0.568-0.995-1.68-0.427-2.484c9.125-12.915,27.054-15.999,39.97-6.875c12.915,9.124,15.999,27.055,6.875,39.969
								C278.595,212.743,278.044,213.005,277.485,213.005z"/>
						</g>
					</g>
				</g>
			</g>
			<rect x="221.154" y="247.863" width="68.731" height="15.319"/>
			<g style="opacity:0.4;">
				<text transform="matrix(1 0 0 1 239.3048 257.3955)" style="fill:#FFFFFF; font-family:'Montserrat-Bold'; font-size:5px;">READ MORE</text>
			</g>
		</g>
		<g>
			<rect x="330.763" y="224.042" style="fill:#1F1F1F;" width="201.64" height="50.042"/>
			<g>
				<g>
					<path style="fill:#7AAF60;" d="M519.081,239.561H361.265c-0.682,0-1.235-0.553-1.235-1.235l0,0
						c0-0.682,0.553-1.235,1.235-1.235h157.817c0.682,0,1.235,0.553,1.235,1.235l0,0
						C520.316,239.009,519.763,239.561,519.081,239.561z"/>
					<path style="fill:#B8514E;" d="M390.749,243.494h-29.484c-0.682,0-1.235-0.553-1.235-1.235l0,0
						c0-0.682,0.553-1.235,1.235-1.235h29.484c0.682,0,1.235,0.553,1.235,1.235l0,0
						C391.983,242.941,391.431,243.494,390.749,243.494z"/>
					
						<text transform="matrix(1 0 0 1 345.9519 241.5213)" style="opacity:0.4;fill:#B5B5B7; font-family:'Montserrat-Bold'; font-size:3.7612px;">2018</text>
				</g>
				<g>
					<path style="fill:#5EA5E4;" d="M411.338,256.082h-49.661c-0.682,0-1.235-0.553-1.235-1.235l0,0
						c0-0.682,0.553-1.235,1.235-1.235h49.661c0.682,0,1.235,0.553,1.235,1.235l0,0C412.572,255.529,412.02,256.082,411.338,256.082
						z"/>
					<path style="fill:#D39C3C;" d="M443.211,260.014h-81.535c-0.682,0-1.235-0.553-1.235-1.235l0,0
						c0-0.682,0.553-1.235,1.235-1.235h81.535c0.682,0,1.235,0.553,1.235,1.235l0,0
						C444.445,259.461,443.893,260.014,443.211,260.014z"/>
					
						<text transform="matrix(1 0 0 1 345.9519 259.14)" style="opacity:0.4;fill:#B5B5B7; font-family:'Montserrat-Bold'; font-size:3.7612px;">2017</text>
				</g>
			</g>
		</g>
		<g>
			<rect x="548.26" y="224.042" style="fill:#1F1F1F;" width="96" height="49.787"/>
			<g>
				<g>
					
						<text transform="matrix(1 0 0 1 556.8564 236.0254)" style="fill:#606060; font-family:'Montserrat-Medium'; font-size:5.9193px;">FORUM MEMBERS</text>
				</g>
				<g>
					<g>
						<g>
							<defs>
								<path id="SVGID_00000054988491858108398540000015049806791819137951_" d="M565.707,247.004c0,2.444-1.981,4.426-4.425,4.426
									c-2.444,0-4.426-1.981-4.426-4.426c0-2.444,1.981-4.426,4.426-4.426C563.726,242.579,565.707,244.56,565.707,247.004z"/>
							</defs>
							<clipPath id="SVGID_00000176757019514773333500000001483367645000862093_">
								<use xlink:href="#SVGID_00000054988491858108398540000015049806791819137951_"  style="overflow:visible;"/>
							</clipPath>
							<g style="clip-path:url(#SVGID_00000176757019514773333500000001483367645000862093_);">
								<g>
									<g>
										<path style="fill:#606060;" d="M562.963,246.5c0,0.928-0.753,1.681-1.681,1.681c-0.928,0-1.681-0.753-1.681-1.681
											c0-0.928,0.753-1.681,1.681-1.681C562.21,244.819,562.963,245.572,562.963,246.5z"/>
									</g>
									<g>
										<path style="fill:#606060;" d="M564.143,251.605h-5.722v-0.432c0-1.364,1.106-2.47,2.47-2.47h0.781
											c1.364,0,2.47,1.106,2.47,2.47V251.605z"/>
									</g>
								</g>
							</g>
						</g>
						<path style="fill:none;stroke:#606060;stroke-width:0.25;stroke-miterlimit:10;" d="M565.75,247.004
							c0,2.444-1.981,4.426-4.426,4.426c-2.444,0-4.425-1.981-4.425-4.426c0-2.444,1.981-4.426,4.425-4.426
							C563.768,242.579,565.75,244.56,565.75,247.004z"/>
					</g>
					<g>
						<g>
							<defs>
								<path id="SVGID_00000105407495228387336450000007325099614739613322_" d="M565.707,262.451c0,2.444-1.981,4.426-4.425,4.426
									c-2.444,0-4.426-1.981-4.426-4.426c0-2.444,1.981-4.426,4.426-4.426C563.726,258.026,565.707,260.007,565.707,262.451z"/>
							</defs>
							<clipPath id="SVGID_00000171678275833583133250000016580560406076907416_">
								<use xlink:href="#SVGID_00000105407495228387336450000007325099614739613322_"  style="overflow:visible;"/>
							</clipPath>
							<g style="clip-path:url(#SVGID_00000171678275833583133250000016580560406076907416_);">
								<g>
									<g>
										<path style="fill:#606060;" d="M562.963,261.947c0,0.928-0.753,1.681-1.681,1.681c-0.928,0-1.681-0.753-1.681-1.681
											c0-0.928,0.753-1.681,1.681-1.681C562.21,260.266,562.963,261.018,562.963,261.947z"/>
									</g>
									<g>
										<path style="fill:#606060;" d="M564.143,267.051h-5.722v-0.432c0-1.364,1.106-2.47,2.47-2.47h0.781
											c1.364,0,2.47,1.106,2.47,2.47V267.051z"/>
									</g>
								</g>
							</g>
						</g>
						<path style="fill:none;stroke:#606060;stroke-width:0.25;stroke-miterlimit:10;" d="M565.75,262.451
							c0,2.444-1.981,4.426-4.426,4.426c-2.444,0-4.425-1.981-4.425-4.426c0-2.444,1.981-4.426,4.425-4.426
							C563.768,258.026,565.75,260.007,565.75,262.451z"/>
					</g>
					<text transform="matrix(1 0 0 1 570.5743 248.1904)" style="fill:#B5B5B7; font-family:'Montserrat-Regular'; font-size:3px;">Lorem ipsum dolor sit amet</text>
					<text transform="matrix(1 0 0 1 570.5741 263.1266)" style="fill:#B5B5B7; font-family:'Montserrat-Regular'; font-size:3px;">Lorem ipsum dolor sit amet</text>
				</g>
			</g>
		</g>
		<g>
			<rect x="429.537" y="377.953" style="fill:#1F1F1F;" width="214.723" height="46.213"/>
			<g>
				<g>
					<g>
						<path style="fill-rule:evenodd;clip-rule:evenodd;fill:#D39C3C;" d="M515.13,398.092c-1.41,0-2.553-1.143-2.553-2.553
							c0-1.41,1.143-2.553,2.553-2.553c1.41,0,2.553,1.143,2.553,2.553C517.683,396.949,516.54,398.092,515.13,398.092z"/>
						<path style="fill-rule:evenodd;clip-rule:evenodd;fill:#D39C3C;" d="M525.818,398.092c-1.41,0-2.553-1.143-2.553-2.553
							c0-1.41,1.143-2.553,2.553-2.553c1.41,0,2.553,1.143,2.553,2.553C528.371,396.949,527.228,398.092,525.818,398.092z"/>
						<path style="fill-rule:evenodd;clip-rule:evenodd;fill:#D39C3C;" d="M536.505,398.092c-1.41,0-2.553-1.143-2.553-2.553
							c0-1.41,1.143-2.553,2.553-2.553s2.553,1.143,2.553,2.553C539.058,396.949,537.915,398.092,536.505,398.092z"/>
						<path style="fill-rule:evenodd;clip-rule:evenodd;fill:#D39C3C;" d="M547.193,398.092c-1.41,0-2.553-1.143-2.553-2.553
							c0-1.41,1.143-2.553,2.553-2.553c1.41,0,2.553,1.143,2.553,2.553C549.746,396.949,548.603,398.092,547.193,398.092z"/>
						<path style="fill-rule:evenodd;clip-rule:evenodd;fill:#B8514E;" d="M557.88,398.092c-1.41,0-2.553-1.143-2.553-2.553
							c0-1.41,1.143-2.553,2.553-2.553c1.41,0,2.553,1.143,2.553,2.553C560.434,396.949,559.291,398.092,557.88,398.092z"/>
						<path style="fill-rule:evenodd;clip-rule:evenodd;fill:#B8514E;" d="M568.568,398.092c-1.41,0-2.553-1.143-2.553-2.553
							c0-1.41,1.143-2.553,2.553-2.553c1.41,0,2.553,1.143,2.553,2.553C571.121,396.949,569.978,398.092,568.568,398.092z"/>
						<path style="fill-rule:evenodd;clip-rule:evenodd;fill:#B5B5B7;" d="M579.256,398.092c-1.41,0-2.553-1.143-2.553-2.553
							c0-1.41,1.143-2.553,2.553-2.553c1.41,0,2.553,1.143,2.553,2.553C581.809,396.949,580.666,398.092,579.256,398.092z"/>
						<path style="fill-rule:evenodd;clip-rule:evenodd;fill:#B5B5B7;" d="M589.943,398.092c-1.41,0-2.553-1.143-2.553-2.553
							c0-1.41,1.143-2.553,2.553-2.553c1.41,0,2.553,1.143,2.553,2.553C592.497,396.949,591.354,398.092,589.943,398.092z"/>
						<path style="fill-rule:evenodd;clip-rule:evenodd;fill:#B5B5B7;" d="M600.631,398.092c-1.41,0-2.553-1.143-2.553-2.553
							c0-1.41,1.143-2.553,2.553-2.553c1.41,0,2.553,1.143,2.553,2.553C603.184,396.949,602.041,398.092,600.631,398.092z"/>
						<path style="fill-rule:evenodd;clip-rule:evenodd;fill:#B5B5B7;" d="M611.319,398.092c-1.41,0-2.553-1.143-2.553-2.553
							c0-1.41,1.143-2.553,2.553-2.553c1.41,0,2.553,1.143,2.553,2.553C613.872,396.949,612.729,398.092,611.319,398.092z"/>
						<path style="fill-rule:evenodd;clip-rule:evenodd;fill:#B5B5B7;" d="M622.006,398.092c-1.41,0-2.553-1.143-2.553-2.553
							c0-1.41,1.143-2.553,2.553-2.553s2.553,1.143,2.553,2.553C624.56,396.949,623.417,398.092,622.006,398.092z"/>
					</g>
					<g>
						<path style="fill-rule:evenodd;clip-rule:evenodd;fill:#5EA5E4;" d="M515.13,409.132c-1.41,0-2.553-1.143-2.553-2.553
							c0-1.41,1.143-2.553,2.553-2.553c1.41,0,2.553,1.143,2.553,2.553C517.683,407.989,516.54,409.132,515.13,409.132z"/>
						<path style="fill-rule:evenodd;clip-rule:evenodd;fill:#5EA5E4;" d="M525.818,409.132c-1.41,0-2.553-1.143-2.553-2.553
							c0-1.41,1.143-2.553,2.553-2.553c1.41,0,2.553,1.143,2.553,2.553C528.371,407.989,527.228,409.132,525.818,409.132z"/>
						<path style="fill-rule:evenodd;clip-rule:evenodd;fill:#5EA5E4;" d="M536.505,409.132c-1.41,0-2.553-1.143-2.553-2.553
							c0-1.41,1.143-2.553,2.553-2.553s2.553,1.143,2.553,2.553C539.058,407.989,537.915,409.132,536.505,409.132z"/>
						<path style="fill-rule:evenodd;clip-rule:evenodd;fill:#7AAF60;" d="M547.193,409.132c-1.41,0-2.553-1.143-2.553-2.553
							c0-1.41,1.143-2.553,2.553-2.553c1.41,0,2.553,1.143,2.553,2.553C549.746,407.989,548.603,409.132,547.193,409.132z"/>
						<path style="fill-rule:evenodd;clip-rule:evenodd;fill:#7AAF60;" d="M557.88,409.132c-1.41,0-2.553-1.143-2.553-2.553
							c0-1.41,1.143-2.553,2.553-2.553c1.41,0,2.553,1.143,2.553,2.553C560.434,407.989,559.291,409.132,557.88,409.132z"/>
						<path style="fill-rule:evenodd;clip-rule:evenodd;fill:#7AAF60;" d="M568.568,409.132c-1.41,0-2.553-1.143-2.553-2.553
							c0-1.41,1.143-2.553,2.553-2.553c1.41,0,2.553,1.143,2.553,2.553C571.121,407.989,569.978,409.132,568.568,409.132z"/>
						<path style="fill-rule:evenodd;clip-rule:evenodd;fill:#7AAF60;" d="M579.256,409.132c-1.41,0-2.553-1.143-2.553-2.553
							c0-1.41,1.143-2.553,2.553-2.553c1.41,0,2.553,1.143,2.553,2.553C581.809,407.989,580.666,409.132,579.256,409.132z"/>
						<path style="fill-rule:evenodd;clip-rule:evenodd;fill:#B5B5B7;" d="M589.943,409.132c-1.41,0-2.553-1.143-2.553-2.553
							c0-1.41,1.143-2.553,2.553-2.553c1.41,0,2.553,1.143,2.553,2.553C592.497,407.989,591.354,409.132,589.943,409.132z"/>
						<path style="fill-rule:evenodd;clip-rule:evenodd;fill:#B5B5B7;" d="M600.631,409.132c-1.41,0-2.553-1.143-2.553-2.553
							c0-1.41,1.143-2.553,2.553-2.553c1.41,0,2.553,1.143,2.553,2.553C603.184,407.989,602.041,409.132,600.631,409.132z"/>
						<path style="fill-rule:evenodd;clip-rule:evenodd;fill:#B5B5B7;" d="M611.319,409.132c-1.41,0-2.553-1.143-2.553-2.553
							c0-1.41,1.143-2.553,2.553-2.553c1.41,0,2.553,1.143,2.553,2.553C613.872,407.989,612.729,409.132,611.319,409.132z"/>
						<path style="fill-rule:evenodd;clip-rule:evenodd;fill:#B5B5B7;" d="M622.006,409.132c-1.41,0-2.553-1.143-2.553-2.553
							c0-1.41,1.143-2.553,2.553-2.553s2.553,1.143,2.553,2.553C624.56,407.989,623.417,409.132,622.006,409.132z"/>
					</g>
				</g>
				<g>
					<g>
						<text transform="matrix(1 0 0 1 449.2379 393.6799)"><tspan x="0" y="0" style="fill:#B5B5B7; font-family:'Montserrat-Regular'; font-size:4.1413px;">LOREM IPSUM </tspan><tspan x="0" y="8.597" style="fill:#B5B5B7; font-family:'Montserrat-Regular'; font-size:4.1413px;">DOLOR SIT </tspan><tspan x="0" y="17.193" style="fill:#B5B5B7; font-family:'Montserrat-Regular'; font-size:4.1413px;">AMET</tspan></text>
					</g>
				</g>
			</g>
		</g>
	</g>
</g>
</svg>
