<?xml version="1.0" encoding="utf-8"?>
<!-- Generator: Adobe Illustrator 27.5.0, SVG Export Plug-In . SVG Version: 6.00 Build 0)  -->
<svg version="1.1" xmlns="http://www.w3.org/2000/svg" xmlns:xlink="http://www.w3.org/1999/xlink" x="0px" y="0px"
	 viewBox="0 0 500 500" style="enable-background:new 0 0 500 500;" xml:space="preserve">
<g id="BACKGROUND">
	<rect style="fill:none;" width="500" height="500"/>
</g>
<g id="OBJECTS">
	<g>
		<path style="fill:#FDC8C8;" d="M464.054,260.376c-2.81,38.079-20.429,73.688-47.455,102.474
			c-10.528,11.218-22.199,22.055-34.755,32.079c-0.278,0.227-0.546,0.443-0.823,0.659c-6.762,5.362-13.78,10.497-21.016,15.335
			c-6.566,4.384-13.317,8.532-20.213,12.371c-5.331,2.985-10.744,5.784-16.24,8.377c-27.551,13.05-56.995,21.098-86.707,21.335
			c-23.949,0.185-47.064-4.518-68.398-13.307c-7.451-3.067-14.696-6.638-21.674-10.672c-20.738-11.949-39.201-27.983-54.35-47.167
			c-3.479-4.405-6.782-8.974-9.901-13.698c-23.568-35.743-38.954-79.163-40.94-122.563c-0.473-10.559-0.165-21.129,1.019-31.585
			c0.051-0.37,0.093-0.731,0.134-1.091c0.545-4.528,1.132-8.717,2.038-12.504c1.75-7.389,4.641-13.235,10.539-17.033
			c0.422-0.268,0.865-0.535,1.317-0.782c3.273-1.811,7.389-3.057,12.597-3.684c11.98-1.441,23.156-0.72,32.995-9.016
			c9.592-8.12,14.017-20.593,18.401-32.357c6.453-17.362,18.885-28.786,32.542-41.691c22.374-21.149,50.285-29.28,73.595-30.412
			c52.93-2.573,111.428,11.434,157.287,42.535c0.288,0.196,0.587,0.391,0.885,0.597c7.729,5.29,15.087,11.074,21.993,17.352
			c15.221,13.822,28.24,30.031,38.12,48.659v0.01c6.556,12.36,11.732,25.781,15.242,40.271
			C464.012,230.243,465.165,245.484,464.054,260.376z"/>
		<g>
			<g style="opacity:0.8;">
				<path style="opacity:0.5;fill:#FFFFFF;" d="M445.086,174.781c0,0-59.836,21.304-106.57,1.276
					c-46.724-20.027-57.057-64.559-102.391-45.643c-52.446,21.89-60.504,58.786-90.906,75.417
					c-29.372,16.065-62.799,48.299-103.637,39.767c-0.473-10.559-0.165-21.129,1.019-31.585c0.051-0.37,0.093-0.731,0.134-1.091
					c0.545-4.528,1.132-8.717,2.038-12.504c12.607,6.051,40.992,13.276,84.803-10.642c22.055-12.052,40.642-27.036,58.426-40.014
					c0.165-0.123,0.329-0.247,0.494-0.36c31.359-22.858,60.278-39.324,101.424-22.178c47.753,19.904,94.035,12.659,117.005-1.297
					c15.221,13.822,28.24,30.031,38.12,48.659v0.01C445.076,174.719,445.086,174.781,445.086,174.781z"/>
				<g style="opacity:0.5;">
					<path style="fill:#FFFFFF;" d="M384.932,108.575c-15.931,9.046-47.866,22.518-85.873,13.503
						c-53.897-12.782-79.626,5.362-79.884,5.547l-0.566-0.772c0.257-0.185,26.305-18.597,80.666-5.701
						c37.389,8.871,68.851-4.209,84.772-13.173C384.335,108.174,384.633,108.369,384.932,108.575z"/>
				</g>
				<g style="opacity:0.5;">
					<path style="fill:#FFFFFF;" d="M188.629,148.949l-0.134,0.453l-0.144,0.453c-0.021-0.01-0.134-0.041-0.35-0.093
						c-3.551-0.947-33.901-7.966-66.35,17.722c-16.971,13.441-36.36,16.899-51.808,16.899c-5.424,0-10.353-0.422-14.532-0.998
						c0.422-0.268,0.865-0.535,1.317-0.782c16.045,2.007,42.319,1.636,64.426-15.87C155.84,139.193,188.31,148.846,188.629,148.949z
						"/>
				</g>
			</g>
			<g style="opacity:0.7;">
				<path style="opacity:0.4;fill:#FFFFFF;" d="M360.005,410.922c-6.566,4.384-13.317,8.532-20.213,12.371
					c-21.612-16.59-37.636-42.834-81.86-56.254c-47.002-14.254-52.806,31.081-97.287,55.709c-4.477,2.48-9.129,4.559-13.873,6.278
					c-20.738-11.949-39.201-27.983-54.35-47.167c25.307,9.684,69.047,10.477,111.674-12.576
					c39.211-21.201,69.633-7.729,103.133,11.846h0.01c0.175,0.113,0.35,0.216,0.525,0.319h0.01
					C324.005,390.957,340.966,401.866,360.005,410.922z"/>
				<g style="opacity:0.4;">
					<path style="fill:#FFFFFF;" d="M274.52,362.559l0.484-0.826c-0.275-0.16-28.043-15.855-80.833,2.445
						c-52.369,18.152-97.053-10.361-97.499-10.65l-0.522,0.802c0.448,0.293,45.525,29.061,98.334,10.753
						C246.821,346.941,274.249,362.401,274.52,362.559z"/>
				</g>
				<g style="opacity:0.4;">
					<path style="fill:#FFFFFF;" d="M381.844,394.929c-0.278,0.227-0.546,0.443-0.823,0.659c-1.832-0.967-3.654-2.017-5.465-3.18
						c-34.827-22.271-64.271-12.288-67.781-10.961h-0.01c-0.206,0.082-0.319,0.124-0.34,0.134l-0.185-0.453h-0.01l-0.175-0.432
						c0.309-0.134,31.636-12.998,69.016,10.899C377.985,392.819,379.909,393.931,381.844,394.929z"/>
				</g>
			</g>
		</g>
		<path style="fill:#FDC8C8;" d="M86.74,154.697c14.068-5.82,26.028-17.232,31.382-31.608c3.94-10.581,3.782-24.183-4.986-31.297
			c-8.9-7.221-22.347-4.408-32.266,1.334c-16.649,9.637-28.844,26.648-32.623,45.511c-0.828,4.133-1.258,8.495,0.045,12.504
			C52.786,164.968,76.971,158.74,86.74,154.697z"/>
	</g>
	<g>
		<g>
			<path style="fill:#F29D9D;" d="M304.462,259.534H188.247V96.549h116.215c1.953,0,3.536,1.583,3.536,3.536v155.913
				C307.997,257.951,306.414,259.534,304.462,259.534z"/>
			<rect x="196.237" y="106.253" style="fill:#F28F8F;" width="99.801" height="143.577"/>
			<g>
				<path style="fill:#FFFFFF;" d="M291.962,243.74h-91.648V112.343h91.648V243.74z M201.343,242.71h89.589V113.373h-89.589V242.71z
					"/>
			</g>
			<path style="fill:#E38686;" d="M188.247,96.549l-9.441,11.852c-1.223,1.536-1.89,3.441-1.89,5.405v159.952l11.33-14.225V96.549z"
				/>
			<path style="fill:#AB3F3F;" d="M176.917,273.758H304.63c0.764,0,1.383-0.619,1.383-1.383v-11.459
				c0-0.764-0.619-1.383-1.383-1.383H188.247L176.917,273.758z"/>
			<path style="fill:#FFFFFF;" d="M179.397,270.951h114.536c1.755,0,3.388-0.896,4.331-2.375l5.763-9.042H188.247L179.397,270.951z"
				/>
			<polygon style="fill:#E86868;" points="272.847,152.093 252.423,152.093 252.423,136.423 236.544,136.423 236.544,152.093 
				217.578,152.093 217.578,167.972 236.544,167.972 236.544,204.448 252.423,204.448 252.423,167.972 272.847,167.972 			"/>
		</g>
		<g>
			<g>
				<g>
					<path style="fill:#A572CC;" d="M335.603,176.188c-0.741,0.972-1.508,1.999-2.24,3.051c0.417-2.12,0.789-4.214,1.121-6.272
						c2.578-2.58,2.462-6.757,1.458-11.105c0.22-2.141,0.399-4.214,0.544-6.206c0.859-0.444,8.609-4.628,9.867-11.631
						c1.332-7.416,3.996-11.696,3.996-11.696s-11.006,2.484-13.049,7.864c-0.089,0.235-0.179,0.475-0.269,0.715
						c0.002-3.314-0.08-5.979-0.164-7.825c0.714-1.479,4.006-8.927,1.072-15.013c-3.272-6.787-3.625-11.817-3.625-11.817
						s-7.456,8.468-5.954,14.024c1.421,5.255,3.318,11.603,7.611,12.906c0.104,2.288,0.203,5.824,0.143,10.285
						c-1.384,4.114-2.289,8.436-0.463,11.283c-0.102,1.49-0.223,3.028-0.367,4.607c-0.458-1.568-0.982-3.123-1.494-4.596
						c-2.234-6.433-15.168-9.742-15.168-9.742s3.007,5.153,4.331,13.969c1.11,7.388,8.347,12.325,10.663,13.731
						c-0.447,2.794-0.971,5.652-1.582,8.553c-1.814,2.989-2.996,6.067-2.074,8.695c-0.21,0.782-0.427,1.566-0.65,2.351
						c-0.508-2.911-1.529-5.982-2.494-8.763c-2.234-6.433-15.168-9.742-15.168-9.742s3.007,5.153,4.331,13.969
						c1.074,7.151,7.891,12.007,10.427,13.587c-1.374,3.831-2.934,7.643-4.71,11.383c-1.842,1.806-3.101,3.797-3.062,5.974
						c-0.165,0.298-0.328,0.597-0.496,0.894c1.391-4.27-0.564-10.358-2.34-15.47c-2.234-6.433-15.168-9.742-15.168-9.742
						s3.007,5.153,4.331,13.969c1.325,8.816,11.377,14.145,11.377,14.145c0.104-0.097,0.185-0.207,0.28-0.308
						c-2.707,4.484-5.777,8.792-9.27,12.817l0.681,0.591c4.342-5.004,8.041-10.436,11.195-16.104
						c2.063,0.279,9.687,0.957,14.423-3.452c5.515-5.134,10.214-6.96,10.214-6.96s-10.296-4.616-15.158-1.537
						c-1.765,1.117-3.66,2.351-5.329,3.698c1.41-3.112,2.675-6.265,3.814-9.432c0.104,0.058,0.166,0.092,0.166,0.092
						c1.923-1.796,2.44-4.429,2.23-7.367c0.384-1.279,0.748-2.557,1.094-3.832c1.713-0.364,9.505-2.318,12.51-8.295
						c3.385-6.731,7.156-10.078,7.156-10.078S339.09,171.61,335.603,176.188z"/>
					<path style="fill:#A572CC;" d="M173.467,202.086c-1.775,5.112-3.731,11.2-2.34,15.47c-0.168-0.297-0.331-0.596-0.496-0.894
						c0.039-2.177-1.22-4.168-3.062-5.974c-1.776-3.741-3.336-7.552-4.71-11.383c2.537-1.579,9.353-6.436,10.427-13.587
						c1.325-8.816,4.331-13.969,4.331-13.969s-12.934,3.309-15.168,9.742c-0.966,2.781-1.986,5.852-2.494,8.763
						c-0.224-0.785-0.441-1.568-0.65-2.35c0.922-2.629-0.26-5.706-2.075-8.696c-0.61-2.901-1.134-5.759-1.581-8.553
						c2.316-1.406,9.553-6.343,10.663-13.732c1.325-8.816,4.331-13.969,4.331-13.969s-12.934,3.309-15.168,9.742
						c-0.511,1.472-1.035,3.027-1.494,4.596c-0.143-1.579-0.265-3.117-0.367-4.607c1.826-2.848,0.921-7.169-0.463-11.283
						c-0.06-4.461,0.039-7.997,0.143-10.285c4.293-1.303,6.19-7.651,7.611-12.906c1.502-5.556-5.954-14.024-5.954-14.024
						s-0.354,5.03-3.625,11.817c-2.934,6.085,0.358,13.533,1.072,15.013c-0.084,1.846-0.166,4.511-0.164,7.825
						c-0.09-0.24-0.18-0.48-0.269-0.715c-2.042-5.381-13.049-7.864-13.049-7.864s2.664,4.281,3.996,11.696
						c1.258,7.004,9.008,11.187,9.866,11.631c0.144,1.992,0.324,4.066,0.544,6.206c-1.003,4.348-1.119,8.525,1.458,11.105
						c0.331,2.059,0.703,4.152,1.12,6.272c-0.731-1.053-1.499-2.079-2.239-3.051c-3.488-4.578-14.746-3.831-14.746-3.831
						s3.771,3.347,7.156,10.078c3.005,5.977,10.797,7.931,12.51,8.295c0.346,1.275,0.711,2.552,1.094,3.832
						c-0.21,2.939,0.307,5.572,2.23,7.368c0,0,0.062-0.033,0.166-0.092c1.14,3.167,2.404,6.321,3.814,9.433
						c-1.669-1.347-3.565-2.581-5.329-3.699c-4.862-3.079-15.158,1.537-15.158,1.537s4.7,1.826,10.214,6.96
						c4.736,4.409,12.361,3.731,14.423,3.452c3.154,5.668,6.853,11.1,11.195,16.104l0.68-0.591
						c-3.493-4.025-6.563-8.333-9.27-12.817c0.096,0.101,0.177,0.211,0.28,0.308c0,0,10.053-5.329,11.377-14.145
						c1.325-8.816,4.331-13.969,4.331-13.969S175.701,195.653,173.467,202.086z"/>
				</g>
			</g>
			<g>
				<path style="fill:#FFA5A5;" d="M368.05,278.303c-26.919-2.363-35.319-4.03-44.955-23.289c0,0-20.827-42.623-8.464-50.083
					c3.523-2.122,6.748-2.475,9.57-1.722c7.074,1.886,11.581,10.737,11.758,16.073c0.264,7.461,3.766,2.277,4.717-12.728
					c0.951-15.005,0.505-42.109,16.784-37.965c16.274,4.15,9.96,28.358,7.367,35.006c-2.592,6.659,13.902-5.021,13.923-32.714
					c0.026-27.699,26.81-25.246,28.46,1.244c1.662,26.489-12.375,36.867-17.414,41.35c-5.051,4.484,1.924,6.207,9.971,1.51
					c5.826-3.402,15.942-5.809,21.537-0.92c2.122,1.849,3.592,4.748,3.935,9.05c1.537,19.426-30.406,19.737-37.131,21.262
					c-16.664,3.779,0.668,5.303,12.702,8.435C412.851,255.948,404.504,281.507,368.05,278.303z"/>
				<path style="opacity:0.2;fill:#E86868;" d="M368.05,278.303c-26.919-2.363-35.319-4.03-44.955-23.289
					c0,0-20.827-42.623-8.464-50.083c3.523-2.122,6.748-2.475,9.57-1.722c4.075,33.767,27.653,38.139,53.188,37.828
					c42.742-0.521,43.914-26.973,43.914-26.973c2.122,1.849,3.592,4.748,3.935,9.05c1.537,19.426-30.406,19.737-37.131,21.262
					c-16.664,3.779,0.668,5.303,12.702,8.435C412.851,255.948,404.504,281.507,368.05,278.303z"/>
				<g>
					<g>
						<g>
							<path style="fill:#FEBFA3;" d="M335.266,271.3c-0.006-0.005-0.012-0.01-0.018-0.016c-0.167-0.152-0.178-0.411-0.026-0.578
								c60.299-66.016,58.396-103.126,58.37-103.493c-0.017-0.225,0.153-0.421,0.378-0.437c0.225-0.017,0.422,0.151,0.437,0.378
								c0.028,0.38,0.587,9.516-6.347,26.988c-6.38,16.077-20.622,42.506-52.234,77.115
								C335.679,271.419,335.434,271.436,335.266,271.3z"/>
						</g>
						<g>
							<path style="fill:#FEBFA3;" d="M369.469,227.952c-0.143-0.116-0.194-0.318-0.112-0.491c0.096-0.204,0.339-0.292,0.544-0.196
								c7.691,3.607,17.859,1.828,25.036-0.298c0.217-0.065,0.445,0.06,0.508,0.275c0.065,0.217-0.059,0.444-0.275,0.508
								c-7.312,2.167-17.692,3.97-25.616,0.255C369.522,227.99,369.494,227.972,369.469,227.952z"/>
						</g>
						<g>
							<path style="fill:#FEBFA3;" d="M343.209,261.778c-0.045-0.036-0.082-0.082-0.109-0.137
								c-5.918-11.988-6.419-25.076-6.425-25.207c-0.007-0.226,0.17-0.415,0.395-0.422c0.227-0.008,0.414,0.17,0.422,0.394
								c0.005,0.13,0.504,13.047,6.341,24.873c0.1,0.202,0.017,0.447-0.186,0.547C343.5,261.9,343.329,261.876,343.209,261.778z"/>
						</g>
						<g>
							<path style="fill:#FEBFA3;" d="M358.828,243.423c-0.032-0.026-0.06-0.057-0.083-0.092c-6.256-9.49-3.467-26.353-3.345-27.066
								c0.038-0.222,0.248-0.372,0.472-0.334c0.22,0.035,0.372,0.247,0.334,0.472c-0.029,0.172-2.856,17.26,3.221,26.479
								c0.125,0.188,0.072,0.442-0.116,0.566C359.158,243.548,358.963,243.532,358.828,243.423z"/>
						</g>
						<g>
							<path style="fill:#FEBFA3;" d="M387.352,194.484c-0.092-0.075-0.151-0.19-0.151-0.318c0-0.226,0.184-0.408,0.41-0.408
								c9.99,0.014,14.833-16.609,14.881-16.777c0.062-0.217,0.288-0.343,0.505-0.282c0.219,0.064,0.343,0.289,0.282,0.505
								c-0.202,0.71-5.061,17.386-15.669,17.371C387.511,194.576,387.422,194.541,387.352,194.484z"/>
						</g>
						<g>
							<path style="fill:#FEBFA3;" d="M391.092,182.788c-6.257-5.078-4.823-15.051-4.758-15.477
								c0.033-0.223,0.242-0.377,0.465-0.342c0.221,0.032,0.377,0.24,0.342,0.465c-0.014,0.1-1.435,10.159,4.653,14.867
								c0.187,0.151,0.211,0.396,0.073,0.574c-0.139,0.178-0.395,0.211-0.574,0.073
								C391.226,182.895,391.158,182.842,391.092,182.788z"/>
						</g>
						<g>
							<path style="fill:#FEBFA3;" d="M339.644,266.437c-0.132-0.107-0.188-0.289-0.126-0.458c0.077-0.212,0.312-0.321,0.524-0.243
								c23.147,8.478,46.39-2.395,46.622-2.505c0.204-0.098,0.449-0.01,0.545,0.193c0.097,0.203,0.011,0.447-0.193,0.545
								c-0.235,0.112-23.778,11.134-47.256,2.534C339.717,266.488,339.678,266.465,339.644,266.437z"/>
						</g>
					</g>
				</g>
			</g>
			<g>
				<path style="fill:#FFA5A5;" d="M121.657,282.496c26.856-2.999,35.214-4.865,44.392-24.346c0,0,19.813-43.104,7.277-50.269
					c-3.573-2.038-6.805-2.315-9.609-1.495c-7.027,2.053-11.324,11.008-11.375,16.347c-0.088,7.465-3.711,2.365-5.017-12.613
					c-1.306-14.979-1.5-42.085-17.677-37.557c-16.171,4.534-9.287,28.586-6.537,35.17c2.749,6.596-14.017-4.691-14.693-32.376
					c-0.681-27.691-27.399-24.605-28.422,1.917c-1.035,26.521,13.243,36.564,18.387,40.927c5.156,4.364-1.777,6.251-9.932,1.745
					c-5.905-3.264-16.075-5.43-21.553-0.41c-2.078,1.899-3.479,4.832-3.72,9.14c-1.078,19.457,30.864,19.012,37.623,20.378
					c16.749,3.384-0.542,5.317-12.499,8.733C76.339,261.205,85.289,286.56,121.657,282.496z"/>
				<path style="opacity:0.2;fill:#E86868;" d="M121.657,282.496c26.856-2.999,35.214-4.865,44.392-24.346
					c0,0,19.813-43.104,7.277-50.269c-3.573-2.038-6.805-2.315-9.609-1.495c-3.276,33.854-26.743,38.782-52.278,39.075
					c-42.743,0.49-44.54-25.927-44.54-25.927c-2.078,1.899-3.479,4.832-3.72,9.14c-1.078,19.457,30.864,19.012,37.623,20.378
					c16.749,3.384-0.542,5.317-12.499,8.733C76.339,261.205,85.289,286.56,121.657,282.496z"/>
				<g>
					<g>
						<g>
							<path style="fill:#FEBFA3;" d="M154.266,274.719c0.006-0.005,0.012-0.01,0.018-0.016c0.163-0.156,0.169-0.415,0.012-0.578
								c-61.843-64.572-60.819-101.716-60.801-102.084c0.011-0.226-0.163-0.417-0.388-0.428c-0.226-0.011-0.419,0.161-0.428,0.388
								c-0.019,0.381-0.362,9.528,6.984,26.831c6.758,15.921,21.621,42.006,54.043,75.858
								C153.856,274.847,154.102,274.858,154.266,274.719z"/>
						</g>
						<g>
							<path style="fill:#FEBFA3;" d="M119.048,232.191c0.14-0.119,0.186-0.322,0.101-0.494c-0.1-0.202-0.346-0.284-0.548-0.183
								c-7.603,3.787-17.811,2.25-25.036,0.294c-0.218-0.059-0.443,0.07-0.501,0.287c-0.059,0.219,0.069,0.442,0.287,0.501
								c7.361,1.994,17.781,3.551,25.615-0.351C118.995,232.231,119.023,232.212,119.048,232.191z"/>
						</g>
						<g>
							<path style="fill:#FEBFA3;" d="M146.1,265.388c0.044-0.037,0.08-0.084,0.106-0.139c5.632-12.125,5.825-25.221,5.827-25.352
								c0.002-0.226-0.18-0.41-0.405-0.413c-0.227-0.003-0.41,0.18-0.413,0.404c-0.002,0.129-0.195,13.055-5.751,25.016
								c-0.095,0.205-0.006,0.448,0.199,0.543C145.812,265.516,145.982,265.488,146.1,265.388z"/>
						</g>
						<g>
							<path style="fill:#FEBFA3;" d="M130.051,247.407c0.031-0.026,0.059-0.058,0.081-0.094c6.03-9.635,2.843-26.428,2.704-27.138
								c-0.043-0.222-0.257-0.366-0.479-0.323c-0.219,0.04-0.366,0.256-0.323,0.479c0.033,0.171,3.263,17.187-2.594,26.547
								c-0.12,0.192-0.062,0.444,0.129,0.563C129.725,247.539,129.919,247.519,130.051,247.407z"/>
						</g>
						<g>
							<path style="fill:#FEBFA3;" d="M100.378,199.156c0.091-0.077,0.147-0.193,0.144-0.322c-0.006-0.226-0.193-0.404-0.419-0.398
								c-9.987,0.25-15.222-16.254-15.273-16.421c-0.067-0.216-0.296-0.337-0.512-0.27c-0.217,0.069-0.336,0.297-0.27,0.512
								c0.219,0.705,5.471,17.261,16.076,16.996C100.221,199.251,100.31,199.215,100.378,199.156z"/>
						</g>
						<g>
							<path style="fill:#FEBFA3;" d="M96.363,187.552c6.135-5.225,4.466-15.161,4.391-15.585c-0.038-0.222-0.251-0.371-0.473-0.331
								c-0.22,0.037-0.371,0.249-0.331,0.473c0.017,0.1,1.675,10.122-4.3,14.973c-0.183,0.156-0.202,0.401-0.06,0.575
								c0.143,0.175,0.4,0.201,0.575,0.06C96.231,187.661,96.298,187.607,96.363,187.552z"/>
						</g>
						<g>
							<path style="fill:#FEBFA3;" d="M149.775,269.961c0.13-0.11,0.181-0.294,0.115-0.461c-0.082-0.21-0.319-0.313-0.53-0.231
								c-22.941,9.023-46.433-1.297-46.669-1.402c-0.206-0.093-0.449,0-0.54,0.206c-0.092,0.206-0.001,0.448,0.205,0.541
								c0.237,0.106,24.035,10.568,47.303,1.416C149.703,270.013,149.741,269.989,149.775,269.961z"/>
						</g>
					</g>
				</g>
			</g>
		</g>
	</g>
	<g>
		<defs>
			<path id="SVGID_1_" d="M464.057,260.371c-2.814,38.087-20.43,73.692-47.461,102.484c-25.498,27.165-57.703,52.103-93.043,68.812
				c-27.551,13.056-56.996,21.097-86.708,21.337c-23.951,0.187-47.061-4.52-68.398-13.309
				c-34.686-14.269-64.665-39.287-85.922-71.532c-29.311-44.448-45.968-100.764-39.927-154.147c0.053-0.373,0.093-0.733,0.133-1.093
				c2.24-18.59,5.334-31.485,26.498-34.006c11.975-1.44,23.151-0.72,32.992-9.015c9.588-8.122,14.016-20.591,18.403-32.353
				c6.455-17.363,18.879-28.793,32.539-41.701c22.379-21.146,50.286-29.276,73.597-30.408
				c95.016-4.614,208.024,44.184,233.522,149.429C464.017,230.246,465.164,245.489,464.057,260.371z"/>
		</defs>
		<clipPath id="SVGID_00000183958184110900244350000013201306308600515773_">
			<use xlink:href="#SVGID_1_"  style="overflow:visible;"/>
		</clipPath>
		<g style="clip-path:url(#SVGID_00000183958184110900244350000013201306308600515773_);">
			<path style="fill:#A572CC;" d="M148.069,385.861l-61.337,34.587c-10.315-5.176-17.857-13.276-23.318-22.743
				c-15.933-27.609-14.13-66.908-11.588-79.747c2.295-11.559,31.273-27.481,50.111-36.707c9.257-4.528,16.055-7.45,16.055-7.45
				L148.069,385.861z"/>
			<path style="opacity:0.3;fill:#E86868;" d="M148.069,385.861l-61.337,34.587c-10.315-5.176-17.857-13.276-23.318-22.743
				c17.463-8.154,42.029-23.402,35.126-42.468c-8.759-24.18,0.237-62.26,3.397-73.985c9.257-4.528,16.055-7.45,16.055-7.45
				L148.069,385.861z"/>
			<path style="fill:#342873;" d="M117.988,273.802c0,0-23.414,30.381-6.787,75.704s36.867,36.36,36.867,36.36
				s22.725-37.939,14.719-58.548L117.988,273.802z"/>
			<path style="fill:#A572CC;" d="M445.369,401.426c-4.316,9.677-10.745,18.26-20.089,24.426l-64.978-27.11l16.647-114.825
				c0,0,8.875,2.615,20.359,6.755c19.713,7.116,47.123,18.722,50.543,29.287C451.932,332.534,458.446,372.031,445.369,401.426z"/>
			<path style="opacity:0.3;fill:#E86868;" d="M445.369,401.426c-4.316,9.677-10.745,18.26-20.089,24.426l-64.978-27.11
				l16.647-114.825c0,0,8.875,2.615,20.359,6.755c4.61,13.934,18.805,62.329,4.283,91.2
				C388.879,407.128,423.146,406.515,445.369,401.426z"/>
			<path style="fill:#342873;" d="M376.948,283.918c0,0,26.835,27.406,15.671,74.374c-11.163,46.968-32.32,40.456-32.32,40.456
				s-27.043-34.993-21.523-56.402L376.948,283.918z"/>
			<g>
				<path style="fill:#342873;" d="M229.672,342.174c-0.075,2.129-1.863,3.796-3.993,3.72c-1.08-0.038-2.043-0.514-2.712-1.249
					c-0.661-0.726-1.054-1.688-1.016-2.745c0.008-0.221,0.031-0.433,0.078-0.637c0.269-1.349,1.239-2.436,2.51-2.88
					c0.44-0.15,0.916-0.228,1.413-0.211c1.057,0.037,1.988,0.497,2.666,1.2C229.303,340.1,229.71,341.093,229.672,342.174z"/>
				<path style="opacity:0.7;fill:#3A2A2A;" d="M229.672,342.174c-0.075,2.129-1.863,3.796-3.993,3.72
					c-1.08-0.038-2.043-0.514-2.712-1.249c3.631-0.859,5.105-3.689,5.651-5.273C229.303,340.1,229.71,341.093,229.672,342.174z"/>
				<path style="opacity:0.4;fill:#FEBFA3;" d="M225.442,340.09c-0.038,1.065-0.928,1.894-1.992,1.856
					c-0.568-0.02-1.072-0.283-1.421-0.682c0.269-1.349,1.239-2.436,2.51-2.88C225.103,338.735,225.467,339.38,225.442,340.09z"/>
			</g>
			<g>
				<path style="fill:#D65239;" d="M393.916,352.065c-0.648,4.065-1.544,7.997-2.707,11.671
					c-3.211,10.117-48.381-1.533-77.465-10.189c-14.048-4.189-24.34-7.678-24.34-7.678l49.657-105.736
					c0,0,31.595,39.057,43.194,47.578C392.28,295.059,398.053,326.284,393.916,352.065z"/>
				<path style="opacity:0.3;fill:#92332F;" d="M393.916,352.065c-0.648,4.065-1.544,7.997-2.707,11.671
					c-3.211,10.117-48.381-1.533-77.465-10.189c10.323-12.175,40.93-27.18,40.93-27.18S360.499,356.943,393.916,352.065z"/>
				<path style="fill:#D65239;" d="M316.298,231.175l-12.989,0.171l-4.967-0.155c0,0-30.467,15.067-42.487,11.58
					c-10.534-3.057-7.834-19.046,1.635-23.092l0.011-0.001c1.312-0.572,2.765-0.9,4.327-0.935c0,0,0.406-1.312,1.24-3.156
					c1.758-3.923,5.431-10.272,11.202-11.511C292.183,200.22,309.973,207.507,316.298,231.175z"/>
				<g>
					<path style="fill:#342873;" d="M281.881,234.538c-0.075,2.129-1.863,3.796-3.993,3.72c-1.08-0.038-2.043-0.514-2.712-1.249
						c-0.661-0.726-1.054-1.688-1.017-2.745c0.008-0.221,0.031-0.433,0.078-0.637c0.269-1.349,1.239-2.436,2.51-2.88
						c0.44-0.15,0.916-0.228,1.413-0.211c1.057,0.037,1.988,0.497,2.666,1.2C281.512,232.464,281.919,233.457,281.881,234.538z"/>
					<path style="opacity:0.7;fill:#3A2A2A;" d="M281.881,234.538c-0.075,2.129-1.863,3.796-3.993,3.72
						c-1.08-0.038-2.043-0.514-2.712-1.249c3.631-0.859,5.105-3.689,5.651-5.273C281.512,232.464,281.919,233.457,281.881,234.538z"
						/>
					<path style="opacity:0.4;fill:#FEBFA3;" d="M277.651,232.454c-0.038,1.065-0.928,1.894-1.992,1.856
						c-0.568-0.02-1.072-0.283-1.421-0.682c0.269-1.349,1.239-2.436,2.51-2.88C277.312,231.099,277.676,231.744,277.651,232.454z"/>
				</g>
				<path style="opacity:0.3;fill:#92332F;" d="M255.849,242.772c12.021,3.487,42.487-11.58,42.487-11.58l4.967,0.155
					c0.511-6.323-4.941-9.037-4.941-9.037c1.494,11.059-34.431,16.498-40.061,10.988c-5.629-5.499-0.806-13.618-0.806-13.618
					l-0.012,0.001C248.015,223.725,245.315,239.714,255.849,242.772z"/>
				<path style="fill:#D65239;" d="M246.504,309.747c0,0-0.25,0.245-0.659,0.718c-0.506,0.582-4.295,10.032-1.145,18.75
					c2.97,8.187,5.175,10.473,5.924,13.017c0.492,1.708,0.335,3.523-0.684,7.299c-0.321,1.181,0.628,3.23,1.476,5.503
					c1.939,5.154,6.072,11.627,14.794,12.837c14.917,2.085,59.326-1.913,78.458-15.481c22.003-15.602,5.453-24.48,12.327-58.374
					c2.163-10.688-10.653-27.611-13.866-42.628c-2.514-11.757-8.151-18.176-13.414-21.005c-1.866-1.017-3.694-1.576-5.316-1.768
					c-18.519-2.113-51.512,10.515-73.604,11.973c-22.105,1.447-13.509,30.053-5.504,31.972c0,0-2.475,1.711-3.828,6.07
					c-0.432,1.441-0.755,3.174-0.818,5.225c0,0,0,0,0.001,0.011c-0.012,0.001-0.011,0.012-0.011,0.012
					c-0.025,0.749-0.012,1.554,0.038,2.39C241.273,296.39,241.898,306.936,246.504,309.747z"/>
				<path style="opacity:0.3;fill:#92332F;" d="M241.464,278.629c0.011-0.012,0.011-0.012,0.022-0.024
					c5.266-7.225,55.619-13.623,62.322-16.976c6.703-3.365,5.955-7.634,5.955-7.634c-2.051,7.139-42.578,13.737-48.536,12.973
					c-5.959-0.775-14.59-4.923-16.51-12.47c-1.931-7.547,6.079-13.911,6.079-13.911c-22.105,1.447-13.509,30.053-5.504,31.972
					C245.292,272.558,242.817,274.269,241.464,278.629z"/>
				<path style="opacity:0.3;fill:#92332F;" d="M246.504,309.747c0,0,57.439-8.531,65.928-10.667
					c10.212-2.583,13.609-11.654,10.383-7.85s-41.77,10.686-61.33,13.328c-19.344,2.606-20.807-20.165-20.838-20.692
					c-0.012,0.001-0.011,0.012-0.011,0.012c-0.025,0.749-0.012,1.554,0.038,2.39C241.273,296.39,241.898,306.936,246.504,309.747z"
					/>
				<path style="opacity:0.3;fill:#92332F;" d="M251.417,355.033c1.939,5.154,6.072,11.627,14.794,12.837
					c14.917,2.085,59.326-1.913,78.458-15.481c22.003-15.602,5.453-24.48,12.327-58.374c2.163-10.688-10.653-27.611-13.866-42.628
					c-2.514-11.757-8.151-18.176-13.414-21.005c9.274,15.97,19.177,54.416,16.606,65.209c-3.085,12.986-3.05,15.74-6.491,37.483
					c-2.422,15.303-39.55,27.362-57.334,29.898C264.702,365.497,251.417,355.033,251.417,355.033z"/>
				<path style="opacity:0.3;fill:#92332F;" d="M244.7,329.214c2.97,8.187,5.175,10.473,5.924,13.017
					c5.059,0.345,13.153-2.067,24.02-2.71c13.997-0.829,42.08-5.448,48.385-11.251c4.386-4.021,5.259-6.96,5.259-6.96
					s-1.241,0.994-8.336,6.096c-7.095,5.102-63.73,13.206-69.865,5.183c-6.134-8.011-4.243-22.123-4.243-22.123
					C245.339,311.047,241.55,320.497,244.7,329.214z"/>
			</g>
			<path style="fill:#EA5F45;" d="M222.097,328.703c0,0-7.647,2.923-18.834,7.029c-29.763,10.94-84.577,30.319-87.088,25.595
				c-3.54-6.638-6.072-13.451-7.781-20.223c-7.369-29.146,0.474-57.427,8.779-66.463c0.268-0.298,0.535-0.576,0.813-0.834
				c8.161-7.637,26.141-35.002,33.767-46.837v-0.01c0.01-0.01,0.01-0.01,0.01-0.01c2.182-3.386,3.509-5.496,3.509-5.496
				L222.097,328.703z"/>
			<path style="opacity:0.3;fill:#92332F;" d="M203.264,335.732c-29.763,10.94-84.577,30.319-87.088,25.595
				c-3.54-6.638-6.072-13.451-7.781-20.223c23.98-1.997,47.208-22.364,47.208-22.364
				C170.588,308.377,195.03,326.737,203.264,335.732z"/>
			<path style="fill:#EA5F45;" d="M238.214,214.26c-11.527,4.889-43.564-6.484-43.564-6.484l-4.909,0.741l-12.916,1.358
				c1.441-10.045,5.177-17.537,10.353-22.714c7.307-7.369,17.496-10.158,28.178-9.149c4.446,0.412,8.048,3.88,10.497,7.132v0.01
				c0.659,0.875,1.225,1.719,1.708,2.501c1.215,1.976,1.883,3.448,1.883,3.448c1.554-0.144,3.036,0.01,4.405,0.422h0.01
				C243.741,194.428,248.31,209.989,238.214,214.26z"/>
			<path style="opacity:0.3;fill:#92332F;" d="M238.211,214.263c-11.525,4.881-43.557-6.486-43.557-6.486l-4.914,0.74
				c-1.254-6.218,3.84-9.557,3.84-9.557c-0.179,11.158,36.137,12.321,41.077,6.185c4.94-6.125-0.806-13.618-0.806-13.618
				l0.011-0.001C243.743,194.426,248.311,209.984,238.211,214.263z"/>
			<path style="fill:#EA5F45;" d="M255.392,279.668c0,0,0.277,0.214,0.739,0.635c0.571,0.518,5.449,9.456,3.349,18.484
				c-1.983,8.48-3.904,11.01-4.347,13.625c-0.287,1.754,0.083,3.538,1.54,7.168c0.458,1.135-0.243,3.281-0.817,5.639
				c-1.317,5.347-4.658,12.262-13.176,14.492c-14.567,3.83-59.137,5.1-79.737-6.116c-23.69-12.897-8.303-23.666-19.128-56.512
				c-3.408-10.358,7.321-28.675,8.74-43.967c1.109-11.972,5.949-19.011,10.842-22.441c1.733-1.23,3.482-2.001,5.07-2.382
				c18.141-4.283,52.393,4.364,74.503,3.205c22.121-1.171,16.961,28.25,9.238,31.1c0,0,2.66,1.407,4.517,5.576
				c0.599,1.379,1.124,3.062,1.429,5.092c0,0,0,0,0.001,0.012c0.011-0.001,0.012,0.011,0.012,0.011
				c0.113,0.741,0.195,1.541,0.244,2.378C259.011,265.787,259.635,276.334,255.392,279.668z"/>
			<path style="opacity:0.3;fill:#92332F;" d="M256.726,248.173c-0.012-0.011-0.012-0.011-0.024-0.022
				c-6.082-6.554-56.837-6.965-63.89-9.504c-7.053-2.55-6.815-6.878-6.815-6.878c2.879,6.847,43.902,8.617,49.728,7.156
				c5.826-1.472,13.908-6.61,14.923-14.331c1.027-7.722-7.678-13.097-7.678-13.097c22.121-1.171,16.961,28.25,9.238,31.1
				C252.208,242.596,254.869,244.003,256.726,248.173z"/>
			<path style="opacity:0.3;fill:#92332F;" d="M255.392,279.668c0,0-58.044-1.694-66.726-2.814
				c-10.445-1.36-14.889-9.966-11.237-6.57s42.739,5.684,62.475,5.999c19.517,0.306,18.283-22.479,18.252-23.006
				c0.011-0.001,0.012,0.011,0.012,0.011c0.113,0.741,0.195,1.541,0.244,2.378C259.011,265.787,259.635,276.334,255.392,279.668z"/>
			<path style="opacity:0.3;fill:#92332F;" d="M255.857,325.217c-1.317,5.347-4.658,12.262-13.176,14.492
				c-14.567,3.83-59.137,5.1-79.737-6.116c-23.69-12.897-8.303-23.666-19.128-56.512c-3.408-10.358,7.321-28.675,8.74-43.967
				c1.109-11.972,5.949-19.011,10.842-22.441c-7.325,16.953-12.623,56.298-8.797,66.713c4.595,12.531,4.886,15.27,10.868,36.456
				c4.21,14.911,42.502,22.504,60.461,22.925C243.9,337.176,255.857,325.217,255.857,325.217z"/>
			<path style="opacity:0.3;fill:#92332F;" d="M259.481,298.786c-1.983,8.48-3.904,11.01-4.347,13.625
				c-4.983,0.939-13.305-0.501-24.172,0.143c-13.997,0.829-42.428-0.445-49.375-5.463c-4.83-3.476-6.044-6.291-6.044-6.291
				s1.35,0.84,8.997,5.07c7.647,4.229,64.843,5.594,69.989-3.096c5.146-8.679,1.603-22.469,1.603-22.469
				C256.703,280.821,261.58,289.758,259.481,298.786z"/>
			<g>
				<path style="fill:#342873;" d="M192.236,260.715c-6.201-45.605,12.75-53.291,13.56-53.595l0.364,0.962
					c-0.19,0.073-18.981,7.797-12.904,52.494L192.236,260.715z"/>
			</g>
			<g>
				<path style="fill:#342873;" d="M209.063,208.339c-0.075,2.129-1.863,3.796-3.993,3.72c-1.081-0.038-2.043-0.514-2.712-1.249
					c-0.661-0.726-1.054-1.688-1.016-2.744c0.008-0.221,0.031-0.433,0.078-0.637c0.269-1.349,1.239-2.436,2.51-2.88
					c0.44-0.15,0.916-0.228,1.413-0.211c1.057,0.037,1.988,0.497,2.666,1.2C208.694,206.265,209.101,207.259,209.063,208.339z"/>
				<path style="opacity:0.7;fill:#3A2A2A;" d="M209.063,208.339c-0.075,2.129-1.863,3.796-3.993,3.72
					c-1.081-0.038-2.043-0.514-2.712-1.249c3.631-0.859,5.105-3.689,5.651-5.273C208.694,206.265,209.101,207.259,209.063,208.339z"
					/>
				<path style="opacity:0.4;fill:#FEBFA3;" d="M204.833,206.255c-0.038,1.065-0.928,1.894-1.992,1.856
					c-0.568-0.02-1.072-0.283-1.421-0.682c0.269-1.349,1.239-2.436,2.51-2.88C204.494,204.901,204.858,205.545,204.833,206.255z"/>
			</g>
			<g>
				<path style="fill:#342873;" d="M203.451,212.541c-0.075,2.129-1.863,3.796-3.993,3.72c-1.08-0.038-2.043-0.514-2.712-1.249
					c-0.661-0.726-1.054-1.688-1.016-2.744c0.008-0.221,0.031-0.433,0.078-0.637c0.269-1.349,1.239-2.436,2.51-2.88
					c0.44-0.15,0.916-0.228,1.413-0.211c1.057,0.037,1.988,0.497,2.666,1.2C203.082,210.467,203.489,211.461,203.451,212.541z"/>
				<path style="opacity:0.7;fill:#3A2A2A;" d="M203.451,212.541c-0.075,2.129-1.863,3.796-3.993,3.72
					c-1.08-0.038-2.043-0.514-2.712-1.249c3.631-0.859,5.105-3.689,5.651-5.273C203.082,210.467,203.489,211.461,203.451,212.541z"
					/>
				<path style="opacity:0.4;fill:#FEBFA3;" d="M199.221,210.457c-0.038,1.065-0.928,1.894-1.992,1.856
					c-0.568-0.02-1.072-0.283-1.421-0.682c0.269-1.349,1.239-2.436,2.51-2.88C198.882,209.103,199.246,209.747,199.221,210.457z"/>
			</g>
			<g>
				<path style="fill:#342873;" d="M200.756,217.67c-0.075,2.129-1.863,3.796-3.993,3.72c-1.08-0.038-2.043-0.514-2.712-1.249
					c-0.661-0.726-1.054-1.688-1.016-2.744c0.008-0.221,0.031-0.433,0.078-0.637c0.269-1.349,1.239-2.436,2.51-2.88
					c0.44-0.15,0.916-0.228,1.413-0.211c1.057,0.037,1.988,0.497,2.666,1.2C200.387,215.596,200.794,216.59,200.756,217.67z"/>
				<path style="opacity:0.7;fill:#3A2A2A;" d="M200.756,217.67c-0.075,2.129-1.863,3.796-3.993,3.72
					c-1.08-0.038-2.043-0.514-2.712-1.249c3.631-0.859,5.105-3.689,5.651-5.273C200.387,215.596,200.794,216.59,200.756,217.67z"/>
				<path style="opacity:0.4;fill:#FEBFA3;" d="M196.526,215.586c-0.038,1.065-0.928,1.894-1.992,1.856
					c-0.568-0.02-1.072-0.283-1.421-0.682c0.269-1.349,1.239-2.436,2.51-2.88C196.187,214.232,196.551,214.876,196.526,215.586z"/>
			</g>
			<g>
				<path style="fill:#342873;" d="M196.231,230.64c-0.075,2.129-1.863,3.796-3.993,3.72c-1.08-0.038-2.043-0.514-2.712-1.249
					c-0.661-0.726-1.054-1.688-1.016-2.744c0.008-0.221,0.031-0.433,0.078-0.637c0.269-1.349,1.239-2.436,2.51-2.88
					c0.44-0.15,0.916-0.228,1.413-0.211c1.057,0.037,1.988,0.497,2.666,1.2C195.862,228.566,196.269,229.56,196.231,230.64z"/>
				<path style="opacity:0.7;fill:#3A2A2A;" d="M196.231,230.64c-0.075,2.129-1.863,3.796-3.993,3.72
					c-1.08-0.038-2.043-0.514-2.712-1.249c3.631-0.859,5.105-3.689,5.651-5.273C195.862,228.566,196.269,229.56,196.231,230.64z"/>
				<path style="opacity:0.4;fill:#FEBFA3;" d="M192.001,228.556c-0.038,1.065-0.928,1.894-1.992,1.856
					c-0.568-0.02-1.072-0.283-1.421-0.682c0.269-1.349,1.239-2.436,2.51-2.88C191.662,227.202,192.026,227.846,192.001,228.556z"/>
			</g>
			<g>
				<path style="fill:#342873;" d="M195.892,237.363c-0.075,2.129-1.864,3.796-3.993,3.72c-1.081-0.038-2.043-0.514-2.712-1.249
					c-0.661-0.726-1.054-1.688-1.016-2.745c0.008-0.221,0.031-0.433,0.078-0.637c0.269-1.349,1.239-2.436,2.51-2.88
					c0.44-0.15,0.916-0.228,1.413-0.211c1.057,0.037,1.988,0.497,2.666,1.2C195.523,235.289,195.93,236.283,195.892,237.363z"/>
				<path style="opacity:0.7;fill:#3A2A2A;" d="M195.892,237.363c-0.075,2.129-1.864,3.796-3.993,3.72
					c-1.081-0.038-2.043-0.514-2.712-1.249c3.631-0.859,5.105-3.689,5.651-5.273C195.523,235.289,195.93,236.283,195.892,237.363z"
					/>
				<path style="opacity:0.4;fill:#FEBFA3;" d="M191.662,235.279c-0.038,1.065-0.928,1.894-1.992,1.856
					c-0.568-0.02-1.072-0.283-1.421-0.682c0.269-1.349,1.239-2.436,2.51-2.88C191.323,233.924,191.687,234.569,191.662,235.279z"/>
			</g>
			<g>
				<path style="fill:#342873;" d="M195.192,244.246c-0.075,2.13-1.863,3.796-3.993,3.72c-1.08-0.038-2.043-0.514-2.712-1.249
					c-0.661-0.726-1.054-1.688-1.016-2.744c0.008-0.221,0.031-0.433,0.078-0.637c0.269-1.349,1.239-2.436,2.51-2.88
					c0.44-0.15,0.916-0.228,1.413-0.211c1.057,0.037,1.988,0.497,2.666,1.2C194.823,242.172,195.23,243.166,195.192,244.246z"/>
				<path style="opacity:0.7;fill:#3A2A2A;" d="M195.192,244.246c-0.075,2.13-1.863,3.796-3.993,3.72
					c-1.08-0.038-2.043-0.514-2.712-1.249c3.631-0.859,5.105-3.689,5.651-5.273C194.823,242.172,195.23,243.166,195.192,244.246z"/>
				<path style="opacity:0.4;fill:#FEBFA3;" d="M190.962,242.162c-0.038,1.065-0.928,1.894-1.992,1.856
					c-0.568-0.02-1.072-0.283-1.421-0.682c0.269-1.349,1.239-2.436,2.51-2.88C190.623,240.808,190.987,241.452,190.962,242.162z"/>
			</g>
			<g>
				<path style="fill:#342873;" d="M286.86,241.907c-0.075,2.13-1.863,3.796-3.993,3.72c-1.08-0.038-2.043-0.514-2.712-1.249
					c-0.661-0.726-1.054-1.688-1.016-2.744c0.008-0.221,0.031-0.433,0.078-0.637c0.269-1.349,1.239-2.436,2.51-2.88
					c0.44-0.15,0.916-0.228,1.413-0.211c1.057,0.037,1.988,0.497,2.666,1.2C286.491,239.833,286.898,240.827,286.86,241.907z"/>
				<path style="opacity:0.7;fill:#3A2A2A;" d="M286.86,241.907c-0.075,2.13-1.863,3.796-3.993,3.72
					c-1.08-0.038-2.043-0.514-2.712-1.249c3.631-0.859,5.105-3.689,5.651-5.273C286.491,239.833,286.898,240.827,286.86,241.907z"/>
				<path style="opacity:0.4;fill:#FEBFA3;" d="M282.63,239.823c-0.038,1.065-0.928,1.894-1.992,1.856
					c-0.568-0.02-1.072-0.283-1.421-0.682c0.269-1.349,1.239-2.436,2.51-2.88C282.291,238.469,282.655,239.113,282.63,239.823z"/>
			</g>
			<g>
				<path style="fill:#342873;" d="M284.656,238.312c-0.075,2.129-1.863,3.796-3.993,3.72c-1.08-0.038-2.043-0.514-2.712-1.249
					c-0.661-0.726-1.054-1.688-1.016-2.744c0.008-0.221,0.031-0.433,0.078-0.637c0.269-1.349,1.239-2.436,2.51-2.88
					c0.44-0.15,0.916-0.228,1.413-0.211c1.057,0.037,1.988,0.497,2.666,1.2C284.287,236.238,284.694,237.232,284.656,238.312z"/>
				<path style="opacity:0.7;fill:#3A2A2A;" d="M284.656,238.312c-0.075,2.129-1.863,3.796-3.993,3.72
					c-1.08-0.038-2.043-0.514-2.712-1.249c3.631-0.859,5.105-3.689,5.651-5.273C284.287,236.238,284.694,237.232,284.656,238.312z"
					/>
				<path style="opacity:0.4;fill:#FEBFA3;" d="M280.426,236.228c-0.038,1.065-0.928,1.894-1.992,1.856
					c-0.568-0.02-1.072-0.283-1.421-0.682c0.269-1.349,1.239-2.436,2.51-2.88C280.087,234.874,280.451,235.518,280.426,236.228z"/>
			</g>
			<g>
				<path style="fill:#342873;" d="M290.254,246.556c-0.075,2.129-1.864,3.796-3.993,3.72c-1.081-0.038-2.043-0.514-2.712-1.249
					c-0.661-0.726-1.054-1.688-1.016-2.744c0.008-0.221,0.031-0.433,0.078-0.637c0.269-1.349,1.239-2.436,2.51-2.88
					c0.44-0.15,0.916-0.228,1.413-0.211c1.057,0.037,1.988,0.497,2.666,1.2C289.885,244.482,290.292,245.476,290.254,246.556z"/>
				<path style="opacity:0.7;fill:#3A2A2A;" d="M290.254,246.556c-0.075,2.129-1.864,3.796-3.993,3.72
					c-1.081-0.038-2.043-0.514-2.712-1.249c3.631-0.859,5.105-3.689,5.651-5.273C289.885,244.482,290.292,245.476,290.254,246.556z"
					/>
				<path style="opacity:0.4;fill:#FEBFA3;" d="M286.024,244.472c-0.038,1.065-0.928,1.894-1.992,1.856
					c-0.568-0.02-1.072-0.283-1.421-0.682c0.269-1.349,1.239-2.436,2.51-2.88C285.685,243.118,286.049,243.762,286.024,244.472z"/>
			</g>
			<g>
				<path style="fill:#342873;" d="M293.273,252.654c-0.075,2.129-1.863,3.796-3.993,3.72c-1.08-0.038-2.043-0.514-2.712-1.249
					c-0.661-0.726-1.054-1.688-1.017-2.745c0.008-0.221,0.031-0.433,0.078-0.637c0.269-1.349,1.239-2.436,2.51-2.88
					c0.44-0.15,0.916-0.228,1.413-0.211c1.057,0.037,1.988,0.497,2.666,1.2C292.904,250.58,293.311,251.574,293.273,252.654z"/>
				<path style="opacity:0.7;fill:#3A2A2A;" d="M293.273,252.654c-0.075,2.129-1.863,3.796-3.993,3.72
					c-1.08-0.038-2.043-0.514-2.712-1.249c3.631-0.859,5.105-3.689,5.651-5.273C292.904,250.58,293.311,251.574,293.273,252.654z"/>
				<path style="opacity:0.4;fill:#FEBFA3;" d="M289.043,250.57c-0.038,1.065-0.928,1.894-1.992,1.856
					c-0.568-0.02-1.072-0.283-1.421-0.682c0.269-1.349,1.239-2.436,2.51-2.88C288.704,249.215,289.068,249.86,289.043,250.57z"/>
			</g>
			<g>
				<path style="fill:#342873;" d="M294.136,259.873c-0.075,2.129-1.863,3.796-3.993,3.72c-1.081-0.038-2.043-0.514-2.712-1.249
					c-0.661-0.726-1.054-1.688-1.016-2.745c0.008-0.221,0.031-0.433,0.078-0.637c0.269-1.349,1.239-2.436,2.51-2.88
					c0.44-0.15,0.916-0.228,1.413-0.211c1.057,0.037,1.988,0.497,2.666,1.2C293.767,257.799,294.175,258.792,294.136,259.873z"/>
				<path style="opacity:0.7;fill:#3A2A2A;" d="M294.136,259.873c-0.075,2.129-1.863,3.796-3.993,3.72
					c-1.081-0.038-2.043-0.514-2.712-1.249c3.631-0.859,5.105-3.689,5.651-5.273C293.767,257.799,294.175,258.792,294.136,259.873z"
					/>
				<path style="opacity:0.4;fill:#FEBFA3;" d="M289.906,257.789c-0.038,1.065-0.928,1.894-1.992,1.856
					c-0.568-0.02-1.072-0.283-1.421-0.682c0.269-1.349,1.239-2.436,2.51-2.88C289.567,256.434,289.931,257.079,289.906,257.789z"/>
			</g>
			<g>
				<path style="fill:#342873;" d="M295.328,266.89c-0.075,2.129-1.864,3.796-3.993,3.72c-1.081-0.038-2.043-0.514-2.712-1.249
					c-0.661-0.726-1.054-1.688-1.016-2.744c0.008-0.221,0.031-0.433,0.078-0.637c0.269-1.349,1.239-2.436,2.51-2.88
					c0.44-0.15,0.916-0.228,1.413-0.211c1.057,0.037,1.988,0.497,2.666,1.2C294.959,264.816,295.366,265.809,295.328,266.89z"/>
				<path style="opacity:0.7;fill:#3A2A2A;" d="M295.328,266.89c-0.075,2.129-1.864,3.796-3.993,3.72
					c-1.081-0.038-2.043-0.514-2.712-1.249c3.631-0.859,5.105-3.689,5.651-5.273C294.959,264.816,295.366,265.809,295.328,266.89z"
					/>
				<path style="opacity:0.4;fill:#FEBFA3;" d="M291.098,264.806c-0.038,1.065-0.928,1.894-1.992,1.856
					c-0.568-0.02-1.072-0.283-1.421-0.682c0.269-1.349,1.239-2.436,2.51-2.88C290.759,263.451,291.123,264.096,291.098,264.806z"/>
			</g>
			<g>
				<path style="fill:#342873;" d="M296.17,273.752c-0.075,2.13-1.863,3.796-3.993,3.72c-1.081-0.038-2.043-0.514-2.712-1.249
					c-0.661-0.726-1.054-1.688-1.017-2.744c0.008-0.221,0.031-0.433,0.078-0.637c0.269-1.349,1.239-2.436,2.51-2.88
					c0.44-0.15,0.916-0.228,1.413-0.211c1.057,0.037,1.988,0.497,2.666,1.2C295.801,271.678,296.208,272.672,296.17,273.752z"/>
				<path style="opacity:0.7;fill:#3A2A2A;" d="M296.17,273.752c-0.075,2.13-1.863,3.796-3.993,3.72
					c-1.081-0.038-2.043-0.514-2.712-1.249c3.631-0.859,5.105-3.689,5.651-5.273C295.801,271.678,296.208,272.672,296.17,273.752z"
					/>
				<path style="opacity:0.4;fill:#FEBFA3;" d="M291.94,271.668c-0.038,1.065-0.928,1.894-1.992,1.856
					c-0.568-0.02-1.072-0.283-1.421-0.682c0.269-1.349,1.239-2.436,2.51-2.88C291.601,270.314,291.965,270.958,291.94,271.668z"/>
			</g>
			<g>
				<path style="fill:#342873;" d="M297.028,280.896c-0.075,2.13-1.863,3.796-3.993,3.72c-1.08-0.038-2.043-0.514-2.712-1.249
					c-0.661-0.726-1.054-1.688-1.017-2.744c0.008-0.221,0.031-0.433,0.078-0.637c0.269-1.349,1.239-2.436,2.51-2.88
					c0.44-0.15,0.916-0.228,1.413-0.211c1.057,0.037,1.988,0.497,2.666,1.2C296.659,278.822,297.066,279.816,297.028,280.896z"/>
				<path style="opacity:0.7;fill:#3A2A2A;" d="M297.028,280.896c-0.075,2.13-1.863,3.796-3.993,3.72
					c-1.08-0.038-2.043-0.514-2.712-1.249c3.631-0.859,5.105-3.689,5.651-5.273C296.659,278.822,297.066,279.816,297.028,280.896z"
					/>
				<path style="opacity:0.4;fill:#FEBFA3;" d="M292.798,278.812c-0.038,1.065-0.928,1.894-1.992,1.856
					c-0.568-0.02-1.072-0.283-1.421-0.682c0.269-1.349,1.239-2.436,2.51-2.88C292.459,277.457,292.823,278.102,292.798,278.812z"/>
			</g>
			<g>
				<path style="fill:#342873;" d="M297.018,288.091c-0.075,2.13-1.863,3.796-3.993,3.72c-1.081-0.038-2.043-0.514-2.712-1.249
					c-0.661-0.726-1.054-1.688-1.016-2.744c0.008-0.221,0.031-0.433,0.078-0.637c0.269-1.349,1.239-2.436,2.51-2.88
					c0.44-0.15,0.916-0.228,1.413-0.211c1.057,0.037,1.988,0.497,2.666,1.2C296.65,286.017,297.057,287.011,297.018,288.091z"/>
				<path style="opacity:0.7;fill:#3A2A2A;" d="M297.018,288.091c-0.075,2.13-1.863,3.796-3.993,3.72
					c-1.081-0.038-2.043-0.514-2.712-1.249c3.631-0.859,5.105-3.689,5.651-5.273C296.65,286.017,297.057,287.011,297.018,288.091z"
					/>
				<path style="opacity:0.4;fill:#FEBFA3;" d="M292.788,286.007c-0.038,1.065-0.928,1.894-1.992,1.856
					c-0.568-0.02-1.072-0.283-1.421-0.682c0.269-1.349,1.239-2.436,2.51-2.88C292.449,284.653,292.814,285.297,292.788,286.007z"/>
			</g>
			<g>
				<path style="fill:#342873;" d="M297.426,294.979c-0.075,2.129-1.863,3.796-3.993,3.72c-1.081-0.038-2.043-0.514-2.712-1.249
					c-0.661-0.726-1.054-1.688-1.016-2.745c0.008-0.221,0.031-0.433,0.078-0.637c0.269-1.349,1.239-2.436,2.51-2.88
					c0.44-0.15,0.916-0.228,1.413-0.211c1.057,0.037,1.988,0.497,2.666,1.2C297.057,292.905,297.464,293.899,297.426,294.979z"/>
				<path style="opacity:0.7;fill:#3A2A2A;" d="M297.426,294.979c-0.075,2.129-1.863,3.796-3.993,3.72
					c-1.081-0.038-2.043-0.514-2.712-1.249c3.631-0.859,5.105-3.689,5.651-5.273C297.057,292.905,297.464,293.899,297.426,294.979z"
					/>
				<path style="opacity:0.4;fill:#FEBFA3;" d="M293.196,292.895c-0.038,1.065-0.928,1.894-1.992,1.856
					c-0.568-0.02-1.072-0.283-1.421-0.682c0.269-1.349,1.239-2.436,2.51-2.88C292.857,291.541,293.221,292.185,293.196,292.895z"/>
			</g>
			<g>
				<path style="fill:#342873;" d="M297.834,301.868c-0.075,2.129-1.863,3.796-3.993,3.72c-1.081-0.038-2.043-0.514-2.712-1.249
					c-0.661-0.726-1.054-1.688-1.017-2.744c0.008-0.221,0.031-0.433,0.078-0.637c0.269-1.349,1.239-2.436,2.51-2.88
					c0.44-0.15,0.916-0.228,1.413-0.211c1.057,0.037,1.988,0.497,2.666,1.2C297.465,299.794,297.872,300.787,297.834,301.868z"/>
				<path style="opacity:0.7;fill:#3A2A2A;" d="M297.834,301.868c-0.075,2.129-1.863,3.796-3.993,3.72
					c-1.081-0.038-2.043-0.514-2.712-1.249c3.631-0.859,5.105-3.689,5.651-5.273C297.465,299.794,297.872,300.787,297.834,301.868z"
					/>
				<path style="opacity:0.4;fill:#FEBFA3;" d="M293.604,299.784c-0.038,1.065-0.928,1.894-1.992,1.856
					c-0.568-0.02-1.072-0.283-1.421-0.682c0.269-1.349,1.239-2.436,2.51-2.88C293.265,298.429,293.629,299.074,293.604,299.784z"/>
			</g>
			<g>
				<path style="fill:#342873;" d="M298.242,308.756c-0.075,2.129-1.863,3.796-3.993,3.72c-1.08-0.038-2.043-0.514-2.712-1.249
					c-0.661-0.726-1.054-1.688-1.016-2.744c0.008-0.221,0.031-0.433,0.078-0.637c0.269-1.349,1.239-2.436,2.51-2.88
					c0.44-0.15,0.916-0.228,1.413-0.211c1.057,0.037,1.988,0.497,2.666,1.2C297.873,306.682,298.28,307.676,298.242,308.756z"/>
				<path style="opacity:0.7;fill:#3A2A2A;" d="M298.242,308.756c-0.075,2.129-1.863,3.796-3.993,3.72
					c-1.08-0.038-2.043-0.514-2.712-1.249c3.631-0.859,5.105-3.689,5.651-5.273C297.873,306.682,298.28,307.676,298.242,308.756z"/>
				<path style="opacity:0.4;fill:#FEBFA3;" d="M294.012,306.672c-0.038,1.065-0.928,1.894-1.992,1.856
					c-0.568-0.02-1.072-0.283-1.421-0.682c0.269-1.349,1.239-2.436,2.51-2.88C293.673,305.318,294.037,305.962,294.012,306.672z"/>
			</g>
			<g>
				<path style="fill:#342873;" d="M298.65,315.645c-0.075,2.129-1.864,3.796-3.993,3.72c-1.081-0.038-2.043-0.514-2.712-1.249
					c-0.661-0.726-1.054-1.688-1.017-2.744c0.008-0.221,0.031-0.433,0.078-0.637c0.269-1.349,1.239-2.436,2.51-2.88
					c0.44-0.15,0.916-0.228,1.413-0.211c1.057,0.037,1.988,0.497,2.666,1.2C298.281,313.57,298.688,314.564,298.65,315.645z"/>
				<path style="opacity:0.7;fill:#3A2A2A;" d="M298.65,315.645c-0.075,2.129-1.864,3.796-3.993,3.72
					c-1.081-0.038-2.043-0.514-2.712-1.249c3.631-0.859,5.105-3.689,5.651-5.273C298.281,313.57,298.688,314.564,298.65,315.645z"/>
				<path style="opacity:0.4;fill:#FEBFA3;" d="M294.42,313.56c-0.038,1.065-0.928,1.894-1.992,1.856
					c-0.568-0.02-1.072-0.283-1.421-0.682c0.269-1.349,1.239-2.436,2.51-2.88C294.081,312.206,294.445,312.85,294.42,313.56z"/>
			</g>
			<g>
				<path style="fill:#342873;" d="M299.057,322.533c-0.075,2.129-1.863,3.796-3.993,3.72c-1.08-0.038-2.043-0.514-2.712-1.249
					c-0.661-0.726-1.054-1.688-1.016-2.744c0.008-0.221,0.031-0.433,0.078-0.637c0.269-1.349,1.239-2.436,2.51-2.88
					c0.44-0.15,0.916-0.228,1.413-0.211c1.057,0.037,1.988,0.497,2.666,1.2C298.688,320.459,299.096,321.452,299.057,322.533z"/>
				<path style="opacity:0.7;fill:#3A2A2A;" d="M299.057,322.533c-0.075,2.129-1.863,3.796-3.993,3.72
					c-1.08-0.038-2.043-0.514-2.712-1.249c3.631-0.859,5.105-3.689,5.651-5.273C298.688,320.459,299.096,321.452,299.057,322.533z"
					/>
				<path style="opacity:0.4;fill:#FEBFA3;" d="M294.827,320.449c-0.038,1.065-0.928,1.894-1.992,1.856
					c-0.568-0.02-1.072-0.283-1.421-0.682c0.269-1.349,1.239-2.436,2.51-2.88C294.488,319.094,294.852,319.739,294.827,320.449z"/>
			</g>
			<g>
				<path style="fill:#342873;" d="M299.465,329.421c-0.075,2.129-1.863,3.796-3.993,3.72c-1.081-0.038-2.043-0.514-2.712-1.249
					c-0.661-0.726-1.054-1.688-1.016-2.744c0.008-0.221,0.031-0.433,0.078-0.637c0.269-1.349,1.239-2.436,2.51-2.88
					c0.44-0.15,0.916-0.228,1.413-0.211c1.057,0.037,1.988,0.497,2.666,1.2C299.096,327.347,299.503,328.341,299.465,329.421z"/>
				<path style="opacity:0.7;fill:#3A2A2A;" d="M299.465,329.421c-0.075,2.129-1.863,3.796-3.993,3.72
					c-1.081-0.038-2.043-0.514-2.712-1.249c3.631-0.859,5.105-3.689,5.651-5.273C299.096,327.347,299.503,328.341,299.465,329.421z"
					/>
				<path style="opacity:0.4;fill:#FEBFA3;" d="M295.235,327.337c-0.038,1.065-0.928,1.894-1.992,1.856
					c-0.568-0.02-1.072-0.283-1.421-0.682c0.269-1.349,1.239-2.436,2.51-2.88C294.896,325.983,295.26,326.627,295.235,327.337z"/>
			</g>
			<g>
				<path style="fill:#342873;" d="M299.873,336.31c-0.075,2.129-1.863,3.796-3.993,3.72c-1.081-0.038-2.043-0.514-2.712-1.249
					c-0.661-0.726-1.054-1.688-1.016-2.745c0.008-0.221,0.031-0.433,0.078-0.637c0.269-1.349,1.239-2.436,2.51-2.88
					c0.44-0.15,0.916-0.228,1.413-0.211c1.057,0.037,1.988,0.497,2.666,1.2C299.504,334.236,299.911,335.229,299.873,336.31z"/>
				<path style="opacity:0.7;fill:#3A2A2A;" d="M299.873,336.31c-0.075,2.129-1.863,3.796-3.993,3.72
					c-1.081-0.038-2.043-0.514-2.712-1.249c3.631-0.859,5.105-3.689,5.651-5.273C299.504,334.236,299.911,335.229,299.873,336.31z"
					/>
				<path style="opacity:0.4;fill:#FEBFA3;" d="M295.643,334.225c-0.038,1.065-0.928,1.894-1.992,1.856
					c-0.568-0.02-1.072-0.283-1.421-0.682c0.269-1.349,1.239-2.436,2.51-2.88C295.304,332.871,295.668,333.516,295.643,334.225z"/>
			</g>
			<g>
				<path style="fill:#342873;" d="M300.281,343.198c-0.075,2.129-1.863,3.796-3.993,3.72c-1.08-0.038-2.043-0.514-2.712-1.249
					c-0.661-0.726-1.054-1.688-1.017-2.744c0.008-0.221,0.031-0.433,0.078-0.637c0.269-1.349,1.239-2.436,2.51-2.88
					c0.44-0.15,0.916-0.228,1.413-0.211c1.057,0.037,1.988,0.497,2.666,1.2C299.912,341.124,300.319,342.117,300.281,343.198z"/>
				<path style="opacity:0.7;fill:#3A2A2A;" d="M300.281,343.198c-0.075,2.129-1.863,3.796-3.993,3.72
					c-1.08-0.038-2.043-0.514-2.712-1.249c3.631-0.859,5.105-3.689,5.651-5.273C299.912,341.124,300.319,342.117,300.281,343.198z"
					/>
				<path style="opacity:0.4;fill:#FEBFA3;" d="M296.051,341.114c-0.038,1.065-0.928,1.894-1.992,1.856
					c-0.568-0.02-1.072-0.283-1.421-0.682c0.269-1.349,1.239-2.436,2.51-2.88C295.712,339.759,296.076,340.404,296.051,341.114z"/>
			</g>
			<g>
				<path style="fill:#342873;" d="M300.688,350.086c-0.075,2.13-1.863,3.796-3.993,3.72c-1.081-0.038-2.043-0.514-2.712-1.249
					c-0.661-0.726-1.054-1.688-1.016-2.744c0.008-0.221,0.031-0.433,0.078-0.637c0.269-1.349,1.239-2.436,2.51-2.88
					c0.44-0.15,0.916-0.228,1.413-0.211c1.057,0.037,1.988,0.497,2.666,1.2C300.32,348.012,300.727,349.006,300.688,350.086z"/>
				<path style="opacity:0.7;fill:#3A2A2A;" d="M300.688,350.086c-0.075,2.13-1.863,3.796-3.993,3.72
					c-1.081-0.038-2.043-0.514-2.712-1.249c3.631-0.859,5.105-3.689,5.651-5.273C300.32,348.012,300.727,349.006,300.688,350.086z"
					/>
				<path style="opacity:0.4;fill:#FEBFA3;" d="M296.458,348.002c-0.038,1.065-0.928,1.894-1.992,1.856
					c-0.568-0.02-1.072-0.283-1.421-0.682c0.269-1.349,1.239-2.436,2.51-2.88C296.119,346.648,296.484,347.292,296.458,348.002z"/>
			</g>
			<g>
				<path style="fill:#342873;" d="M301.096,356.974c-0.075,2.129-1.863,3.796-3.993,3.72c-1.081-0.038-2.043-0.514-2.712-1.249
					c-0.661-0.726-1.054-1.688-1.016-2.745c0.008-0.221,0.031-0.433,0.078-0.637c0.269-1.349,1.239-2.436,2.51-2.88
					c0.44-0.15,0.916-0.228,1.413-0.211c1.057,0.037,1.988,0.497,2.666,1.2C300.727,354.901,301.134,355.894,301.096,356.974z"/>
				<path style="opacity:0.7;fill:#3A2A2A;" d="M301.096,356.974c-0.075,2.129-1.863,3.796-3.993,3.72
					c-1.081-0.038-2.043-0.514-2.712-1.249c3.631-0.859,5.105-3.689,5.651-5.273C300.727,354.901,301.134,355.894,301.096,356.974z"
					/>
				<path style="opacity:0.4;fill:#FEBFA3;" d="M296.866,354.89c-0.038,1.065-0.928,1.894-1.992,1.856
					c-0.568-0.02-1.072-0.283-1.421-0.682c0.269-1.349,1.239-2.436,2.51-2.88C296.527,353.536,296.891,354.181,296.866,354.89z"/>
			</g>
			<g>
				<path style="fill:#342873;" d="M299.941,363.737c-0.075,2.129-1.864,3.796-3.993,3.72c-1.081-0.038-2.043-0.514-2.712-1.249
					c-0.661-0.726-1.054-1.688-1.016-2.744c0.008-0.221,0.031-0.433,0.078-0.637c0.269-1.349,1.239-2.436,2.51-2.88
					c0.44-0.15,0.916-0.228,1.413-0.211c1.057,0.037,1.988,0.497,2.666,1.2C299.572,361.663,299.979,362.656,299.941,363.737z"/>
				<path style="opacity:0.7;fill:#3A2A2A;" d="M299.941,363.737c-0.075,2.129-1.864,3.796-3.993,3.72
					c-1.081-0.038-2.043-0.514-2.712-1.249c3.631-0.859,5.105-3.689,5.651-5.273C299.572,361.663,299.979,362.656,299.941,363.737z"
					/>
				<path style="opacity:0.4;fill:#FEBFA3;" d="M295.711,361.652c-0.038,1.065-0.928,1.894-1.992,1.856
					c-0.568-0.02-1.072-0.283-1.421-0.682c0.269-1.349,1.239-2.436,2.51-2.88C295.372,360.298,295.736,360.943,295.711,361.652z"/>
			</g>
			<g>
				<path style="fill:#342873;" d="M299.529,371.501c-0.075,2.129-1.863,3.796-3.993,3.72c-1.081-0.038-2.043-0.514-2.712-1.249
					c-0.661-0.726-1.054-1.688-1.017-2.745c0.008-0.221,0.031-0.433,0.078-0.637c0.269-1.349,1.239-2.436,2.51-2.88
					c0.44-0.15,0.916-0.228,1.413-0.211c1.057,0.037,1.988,0.497,2.666,1.2C299.16,369.427,299.567,370.42,299.529,371.501z"/>
				<path style="opacity:0.7;fill:#3A2A2A;" d="M299.529,371.501c-0.075,2.129-1.863,3.796-3.993,3.72
					c-1.081-0.038-2.043-0.514-2.712-1.249c3.631-0.859,5.105-3.689,5.651-5.273C299.16,369.427,299.567,370.42,299.529,371.501z"/>
				<path style="opacity:0.4;fill:#FEBFA3;" d="M295.299,369.417c-0.038,1.065-0.928,1.894-1.992,1.856
					c-0.568-0.02-1.072-0.283-1.421-0.682c0.269-1.349,1.239-2.436,2.51-2.88C294.96,368.062,295.324,368.707,295.299,369.417z"/>
			</g>
			<g>
				<path style="fill:#342873;" d="M299.117,379.265c-0.075,2.129-1.863,3.796-3.993,3.72c-1.08-0.038-2.043-0.514-2.712-1.249
					c-0.661-0.726-1.054-1.688-1.017-2.744c0.008-0.221,0.031-0.433,0.078-0.637c0.269-1.349,1.239-2.436,2.51-2.88
					c0.44-0.15,0.916-0.228,1.413-0.211c1.057,0.037,1.988,0.497,2.666,1.2C298.748,377.191,299.156,378.185,299.117,379.265z"/>
				<path style="opacity:0.7;fill:#3A2A2A;" d="M299.117,379.265c-0.075,2.129-1.863,3.796-3.993,3.72
					c-1.08-0.038-2.043-0.514-2.712-1.249c3.631-0.859,5.105-3.689,5.651-5.273C298.748,377.191,299.156,378.185,299.117,379.265z"
					/>
				<path style="opacity:0.4;fill:#FEBFA3;" d="M294.887,377.181c-0.038,1.065-0.928,1.894-1.992,1.856
					c-0.568-0.02-1.072-0.283-1.421-0.682c0.269-1.349,1.239-2.436,2.51-2.88C294.548,375.827,294.912,376.471,294.887,377.181z"/>
			</g>
			<g>
				<path style="fill:#342873;" d="M298.706,387.029c-0.075,2.129-1.863,3.796-3.993,3.72c-1.08-0.038-2.043-0.514-2.712-1.249
					c-0.661-0.726-1.054-1.688-1.017-2.744c0.008-0.221,0.031-0.433,0.078-0.637c0.269-1.349,1.239-2.436,2.51-2.88
					c0.44-0.15,0.916-0.228,1.413-0.211c1.057,0.037,1.988,0.497,2.666,1.2C298.337,384.955,298.744,385.949,298.706,387.029z"/>
				<path style="opacity:0.7;fill:#3A2A2A;" d="M298.706,387.029c-0.075,2.129-1.863,3.796-3.993,3.72
					c-1.08-0.038-2.043-0.514-2.712-1.249c3.631-0.859,5.105-3.689,5.651-5.273C298.337,384.955,298.744,385.949,298.706,387.029z"
					/>
				<path style="opacity:0.4;fill:#FEBFA3;" d="M294.476,384.945c-0.038,1.065-0.928,1.894-1.992,1.856
					c-0.568-0.02-1.072-0.283-1.421-0.682c0.269-1.349,1.239-2.436,2.51-2.88C294.137,383.591,294.501,384.235,294.476,384.945z"/>
			</g>
			<g>
				<path style="fill:#342873;" d="M298.259,394.198c-0.075,2.129-1.863,3.796-3.993,3.72c-1.081-0.038-2.043-0.514-2.712-1.249
					c-0.661-0.726-1.054-1.688-1.017-2.744c0.008-0.221,0.031-0.433,0.078-0.637c0.269-1.349,1.239-2.436,2.51-2.88
					c0.44-0.15,0.916-0.228,1.413-0.211c1.057,0.037,1.988,0.497,2.666,1.2C297.89,392.125,298.297,393.118,298.259,394.198z"/>
				<path style="opacity:0.7;fill:#3A2A2A;" d="M298.259,394.198c-0.075,2.129-1.863,3.796-3.993,3.72
					c-1.081-0.038-2.043-0.514-2.712-1.249c3.631-0.859,5.105-3.689,5.651-5.273C297.89,392.125,298.297,393.118,298.259,394.198z"
					/>
				<path style="opacity:0.4;fill:#FEBFA3;" d="M294.029,392.114c-0.038,1.065-0.928,1.894-1.992,1.856
					c-0.568-0.02-1.072-0.283-1.421-0.682c0.269-1.349,1.239-2.436,2.51-2.88C293.69,390.76,294.054,391.405,294.029,392.114z"/>
			</g>
			<g>
				<path style="fill:#342873;" d="M295.646,400.718c-0.075,2.13-1.864,3.796-3.993,3.72c-1.081-0.038-2.043-0.514-2.712-1.249
					c-0.661-0.726-1.054-1.688-1.016-2.744c0.008-0.221,0.031-0.433,0.078-0.637c0.269-1.349,1.239-2.436,2.51-2.88
					c0.44-0.15,0.916-0.228,1.413-0.211c1.057,0.037,1.988,0.497,2.666,1.2C295.277,398.644,295.684,399.638,295.646,400.718z"/>
				<path style="opacity:0.7;fill:#3A2A2A;" d="M295.646,400.718c-0.075,2.13-1.864,3.796-3.993,3.72
					c-1.081-0.038-2.043-0.514-2.712-1.249c3.631-0.859,5.105-3.689,5.651-5.273C295.277,398.644,295.684,399.638,295.646,400.718z"
					/>
				<path style="opacity:0.4;fill:#FEBFA3;" d="M291.416,398.634c-0.038,1.065-0.928,1.894-1.992,1.856
					c-0.568-0.02-1.072-0.283-1.421-0.682c0.269-1.349,1.239-2.436,2.51-2.88C291.077,397.28,291.441,397.924,291.416,398.634z"/>
			</g>
			<g>
				<path style="fill:#342873;" d="M292.067,406.595c-0.075,2.129-1.863,3.796-3.993,3.72c-1.08-0.038-2.043-0.514-2.712-1.249
					c-0.661-0.726-1.054-1.688-1.016-2.744c0.008-0.221,0.031-0.433,0.078-0.637c0.269-1.349,1.239-2.436,2.51-2.88
					c0.44-0.15,0.916-0.228,1.413-0.211c1.057,0.037,1.988,0.497,2.666,1.2C291.698,404.521,292.105,405.514,292.067,406.595z"/>
				<path style="opacity:0.7;fill:#3A2A2A;" d="M292.067,406.595c-0.075,2.129-1.863,3.796-3.993,3.72
					c-1.08-0.038-2.043-0.514-2.712-1.249c3.631-0.859,5.105-3.689,5.651-5.273C291.698,404.521,292.105,405.514,292.067,406.595z"
					/>
				<path style="opacity:0.4;fill:#FEBFA3;" d="M287.837,404.511c-0.038,1.065-0.928,1.894-1.992,1.856
					c-0.568-0.02-1.072-0.283-1.421-0.682c0.269-1.349,1.239-2.436,2.51-2.88C287.497,403.156,287.862,403.801,287.837,404.511z"/>
			</g>
			<g>
				<path style="fill:#342873;" d="M287.448,411.426c-0.075,2.129-1.863,3.796-3.993,3.72c-1.081-0.038-2.043-0.514-2.712-1.249
					c-0.661-0.726-1.054-1.688-1.017-2.744c0.008-0.221,0.031-0.433,0.078-0.637c0.269-1.349,1.239-2.436,2.51-2.88
					c0.44-0.15,0.916-0.228,1.413-0.211c1.057,0.037,1.988,0.497,2.666,1.2C287.08,409.352,287.487,410.345,287.448,411.426z"/>
				<path style="opacity:0.7;fill:#3A2A2A;" d="M287.448,411.426c-0.075,2.129-1.863,3.796-3.993,3.72
					c-1.081-0.038-2.043-0.514-2.712-1.249c3.631-0.859,5.105-3.689,5.651-5.273C287.08,409.352,287.487,410.345,287.448,411.426z"
					/>
				<path style="opacity:0.4;fill:#FEBFA3;" d="M283.219,409.342c-0.038,1.065-0.928,1.894-1.992,1.856
					c-0.568-0.02-1.072-0.283-1.421-0.682c0.269-1.349,1.239-2.436,2.51-2.88C282.879,407.987,283.244,408.632,283.219,409.342z"/>
			</g>
			<g>
				<path style="fill:#342873;" d="M280.726,413.896c-0.075,2.129-1.864,3.796-3.993,3.72c-1.081-0.038-2.043-0.514-2.712-1.249
					c-0.661-0.726-1.054-1.688-1.016-2.745c0.008-0.221,0.031-0.433,0.078-0.637c0.269-1.349,1.239-2.436,2.51-2.881
					c0.44-0.15,0.916-0.228,1.413-0.211c1.057,0.037,1.988,0.497,2.666,1.2C280.357,411.822,280.764,412.816,280.726,413.896z"/>
				<path style="opacity:0.7;fill:#3A2A2A;" d="M280.726,413.896c-0.075,2.129-1.864,3.796-3.993,3.72
					c-1.081-0.038-2.043-0.514-2.712-1.249c3.631-0.859,5.105-3.689,5.651-5.273C280.357,411.822,280.764,412.816,280.726,413.896z"
					/>
				<path style="opacity:0.4;fill:#FEBFA3;" d="M276.496,411.812c-0.038,1.065-0.928,1.894-1.992,1.856
					c-0.568-0.02-1.072-0.283-1.421-0.682c0.269-1.349,1.239-2.436,2.51-2.881C276.157,410.458,276.521,411.102,276.496,411.812z"/>
			</g>
			<g>
				<path style="fill:#342873;" d="M273.727,412.926c-0.075,2.13-1.863,3.796-3.993,3.72c-1.081-0.038-2.043-0.514-2.712-1.249
					c-0.661-0.726-1.054-1.688-1.016-2.744c0.008-0.221,0.031-0.433,0.078-0.637c0.269-1.349,1.239-2.436,2.51-2.88
					c0.44-0.15,0.916-0.228,1.413-0.211c1.057,0.037,1.988,0.497,2.666,1.2C273.358,410.852,273.765,411.845,273.727,412.926z"/>
				<path style="opacity:0.7;fill:#3A2A2A;" d="M273.727,412.926c-0.075,2.13-1.863,3.796-3.993,3.72
					c-1.081-0.038-2.043-0.514-2.712-1.249c3.631-0.859,5.105-3.689,5.651-5.273C273.358,410.852,273.765,411.845,273.727,412.926z"
					/>
				<path style="opacity:0.4;fill:#FEBFA3;" d="M269.497,410.841c-0.038,1.065-0.928,1.894-1.992,1.856
					c-0.568-0.02-1.072-0.283-1.421-0.682c0.269-1.349,1.239-2.436,2.51-2.88C269.158,409.487,269.522,410.132,269.497,410.841z"/>
			</g>
			<g>
				<path style="fill:#342873;" d="M266.766,411.366c-0.075,2.129-1.864,3.796-3.993,3.72c-1.081-0.038-2.043-0.514-2.712-1.249
					c-0.661-0.726-1.054-1.688-1.017-2.744c0.008-0.221,0.031-0.433,0.078-0.637c0.269-1.349,1.239-2.436,2.51-2.88
					c0.44-0.15,0.916-0.228,1.413-0.211c1.057,0.037,1.988,0.497,2.666,1.2C266.397,409.292,266.804,410.285,266.766,411.366z"/>
				<path style="opacity:0.7;fill:#3A2A2A;" d="M266.766,411.366c-0.075,2.129-1.864,3.796-3.993,3.72
					c-1.081-0.038-2.043-0.514-2.712-1.249c3.631-0.859,5.105-3.689,5.651-5.273C266.397,409.292,266.804,410.285,266.766,411.366z"
					/>
				<path style="opacity:0.4;fill:#FEBFA3;" d="M262.536,409.281c-0.038,1.065-0.928,1.894-1.992,1.856
					c-0.568-0.02-1.072-0.283-1.421-0.682c0.269-1.349,1.239-2.436,2.51-2.88C262.197,407.927,262.561,408.572,262.536,409.281z"/>
			</g>
			<g>
				<path style="fill:#342873;" d="M260.706,407.999c-0.075,2.129-1.863,3.796-3.993,3.72c-1.08-0.038-2.043-0.514-2.712-1.249
					c-0.661-0.726-1.054-1.688-1.017-2.744c0.008-0.221,0.031-0.433,0.078-0.637c0.269-1.349,1.239-2.436,2.51-2.88
					c0.44-0.15,0.916-0.228,1.413-0.211c1.057,0.037,1.988,0.497,2.666,1.2C260.337,405.925,260.744,406.918,260.706,407.999z"/>
				<path style="opacity:0.7;fill:#3A2A2A;" d="M260.706,407.999c-0.075,2.129-1.863,3.796-3.993,3.72
					c-1.08-0.038-2.043-0.514-2.712-1.249c3.631-0.859,5.105-3.689,5.651-5.273C260.337,405.925,260.744,406.918,260.706,407.999z"
					/>
				<path style="opacity:0.4;fill:#FEBFA3;" d="M256.476,405.915c-0.038,1.065-0.928,1.894-1.992,1.856
					c-0.568-0.02-1.072-0.283-1.421-0.682c0.269-1.349,1.239-2.436,2.51-2.88C256.137,404.56,256.501,405.205,256.476,405.915z"/>
			</g>
			<g>
				<path style="fill:#342873;" d="M254.636,404.488c-0.075,2.129-1.863,3.796-3.993,3.72c-1.08-0.038-2.043-0.514-2.712-1.249
					c-0.661-0.726-1.054-1.688-1.016-2.745c0.008-0.221,0.031-0.433,0.078-0.637c0.269-1.349,1.239-2.436,2.51-2.88
					c0.44-0.15,0.916-0.228,1.413-0.211c1.057,0.037,1.988,0.497,2.666,1.2C254.268,402.414,254.675,403.408,254.636,404.488z"/>
				<path style="opacity:0.7;fill:#3A2A2A;" d="M254.636,404.488c-0.075,2.129-1.863,3.796-3.993,3.72
					c-1.08-0.038-2.043-0.514-2.712-1.249c3.631-0.859,5.105-3.689,5.651-5.273C254.268,402.414,254.675,403.408,254.636,404.488z"
					/>
				<path style="opacity:0.4;fill:#FEBFA3;" d="M250.407,402.404c-0.038,1.065-0.928,1.894-1.992,1.856
					c-0.568-0.02-1.072-0.283-1.421-0.682c0.269-1.349,1.239-2.436,2.51-2.88C250.067,401.05,250.432,401.694,250.407,402.404z"/>
			</g>
			<g>
				<path style="fill:#342873;" d="M249.162,400.942c-0.075,2.13-1.863,3.796-3.993,3.72c-1.081-0.038-2.043-0.514-2.712-1.249
					c-0.661-0.726-1.054-1.688-1.016-2.744c0.008-0.221,0.031-0.433,0.078-0.637c0.269-1.349,1.239-2.436,2.51-2.88
					c0.44-0.15,0.916-0.228,1.413-0.211c1.057,0.037,1.988,0.497,2.666,1.2C248.793,398.868,249.2,399.862,249.162,400.942z"/>
				<path style="opacity:0.7;fill:#3A2A2A;" d="M249.162,400.942c-0.075,2.13-1.863,3.796-3.993,3.72
					c-1.081-0.038-2.043-0.514-2.712-1.249c3.631-0.859,5.105-3.689,5.651-5.273C248.793,398.868,249.2,399.862,249.162,400.942z"/>
				<path style="opacity:0.4;fill:#FEBFA3;" d="M244.932,398.858c-0.038,1.065-0.928,1.894-1.992,1.856
					c-0.568-0.02-1.072-0.283-1.421-0.682c0.269-1.349,1.239-2.436,2.51-2.88C244.593,397.504,244.957,398.148,244.932,398.858z"/>
			</g>
			<g>
				<path style="fill:#342873;" d="M245.095,395.374c-0.075,2.129-1.864,3.796-3.993,3.72c-1.08-0.038-2.043-0.514-2.712-1.249
					c-0.661-0.726-1.054-1.688-1.016-2.744c0.008-0.221,0.031-0.433,0.078-0.637c0.269-1.349,1.239-2.436,2.51-2.88
					c0.44-0.15,0.916-0.228,1.413-0.211c1.057,0.037,1.988,0.497,2.666,1.2C244.726,393.299,245.133,394.293,245.095,395.374z"/>
				<path style="opacity:0.7;fill:#3A2A2A;" d="M245.095,395.374c-0.075,2.129-1.864,3.796-3.993,3.72
					c-1.08-0.038-2.043-0.514-2.712-1.249c3.631-0.859,5.105-3.689,5.651-5.273C244.726,393.299,245.133,394.293,245.095,395.374z"
					/>
				<path style="opacity:0.4;fill:#FEBFA3;" d="M240.865,393.289c-0.038,1.065-0.928,1.894-1.992,1.856
					c-0.568-0.02-1.072-0.283-1.421-0.682c0.269-1.349,1.239-2.436,2.51-2.88C240.526,391.935,240.89,392.58,240.865,393.289z"/>
			</g>
			<g>
				<path style="fill:#342873;" d="M240.995,389.251c-0.075,2.129-1.863,3.796-3.993,3.72c-1.08-0.038-2.043-0.514-2.712-1.249
					c-0.661-0.726-1.054-1.688-1.016-2.745c0.008-0.221,0.031-0.433,0.078-0.637c0.269-1.349,1.239-2.436,2.51-2.88
					c0.44-0.15,0.916-0.228,1.413-0.211c1.057,0.037,1.988,0.497,2.666,1.2C240.627,387.177,241.034,388.171,240.995,389.251z"/>
				<path style="opacity:0.7;fill:#3A2A2A;" d="M240.995,389.251c-0.075,2.129-1.863,3.796-3.993,3.72
					c-1.08-0.038-2.043-0.514-2.712-1.249c3.631-0.859,5.105-3.689,5.651-5.273C240.627,387.177,241.034,388.171,240.995,389.251z"
					/>
				<path style="opacity:0.4;fill:#FEBFA3;" d="M236.765,387.167c-0.038,1.065-0.928,1.894-1.992,1.856
					c-0.568-0.02-1.072-0.283-1.421-0.682c0.269-1.349,1.239-2.436,2.51-2.88C236.426,385.813,236.791,386.457,236.765,387.167z"/>
			</g>
			<g>
				<path style="fill:#342873;" d="M236.885,382.949c-0.075,2.129-1.863,3.796-3.993,3.72c-1.08-0.038-2.043-0.514-2.712-1.249
					c-0.661-0.726-1.054-1.688-1.016-2.744c0.008-0.221,0.031-0.433,0.078-0.637c0.269-1.349,1.239-2.436,2.51-2.88
					c0.44-0.15,0.916-0.228,1.413-0.211c1.057,0.037,1.988,0.497,2.666,1.2C236.516,380.875,236.923,381.869,236.885,382.949z"/>
				<path style="opacity:0.7;fill:#3A2A2A;" d="M236.885,382.949c-0.075,2.129-1.863,3.796-3.993,3.72
					c-1.08-0.038-2.043-0.514-2.712-1.249c3.631-0.859,5.105-3.689,5.651-5.273C236.516,380.875,236.923,381.869,236.885,382.949z"
					/>
				<path style="opacity:0.4;fill:#FEBFA3;" d="M232.655,380.865c-0.038,1.065-0.928,1.894-1.992,1.856
					c-0.568-0.02-1.072-0.283-1.421-0.682c0.269-1.349,1.239-2.436,2.51-2.88C232.316,379.51,232.68,380.155,232.655,380.865z"/>
			</g>
			<g>
				<path style="fill:#342873;" d="M234.485,376.039c-0.075,2.129-1.863,3.796-3.993,3.72c-1.08-0.038-2.043-0.514-2.712-1.249
					c-0.661-0.726-1.054-1.688-1.017-2.744c0.008-0.221,0.031-0.433,0.078-0.637c0.269-1.349,1.239-2.436,2.51-2.88
					c0.44-0.15,0.916-0.228,1.413-0.211c1.057,0.037,1.988,0.497,2.666,1.2C234.116,373.965,234.523,374.958,234.485,376.039z"/>
				<path style="opacity:0.7;fill:#3A2A2A;" d="M234.485,376.039c-0.075,2.129-1.863,3.796-3.993,3.72
					c-1.08-0.038-2.043-0.514-2.712-1.249c3.631-0.859,5.105-3.689,5.651-5.273C234.116,373.965,234.523,374.958,234.485,376.039z"
					/>
				<path style="opacity:0.4;fill:#FEBFA3;" d="M230.255,373.955c-0.038,1.065-0.928,1.894-1.992,1.856
					c-0.568-0.02-1.072-0.283-1.421-0.682c0.269-1.349,1.239-2.436,2.51-2.88C229.916,372.6,230.28,373.245,230.255,373.955z"/>
			</g>
			<g>
				<path style="fill:#342873;" d="M233.065,369.07c-0.075,2.129-1.863,3.796-3.993,3.72c-1.08-0.038-2.043-0.514-2.712-1.249
					c-0.661-0.726-1.054-1.688-1.016-2.745c0.008-0.221,0.031-0.433,0.078-0.637c0.269-1.349,1.239-2.436,2.51-2.88
					c0.44-0.15,0.916-0.228,1.413-0.211c1.057,0.037,1.988,0.497,2.666,1.2C232.696,366.996,233.103,367.99,233.065,369.07z"/>
				<path style="opacity:0.7;fill:#3A2A2A;" d="M233.065,369.07c-0.075,2.129-1.863,3.796-3.993,3.72
					c-1.08-0.038-2.043-0.514-2.712-1.249c3.631-0.859,5.105-3.689,5.651-5.273C232.696,366.996,233.103,367.99,233.065,369.07z"/>
				<path style="opacity:0.4;fill:#FEBFA3;" d="M228.835,366.986c-0.038,1.065-0.928,1.894-1.992,1.856
					c-0.568-0.02-1.072-0.283-1.421-0.682c0.269-1.349,1.239-2.436,2.51-2.88C228.496,365.632,228.86,366.276,228.835,366.986z"/>
			</g>
			<g>
				<path style="fill:#342873;" d="M231.649,361.773c-0.075,2.129-1.863,3.796-3.993,3.72c-1.08-0.038-2.043-0.514-2.712-1.249
					c-0.661-0.726-1.054-1.688-1.016-2.744c0.008-0.221,0.031-0.433,0.078-0.637c0.269-1.349,1.239-2.436,2.51-2.88
					c0.44-0.15,0.916-0.228,1.413-0.211c1.057,0.037,1.988,0.497,2.666,1.2C231.28,359.699,231.687,360.693,231.649,361.773z"/>
				<path style="opacity:0.7;fill:#3A2A2A;" d="M231.649,361.773c-0.075,2.129-1.863,3.796-3.993,3.72
					c-1.08-0.038-2.043-0.514-2.712-1.249c3.631-0.859,5.105-3.689,5.651-5.273C231.28,359.699,231.687,360.693,231.649,361.773z"/>
				<path style="opacity:0.4;fill:#FEBFA3;" d="M227.419,359.689c-0.038,1.065-0.928,1.894-1.992,1.856
					c-0.568-0.02-1.072-0.283-1.421-0.682c0.269-1.349,1.239-2.436,2.51-2.88C227.08,358.335,227.444,358.979,227.419,359.689z"/>
			</g>
			<g>
				<path style="fill:#342873;" d="M230.238,354.944c-0.075,2.129-1.863,3.796-3.993,3.72c-1.081-0.038-2.043-0.514-2.712-1.249
					c-0.661-0.726-1.054-1.688-1.017-2.744c0.008-0.221,0.031-0.433,0.078-0.637c0.269-1.349,1.239-2.436,2.51-2.88
					c0.44-0.15,0.916-0.228,1.413-0.211c1.057,0.037,1.988,0.497,2.666,1.2C229.869,352.87,230.276,353.864,230.238,354.944z"/>
				<path style="opacity:0.7;fill:#3A2A2A;" d="M230.238,354.944c-0.075,2.129-1.863,3.796-3.993,3.72
					c-1.081-0.038-2.043-0.514-2.712-1.249c3.631-0.859,5.105-3.689,5.651-5.273C229.869,352.87,230.276,353.864,230.238,354.944z"
					/>
				<path style="opacity:0.4;fill:#FEBFA3;" d="M226.008,352.86c-0.038,1.065-0.928,1.894-1.992,1.856
					c-0.568-0.02-1.072-0.283-1.421-0.682c0.269-1.349,1.239-2.436,2.51-2.88C225.669,351.506,226.033,352.15,226.008,352.86z"/>
			</g>
			<g>
				<path style="fill:#342873;" d="M230.264,348.03c-0.075,2.129-1.864,3.796-3.993,3.72c-1.08-0.038-2.043-0.514-2.712-1.249
					c-0.661-0.726-1.054-1.688-1.017-2.744c0.008-0.221,0.031-0.433,0.078-0.637c0.269-1.349,1.239-2.436,2.51-2.88
					c0.44-0.15,0.916-0.228,1.413-0.211c1.057,0.037,1.988,0.497,2.666,1.2C229.895,345.956,230.302,346.95,230.264,348.03z"/>
				<path style="opacity:0.7;fill:#3A2A2A;" d="M230.264,348.03c-0.075,2.129-1.864,3.796-3.993,3.72
					c-1.08-0.038-2.043-0.514-2.712-1.249c3.631-0.859,5.105-3.689,5.651-5.273C229.895,345.956,230.302,346.95,230.264,348.03z"/>
				<path style="opacity:0.4;fill:#FEBFA3;" d="M226.034,345.946c-0.038,1.065-0.928,1.894-1.992,1.856
					c-0.568-0.02-1.072-0.283-1.421-0.682c0.269-1.349,1.239-2.436,2.51-2.88C225.695,344.592,226.059,345.236,226.034,345.946z"/>
			</g>
			<g>
				<path style="fill:#342873;" d="M199.495,274.732l-1.01-17.06l-12.903,0.764l1.01,17.06l-19.692,1.166l0.764,12.903l19.692-1.166
					l2.07,34.96l12.903-0.764l-2.07-34.96l19.705-1.167l-0.764-12.903L199.495,274.732z M193.034,264.513
					c-0.966,0.057-1.788-0.685-1.845-1.651c-0.056-0.954,0.672-1.788,1.639-1.845c0.966-0.057,1.801,0.684,1.857,1.638
					C194.742,263.621,194,264.456,193.034,264.513z"/>
				<g style="opacity:0.7;">
					<path style="fill:#3A2A2A;" d="M219.199,273.565l0.371,6.267c-5.633-4.642-21.957-2.4-21.957-2.4s-0.478-3.977-0.686-11.594
						c-0.133-4.61-0.944-6.897-1.57-7.982l3.127-0.185l1.01,17.06L219.199,273.565z"/>
				</g>
				<path style="opacity:0.7;fill:#3A2A2A;" d="M200.258,287.635l2.07,34.96l-12.903,0.764l-0.178-3
					c11.164-1.694,9.27-32.62,9.27-32.62L200.258,287.635z"/>
				<polygon style="opacity:0.4;fill:#FEBFA3;" points="188.167,276.895 166.899,276.661 186.591,275.495 185.581,258.435 				"/>
			</g>
			<path style="fill:#FEBFA3;" d="M229.443,191.108c0,0-12.549,1.422-16.09,5.117c-2.816,2.939-4.026-6.986,14.206-8.571
				C228.78,189.628,229.443,191.108,229.443,191.108z"/>
			<path style="fill:#FEBFA3;" d="M268.529,224.674c-1.775-2.978-6.701-5.93-6.701-5.93s0.406-1.312,1.24-3.156
				C269.482,219.59,268.529,224.674,268.529,224.674z"/>
			<path style="opacity:0.3;fill:#92332F;" d="M236.143,216.397c1.114,1.159,1.867,2.549,2.474,3.992
				c0.58,1.455,0.985,2.995,1.117,4.588c0.127,1.59,0.012,3.231-0.454,4.795c-0.509,1.551-1.376,3.013-2.64,3.993
				c0.342-1.575,0.554-2.957,0.629-4.362c0.048-1.407-0.02-2.794-0.126-4.202C236.907,222.371,236.391,219.549,236.143,216.397z"/>
			<path style="opacity:0.3;fill:#92332F;" d="M244.318,284.287c1.114,1.159,1.867,2.549,2.474,3.992
				c0.58,1.455,0.985,2.995,1.117,4.588c0.127,1.59,0.012,3.231-0.454,4.795c-0.509,1.551-1.376,3.014-2.641,3.992
				c0.342-1.575,0.554-2.957,0.629-4.362c0.048-1.407-0.02-2.793-0.126-4.202C245.082,290.261,244.566,287.439,244.318,284.287z"/>
			<path style="opacity:0.3;fill:#92332F;" d="M248.985,249.029c1.1,1.826,1.665,3.846,2.025,5.891
				c0.322,2.052,0.393,4.163,0.095,6.263c-0.304,2.094-0.935,4.182-1.997,6.068c-1.114,1.856-2.666,3.493-4.589,4.387
				c0.906-1.936,1.587-3.661,2.096-5.457c0.476-1.805,0.796-3.619,1.073-5.471C248.215,256.98,248.378,253.179,248.985,249.029z"/>
			<path style="opacity:0.3;fill:#92332F;" d="M265.318,310.87c-1.23,1.742-1.94,3.715-2.448,5.728
				c-0.47,2.023-0.695,4.124-0.549,6.239c0.151,2.111,0.629,4.239,1.551,6.197c0.976,1.932,2.405,3.677,4.259,4.709
				c-0.762-1.997-1.317-3.767-1.694-5.595c-0.343-1.835-0.531-3.667-0.673-5.535C265.508,318.855,265.622,315.052,265.318,310.87z"
				/>
			<path style="opacity:0.3;fill:#92332F;" d="M242.605,216.96c0.816,0.494,1.337,1.19,1.753,1.931
				c0.395,0.751,0.654,1.574,0.727,2.44c0.071,0.864-0.033,1.772-0.374,2.616c-0.368,0.835-0.973,1.609-1.849,1.97
				c-0.047-0.956-0.096-1.649-0.163-2.339c-0.077-0.688-0.156-1.341-0.205-2.023C242.393,220.176,242.272,218.777,242.605,216.96z"
				/>
			<path style="opacity:0.3;fill:#92332F;" d="M236.822,320.939c0.816,0.494,1.337,1.19,1.753,1.931
				c0.395,0.751,0.654,1.574,0.727,2.44c0.071,0.864-0.033,1.772-0.374,2.616c-0.368,0.835-0.973,1.609-1.849,1.97
				c-0.047-0.957-0.096-1.65-0.163-2.339c-0.076-0.688-0.156-1.341-0.205-2.023C236.61,324.155,236.489,322.756,236.822,320.939z"/>
			<path style="opacity:0.3;fill:#92332F;" d="M263.43,348.709c-0.817,0.491-1.34,1.186-1.758,1.926
				c-0.397,0.749-0.658,1.572-0.733,2.438c-0.073,0.864,0.028,1.772,0.367,2.617c0.365,0.836,0.969,1.612,1.844,1.975
				c0.05-0.957,0.1-1.649,0.169-2.339c0.078-0.687,0.159-1.341,0.211-2.023C263.634,351.926,263.758,350.527,263.43,348.709z"/>
		</g>
	</g>
	<g>
		<g>
			<g>
				<g>
					<g>
						<path style="fill:#FDE6E6;" d="M73.08,129.777l0.682-2.153l0.682,2.153c0.744,2.347,2.365,4.317,4.525,5.498h0l0,0
							c-2.16,1.182-3.781,3.151-4.525,5.498l-0.682,2.152l-0.682-2.152c-0.744-2.347-2.365-4.317-4.525-5.498v0l0,0
							C70.716,134.094,72.337,132.125,73.08,129.777z"/>
					</g>
					<g>
						<path style="fill:#FDE6E6;" d="M446.961,228.397l0.896-2.829l0.896,2.829c0.978,3.085,3.108,5.673,5.947,7.226h0l0,0
							c-2.839,1.553-4.969,4.141-5.947,7.226l-0.896,2.829l-0.896-2.829c-0.977-3.085-3.108-5.673-5.947-7.226v0l0,0
							C443.853,234.071,445.983,231.482,446.961,228.397z"/>
					</g>
					<g>
						<path style="fill:#FDE6E6;" d="M201.825,375.464l1.351-4.263l1.351,4.263c1.473,4.648,4.683,8.549,8.961,10.889h0l0,0
							c-4.278,2.34-7.488,6.241-8.961,10.889l-1.351,4.263l-1.351-4.263c-1.473-4.648-4.683-8.549-8.961-10.889v0l0,0
							C197.142,384.014,200.352,380.113,201.825,375.464z"/>
					</g>
					<g>
						<path style="fill:#FDE6E6;" d="M432.703,261.955l1.467-4.629l1.467,4.63c1.6,5.048,5.086,9.284,9.732,11.826l0,0l0,0
							c-4.646,2.541-8.133,6.777-9.732,11.826l-1.467,4.629l-1.467-4.629c-1.6-5.048-5.086-9.285-9.732-11.826l0,0l0,0
							C427.617,271.24,431.103,267.004,432.703,261.955z"/>
					</g>
					<g>
						<path style="fill:#FDE6E6;" d="M62.389,270.241l0.763-2.409l0.763,2.409c0.833,2.627,2.647,4.832,5.065,6.154l0,0l0,0
							c-2.418,1.322-4.232,3.527-5.065,6.154l-0.763,2.409l-0.764-2.409c-0.832-2.627-2.647-4.832-5.065-6.154l0,0l0,0
							C59.742,275.073,61.556,272.868,62.389,270.241z"/>
					</g>
					<g>
						<path style="fill:#FDE6E6;" d="M95.323,109.753l1.109-3.5l1.109,3.5c1.209,3.817,3.845,7.019,7.358,8.941l0,0l0,0
							c-3.513,1.921-6.149,5.124-7.358,8.941l-1.109,3.5l-1.109-3.5c-1.209-3.817-3.845-7.02-7.358-8.941l0,0l0,0
							C91.478,116.773,94.114,113.57,95.323,109.753z"/>
					</g>
				</g>
			</g>
			<g>
				<g>
					<g>
						
							<ellipse transform="matrix(0.7071 -0.7071 0.7071 0.7071 -232.2758 290.9414)" style="fill:#F28F8F;" cx="235.059" cy="425.852" rx="7.398" ry="7.398"/>
					</g>
					<g>
						<path style="fill:#F28F8F;" d="M265.666,81.526c0,2.292-1.858,4.15-4.15,4.15s-4.15-1.858-4.15-4.15s1.858-4.15,4.15-4.15
							S265.666,79.234,265.666,81.526z"/>
					</g>
					<g>
						<path style="fill:#FDE6E6;" d="M79.823,255.489c0,1.674-1.357,3.03-3.03,3.03s-3.03-1.357-3.03-3.03
							c0-1.673,1.357-3.03,3.03-3.03S79.823,253.816,79.823,255.489z"/>
					</g>
					<g>
						<path style="fill:#FDE6E6;" d="M422.441,177.907c0,1.674-1.357,3.03-3.03,3.03s-3.03-1.357-3.03-3.03
							c0-1.673,1.357-3.03,3.03-3.03S422.441,176.233,422.441,177.907z"/>
					</g>
					<g>
						<path style="fill:#F28F8F;" d="M126.378,165.842c0,1.674-1.357,3.03-3.03,3.03s-3.03-1.357-3.03-3.03
							c0-1.673,1.357-3.03,3.03-3.03S126.378,164.169,126.378,165.842z"/>
					</g>
					<g>
						<circle style="fill:#F28F8F;" cx="366.685" cy="127.257" r="3.366"/>
					</g>
					<g>
						<circle style="fill:#F28F8F;" cx="205.659" cy="85.286" r="2.64"/>
					</g>
					<g>
						<path style="fill:#F28F8F;" d="M167.758,401.179c0,1.802-1.46,3.262-3.262,3.262c-1.801,0-3.262-1.46-3.262-3.262
							c0-1.801,1.46-3.262,3.262-3.262C166.298,397.917,167.758,399.377,167.758,401.179z"/>
					</g>
				</g>
			</g>
		</g>
	</g>
</g>
</svg>
