<svg xmlns="http://www.w3.org/2000/svg" xmlns:xlink="http://www.w3.org/1999/xlink" version="1.1" width="256" height="256" viewBox="0 0 256 256" xml:space="preserve">

<defs>
</defs>
<g style="stroke: none; stroke-width: 0; stroke-dasharray: none; stroke-linecap: butt; stroke-linejoin: miter; stroke-miterlimit: 10; fill: none; fill-rule: nonzero; opacity: 1;" transform="translate(1.4065934065934016 1.4065934065934016) scale(2.81 2.81)" >
	<linearGradient id="SVGID_2" gradientUnits="userSpaceOnUse" x1="-0.0001636717" y1="45.0005" x2="89.9884" y2="45.0005">
<stop offset="0%" style="stop-color:rgb(255,100,0);stop-opacity: 1"/>
<stop offset="50%" style="stop-color:rgb(255,1,0);stop-opacity: 1"/>
<stop offset="100%" style="stop-color:rgb(253,0,86);stop-opacity: 1"/>
</linearGradient>
<path d="M 89.772 12.94 c 0.036 -0.106 0.075 -0.211 0.102 -0.32 c 0.026 -0.105 0.042 -0.21 0.059 -0.315 c 0.018 -0.107 0.038 -0.214 0.047 -0.323 c 0.009 -0.11 0.007 -0.22 0.007 -0.331 c 0 -0.105 0.003 -0.21 -0.005 -0.316 c -0.009 -0.121 -0.031 -0.239 -0.052 -0.358 c -0.013 -0.077 -0.016 -0.155 -0.034 -0.232 c -0.004 -0.019 -0.013 -0.036 -0.018 -0.055 c -0.03 -0.12 -0.073 -0.236 -0.113 -0.354 c -0.031 -0.091 -0.058 -0.183 -0.095 -0.271 c -0.044 -0.102 -0.101 -0.199 -0.154 -0.298 c -0.051 -0.095 -0.097 -0.192 -0.154 -0.281 c -0.054 -0.083 -0.118 -0.16 -0.179 -0.24 c -0.072 -0.096 -0.142 -0.194 -0.223 -0.283 c -0.014 -0.015 -0.023 -0.032 -0.037 -0.047 c -0.055 -0.059 -0.12 -0.106 -0.178 -0.161 c -0.086 -0.082 -0.17 -0.165 -0.263 -0.239 C 88.4 8.45 88.311 8.393 88.223 8.334 c -0.091 -0.061 -0.181 -0.124 -0.278 -0.178 c -0.095 -0.053 -0.194 -0.096 -0.292 -0.141 c -0.098 -0.045 -0.195 -0.091 -0.297 -0.128 c -0.105 -0.038 -0.212 -0.065 -0.32 -0.094 c -0.101 -0.027 -0.2 -0.057 -0.304 -0.076 c -0.122 -0.023 -0.244 -0.032 -0.367 -0.044 c -0.076 -0.007 -0.148 -0.024 -0.225 -0.027 l -82 -2.881 C 2.557 4.73 1.082 5.6 0.394 7.032 s -0.462 3.136 0.575 4.341 l 26.86 31.201 L 38.676 82.29 c 0.419 1.533 1.705 2.673 3.277 2.904 c 0.195 0.028 0.389 0.042 0.583 0.042 c 1.365 0 2.654 -0.7 3.392 -1.881 l 43.465 -69.592 c 0.042 -0.067 0.069 -0.138 0.106 -0.206 c 0.058 -0.107 0.118 -0.213 0.167 -0.324 C 89.707 13.137 89.738 13.038 89.772 12.94 z M 70.947 15.118 L 32.395 35.617 l -19.4 -22.535 L 70.947 15.118 z M 43.985 71.363 L 36.151 42.68 l 12.55 -6.673 l 26 -13.825 L 43.985 71.363 z" style="stroke: none; stroke-width: 1; stroke-dasharray: none; stroke-linecap: butt; stroke-linejoin: miter; stroke-miterlimit: 10; fill: url(#SVGID_2); fill-rule: nonzero; opacity: 1;" transform=" matrix(1 0 0 1 0 0) " stroke-linecap="round" />
</g>
</svg>