<?xml version="1.0" encoding="utf-8"?>
<!-- Generator: Adobe Illustrator 27.5.0, SVG Export Plug-In . SVG Version: 6.00 Build 0)  -->
<svg version="1.1" id="Ñëîé_1" xmlns="http://www.w3.org/2000/svg" xmlns:xlink="http://www.w3.org/1999/xlink" x="0px" y="0px"
	 viewBox="0 0 1000 800" style="enable-background:new 0 0 1000 800;" xml:space="preserve">
<g>
	<g>
		<path style="fill:#F43D47;" d="M184.976,126.045c0,3.661-0.236,19.133-0.236,23.266l-0.118,18.424c0,1.89-1.535,1.417-3.307,1.417
			c-1.417,0-4.015,0.354-5.669,0.354c-2.48,0-2.362-1.063-2.244-4.016c0-2.244-0.355-17.125-0.355-21.967
			c0-4.842,1.181-21.023,1.181-25.274c0-4.251,0.236-18.778,0.236-22.203c0-1.653-0.118-4.134-0.118-6.378
			c0-2.244,0.118-4.251,0.59-4.724c0.354-0.354,0.591-0.354,0.827-0.354c0.591,0,1.181,0.59,2.834,0.354
			c1.063-0.118,2.008-0.118,2.953-0.118c1.181,0,2.244,0,3.307,0.236c2.008,0.709,2.244,4.488,2.953,7.441
			c0.945,4.842,5.078,14.644,6.968,18.778c2.244,3.779,6.85,14.408,8.385,19.132c0.827,2.244,2.48,5.787,3.779,8.976l2.48,5.551
			c1.771-3.425,3.425-6.614,4.96-9.803l7.676-15.353c3.779-7.323,8.385-17.125,10.866-21.613c2.244-4.488,6.614-12.519,8.267-12.519
			c0.709,0,0.945,0.59,0.945,1.535c0,1.771-0.827,4.606-1.063,6.732c-0.472,3.189-0.472,23.266-0.472,28.345
			c0,5.433-0.473,20.314-0.827,23.975c-0.118,1.535-0.236,5.314-0.236,9.094c0,5.079,0.118,10.511,0.118,11.456
			c0,0.236,0,0.472,0,0.59c0,1.181-0.355,1.299-0.709,1.181c-0.118,0-0.118,0-0.236,0c-0.709,0-2.008,0.236-2.953,0.236
			c-0.709-0.118-0.827-0.827-0.827-2.244c0,5.197-0.236-16.771,0.236-21.14c0.354-3.543,0.827-16.653,0.827-20.078
			c-0.118-1.771,0.118-6.26,0.236-10.866l0.236-8.504c-0.59,0.827-1.063,1.654-1.417,2.48c-0.827,1.417-1.654,3.07-2.244,4.37
			c-1.299,2.598-8.74,17.597-10.275,20.432c-1.536,2.835-9.448,19.251-10.393,21.495c-0.945,2.244-3.071,7.204-3.543,7.204
			c-0.473,0-0.945-0.945-2.008-2.716c-1.299-1.89-4.252-9.448-5.433-12.873c-1.181-3.425-8.976-16.889-10.511-20.432
			c-0.827-1.771-2.126-5.078-3.189-7.913c-0.709-1.653-1.417-3.425-2.008-5.196l-0.236,5.196
			C185.094,120.849,184.976,124.274,184.976,126.045z"/>
		<path style="fill:#F43D47;" d="M308.041,128.998c0,17.125-7.559,43.107-26.101,43.107c-25.982,0-27.99-32.006-27.99-44.761
			c0-34.014,16.771-42.163,27.164-42.163C306.742,85.181,308.041,111.755,308.041,128.998z M287.255,130.061
			c0-6.023-2.008-11.811-5.433-11.811c-4.37,0-5.905,7.795-5.905,12.873c0,4.724,0.354,10.983,5.079,10.983
			C285.602,142.107,287.255,135.966,287.255,130.061z"/>
		<path style="fill:#F43D47;" d="M320.915,86.481c2.125,0,1.772,1.181,2.125,2.008c0.354,0.827,0.945,2.716,2.244,8.503
			c1.299,5.787,7.44,23.03,8.976,29.526c1.535,6.613,3.307,11.338,5.551,18.069c1.063,3.425,1.89,5.787,2.48,7.323
			c0.354,0.827,0.591,1.535,0.945,2.126c0.59-1.89,3.661-10.629,5.315-14.172c1.771-3.307,6.496-17.833,8.031-22.793
			c2.008-5.197,6.968-17.007,7.913-19.487c1.063-2.362,2.834-8.385,3.425-9.803c0.355-1.417,0.945-1.417,1.89-1.063
			c0.827,0.354,2.008,0.236,2.953,0.236c0.472,0,0.708,0.118,0.708,0.354c0,0.354-0.236,0.708-0.472,1.181
			c-0.354,0.945-2.126,5.905-4.016,9.094c-1.89,3.307-10.393,28.581-11.456,32.124c-1.417,3.425-7.795,21.967-9.33,25.983
			c-1.653,4.133-4.134,11.102-4.488,12.046c-0.354,1.299-0.591,1.417-1.536,1.417c-1.063,0-0.945-0.354-1.299-0.945
			c-0.236-0.59-4.724-15.117-6.023-18.896l-8.031-22.676c-1.299-3.897-5.905-19.605-6.85-22.085
			c-0.945-2.244-3.189-12.046-4.134-15.117c-0.354-0.945-0.472-1.654-0.472-2.126c0-0.827,0.472-0.709,1.063-0.827h4.133
			C320.679,86.481,320.797,86.481,320.915,86.481z"/>
		<path style="fill:#F43D47;" d="M382.33,90.732c0-3.779,1.063-4.606,2.362-4.606c0.236,0,0.591,0,0.945,0.118
			c2.008,0.118,5.905-0.236,9.33,0.118c2.008,0.236,2.599,0.827,2.599,1.89c0,0.709-0.236,1.535-0.355,2.598
			c-0.354,2.716-1.299,9.448-1.417,20.668c-0.118,3.071-0.118,6.378-0.118,9.448c0,8.385,0.236,15.944,0.236,17.952
			c0,2.126,0.354,9.566,0.354,13.818c0,1.299,0,2.244-0.118,2.716c-0.118,0.472-0.118,1.535-0.118,2.716
			c0,3.307,0.236,8.267,0.236,10.039c0.118,2.244-1.771,2.362-3.543,2.244h-10.747c-2.716,0.118-2.716-1.653-2.835-3.661
			c-0.354-1.89,0.708-5.905,0.708-10.039c0-4.37,1.536-24.92,1.536-28.109c0-3.071,0.472-19.487,0.472-22.321
			c0-1.417,0.118-4.134,0.236-6.377l0.236-4.252V90.732z"/>
		<path style="fill:#F43D47;" d="M411.62,123.801c0-9.094-0.59-9.92-0.59-17.007c0-7.086,0.236-14.054,0.354-17.361
			c0-2.244,0.945-2.598,2.244-2.598c0.591,0,1.181,0.118,1.771,0.118c1.772,0,3.897,0.354,9.212,0.354
			c5.079,0,13.11-1.063,17.716-1.063c4.842,0,10.865,0.473,13.109,0.473c2.244,0,2.48,1.063,2.48,3.307
			c0,2.481,0.473,5.315,0.473,8.976c0,1.063,0,2.362-0.354,4.37c-0.118,1.417-0.827,1.771-1.653,1.771
			c-0.827,0-1.89-0.472-2.598-0.59c-1.772-0.354-5.315-0.354-10.275-0.354c-2.952,0-6.023-0.236-8.976-0.236
			c-1.063,0-2.126,0-3.189,0.118c-1.772,0.118-4.015,0.236-6.259,0.236c-2.835,0-5.551-0.118-6.259-0.118
			c-1.299,0-1.181,0.59-1.181,2.362c0,1.89-0.354,7.204-0.354,11.338v6.968c0,1.299,0,2.48,0.118,3.779
			c0.945,0.118,2.008,0.118,3.189,0.118c2.008,0.118,4.96,0.118,8.267,0.118c4.37,0,9.685-0.472,12.519-0.472
			c2.835,0,4.488,0.354,5.787,0.354c1.299,0,1.535,0.59,1.535,1.417c0,0.827-0.236,1.417-0.236,3.661
			c0,2.244,0.118,3.307,0.118,6.259c0,1.536-0.354,1.89-1.063,1.89c-0.472,0-1.299-0.354-2.126-0.354
			c-1.89,0-4.37-0.236-11.81-0.236c-7.559,0-12.637,0.945-13.936,0.945c-0.827,0-1.299,0-1.536-0.118c-0.354,0-0.59,0-0.708-0.118
			v11.81c0.354,0,0.827,0,1.299-0.118c0.827,0,2.008-0.118,3.307-0.118c2.716,0,8.622-0.118,13.936-0.118
			c3.897,0,10.157,0.236,14.881,0.236c2.125,0,3.897-0.118,4.96-0.118c2.007,0,2.362,1.063,2.362,2.48
			c0,0.708-0.118,1.653-0.118,2.362c0,2.362-0.118,4.842-0.118,8.267c0,3.307-1.89,2.598-5.669,2.598
			c-3.897,0-15.235-0.236-20.786-0.236c-5.669,0-17.125,0.473-18.66,0.473c-0.236,0-0.472,0.118-0.708,0.118
			c-1.063,0-0.945-0.945-0.945-2.008c-0.118-1.299-0.118-2.953-0.118-4.37c0-1.417-0.236-2.598-0.236-5.078v-16.18
			C410.793,135.021,411.62,132.895,411.62,123.801z"/>
		<path style="fill:#F43D47;" d="M532.204,128.053c0,8.149,0.473,25.156,0.473,28.699c0,3.425,0.472,9.448,0.472,11.338
			c0,0.118,0,0.236,0,0.236c0,1.654-1.063,1.89-2.243,1.89c-1.3,0-5.079,0.473-7.913,0.473c-2.835,0-8.268,0.236-11.456,0.236
			c-3.188,0-2.953-1.771-3.307-3.307c-0.236-1.063-0.473-2.244-0.473-5.196c0-1.299,0-2.835,0.118-4.842
			c0-6.732,0.236-20.786,0.826-26.101c0.354-5.669,2.008-25.746,2.008-30.471c0-4.724,0-9.33,0.354-13.936
			c0.236-2.716,1.772-3.188,3.307-3.188c1.182,0,2.362,0.236,3.071,0.236c1.89,0,6.732-0.118,10.038-0.118
			c3.426,0,4.843,0.591,5.787,2.362c0.945,1.89,4.488,9.803,7.322,15.826c2.835,5.905,10.275,22.794,13.11,28.463
			c1.417,2.953,3.897,7.441,5.904,11.574l3.661,7.204l-0.235-6.85l-0.473-11.574c0-1.181,0-2.362,0-3.543
			c0-5.079,0.118-9.803,0.236-13.11c0-3.897-0.236-12.637-0.236-17.007l0.473-11.338c0-1.417,0.826-1.771,1.771-1.771
			c0.826,0,1.771,0.236,2.361,0.354c1.418,0.354,1.89,0.236,4.134,0.236c1.3,0,1.535,0.354,1.535,1.063
			c0,0.591-0.235,1.418-0.235,2.362c0,2.244-0.354,27.872-0.354,34.014c0,1.063-0.118,2.126-0.118,3.425
			c0,6.85,0.708,16.771,0.708,21.259c0,5.196,0.591,18.424,0.591,20.668c0,0.118,0,0.236,0,0.236c0,2.126-1.181,2.244-2.244,2.126
			c-0.354-0.118-0.826-0.118-1.417-0.118c-1.417,0-3.07,0.236-4.016,0.118c-1.299-0.118-1.417-0.118-2.716-2.362
			c-0.945-2.126-7.441-18.424-9.685-23.148c-2.48-4.724-10.63-22.912-13.109-28.462c-1.3-2.716-3.426-6.85-5.316-10.275
			l-3.425-6.142l0.355,11.22C531.968,116.951,532.204,123.919,532.204,128.053z"/>
		<path style="fill:#F43D47;" d="M588.305,90.732c0-3.779,1.063-4.606,2.362-4.606c0.236,0,0.59,0,0.944,0.118
			c2.008,0.118,5.905-0.236,9.33,0.118c2.008,0.236,2.599,0.827,2.599,1.89c0,0.709-0.236,1.535-0.354,2.598
			c-0.354,2.716-1.299,9.448-1.417,20.668c-0.118,3.071-0.118,6.378-0.118,9.448c0,8.385,0.236,15.944,0.236,17.952
			c0,2.126,0.355,9.566,0.355,13.818c0,1.299,0,2.244-0.118,2.716c-0.118,0.472-0.118,1.535-0.118,2.716
			c0,3.307,0.236,8.267,0.236,10.039c0.118,2.244-1.772,2.362-3.544,2.244H587.95c-2.716,0.118-2.716-1.653-2.834-3.661
			c-0.355-1.89,0.708-5.905,0.708-10.039c0-4.37,1.535-24.92,1.535-28.109c0-3.071,0.473-19.487,0.473-22.321
			c0-1.417,0.118-4.134,0.236-6.377l0.236-4.252V90.732z"/>
		<path style="fill:#F43D47;" d="M666.727,137.501c1.417,0,2.125,1.653,2.008,3.897c0,2.244-0.354,29.644-27.046,29.644
			c-18.778,0-27.754-24.565-27.754-45.706c0-21.259,13.109-39.447,27.754-39.447c14.526,0,18.424,8.74,20.195,10.511
			c0.709,0.827,0.945,1.536,0.945,2.244c0,1.063-0.473,1.89-1.064,2.48c-0.944,0.945-4.369,3.779-5.551,4.606
			c-0.354,0.236-0.708,0.354-1.063,0.354c-0.827,0-1.535-0.472-2.126-1.063c-0.945-0.945-5.787-7.677-12.991-7.677
			c-10.512,0-15.59,19.724-15.59,31.062c0,11.22,4.725,31.533,18.542,31.533c7.086,0,10.747-3.307,12.991-6.614
			c1.3-2.008,2.126-4.251,2.481-6.732h-3.425c-1.89,0-4.016-0.118-5.315-0.118l-11.929-0.118c-1.772,0-2.008-1.063-2.008-1.89
			v-4.606c0-1.89,0.827-1.771,1.299-1.771h5.433C644.404,138.092,665.427,137.501,666.727,137.501z"/>
		<path style="fill:#F43D47;" d="M715.148,123.565c3.426,0,9.212,0,14.055-0.118c2.834,0,5.787,0,8.857-0.118v-3.543
			c0-2.008-0.118-4.488-0.118-6.496c0-4.016,0.709-25.156,0.709-26.691c0.118-0.945,0.708-1.063,1.299-1.063
			c0.473,0,0.945,0.118,1.3,0.118c0.472,0.118,1.063,0.118,1.771,0.118c0.59,0,1.417,0,2.008,0.236
			c0.826,0.236,1.181,0.591,1.181,1.181c0,0.236-0.118,0.59-0.236,0.945c-0.118,1.299-0.591,4.842-1.063,10.157
			c-0.473,5.315-0.827,30.589-0.827,35.786c0,5.314-0.709,22.912-0.709,25.038c0,1.181-0.118,3.071-0.118,4.724
			c0,1.417,0.118,2.598,0.236,3.425c0.118,0.354,0.118,0.591,0.118,0.709c0,0.945-0.708,0.709-1.181,0.827
			c-0.591,0.118-2.953,0.236-4.252,0.236c-0.826,0-0.944-0.59-0.944-1.181c0,3.188,0.118-10.866,0.118-17.243
			c-0.118-2.48,0-7.913,0-12.637v-8.739l-9.566,0.236c-5.079,0.118-10.984,0.118-13.7,0.118h-11.102c-2.244,0-4.488,0-6.969-0.118
			c0,0.945,0,2.008-0.117,3.071c-0.118,1.89-0.236,4.488-0.236,7.205c0,2.716-0.118,7.794-0.118,12.755
			c0,4.96,0.118,9.921,0.59,12.283c0.118,0.708,0.236,1.299,0.236,1.771c0,2.834-2.362,2.362-4.134,2.362
			c-2.243-0.118-6.141,0-9.448,0.354c-3.307,0.355-2.716-2.362-2.716-7.44c0-4.842-0.236-33.659-0.236-40.864
			c0-7.559,0.236-27.636,0.236-30.588c0-3.543,1.063-3.661,2.244-3.661c0.826,0,1.653,0.118,2.598,0.118
			c0.827,0,1.653-0.118,2.717-0.236c0.591-0.118,1.299-0.118,2.008-0.118c2.008,0,4.016,0.236,5.669,0.236
			c2.244,0,1.772,2.125,1.772,3.543c0,1.417-0.118,7.559-0.473,14.054l-0.473,11.692l-0.354,6.968l7.086,0.236
			C707,123.329,711.724,123.565,715.148,123.565z"/>
		<path style="fill:#F43D47;" d="M804.082,133.367c0,9.803,1.89,27.164,1.89,31.77c0.354,4.606-3.425,3.661-10.394,3.661
			c-7.086,0-24.329-0.473-26.691-0.473c-0.944,0-1.181-0.945-1.181-2.362c0-2.008,0.473-4.96,0.473-7.913
			c-0.118-1.535-0.236-5.551-0.236-10.747c0-12.283,0.354-31.18,1.063-39.565c0.236-3.07,0.236-5.787,0.236-8.267
			c0-3.661-0.118-6.732-0.355-8.74c-1.299-0.118-1.771-0.118-2.125-0.118c-1.89,0-8.504,0.236-9.803,0.236
			c-0.827,0-0.945-0.827-0.945-1.89c0-0.827,0.118-1.653,0.118-2.598c0-1.299,0.473-1.535,1.3-1.535
			c0.708,0,1.653,0.236,2.834,0.236l25.156-0.118c6.613,0,27.636-0.354,30.471-0.354c2.479,0.118,1.89,1.771,1.89,3.779
			c0.118,2.244-0.945,2.716-2.835,2.716c-1.89,0-4.488,0.236-10.039,0.118h-0.472C804.436,99.59,804.082,125.218,804.082,133.367z"
			/>
	</g>
	<g>
		<g>
			<rect x="807.508" y="405.095" style="fill:#2E2633;" width="7.799" height="77.686"/>
			<rect x="752.263" y="405.095" style="fill:#2E2633;" width="7.799" height="77.686"/>
			<path style="fill:#433749;" d="M836.702,361.187H733.807c-3.636,0-6.583,2.947-6.583,6.583v49.623
				c0,2.531,2.052,4.583,4.583,4.583h105.395c2.577,0,4.667-2.089,4.667-4.667v-50.956
				C841.869,363.5,839.556,361.187,836.702,361.187z"/>
			<path style="fill:#534459;" d="M818.395,364.944h-66.28c-3.636,0-6.583,2.948-6.583,6.583v20.065
				c0,2.531,2.052,4.583,4.583,4.583h68.78c2.577,0,4.667-2.089,4.667-4.667V370.11
				C823.561,367.257,821.248,364.944,818.395,364.944z"/>
			<path style="fill:#433749;" d="M861.456,432.12h-153.32c-4.004,0-7.25,3.246-7.25,7.25v269.313h167.32V438.87
				C868.206,435.142,865.184,432.12,861.456,432.12z"/>
			<path style="fill:#534459;" d="M846.904,441.532H717.235c-4.004,0-7.25,3.246-7.25,7.25v169.153h143.669V448.282
				C853.654,444.554,850.632,441.532,846.904,441.532z"/>
			<path style="fill:#534459;" d="M839.033,629.834H730.559c-4.004,0-7.25,3.246-7.25,7.25v39.736h122.475v-40.236
				C845.783,632.856,842.761,629.834,839.033,629.834z"/>
			<path style="fill:#615068;" d="M810.489,445.171h-87.075c-6.164,7.816-4.533,18.032,6.42,28.932
				c22.49,22.379,75.659,39.138,118.758,37.433c0.414-0.016,0.81-0.046,1.219-0.065v-58.497
				C849.811,448.665,832.205,445.171,810.489,445.171z"/>
			<path style="fill:#433749;" d="M652.128,708.683h60.809c0,0,2.324-114.567-33.309-114.567
				C643.995,594.116,652.128,708.683,652.128,708.683z"/>
			<path style="fill:#433749;" d="M698.087,570.552h-44.54c-3.636,0-6.583,2.948-6.583,6.583v35.728
				c0,2.531,2.052,4.583,4.583,4.583h47.04c2.577,0,4.667-2.089,4.667-4.667v-37.061
				C703.254,572.865,700.941,570.552,698.087,570.552z"/>
			<path style="fill:#534459;" d="M693.018,576.267h-27.323c-3.636,0-6.583,2.947-6.583,6.583v19.028
				c0,2.531,2.052,4.583,4.583,4.583h29.823c2.577,0,4.667-2.089,4.667-4.667v-20.361
				C698.185,578.58,695.871,576.267,693.018,576.267z"/>
			<path style="fill:#534459;" d="M657.174,708.683h47.392c0,0,1.811-94.577-25.96-94.577
				C650.835,614.106,657.174,708.683,657.174,708.683z"/>
			<path style="fill:#433749;" d="M914.362,708.683h-63.804c0,0-2.438-114.567,34.95-114.567
				C922.896,594.116,914.362,708.683,914.362,708.683z"/>
			<path style="fill:#534459;" d="M915.985,708.683h-54.259c0,0-2.074-91.236,29.722-91.236
				C923.242,617.447,915.985,708.683,915.985,708.683z"/>
			<path style="fill:#433749;" d="M907.452,570.552h-44.54c-3.636,0-6.583,2.948-6.583,6.583v35.728
				c0,2.531,2.052,4.583,4.583,4.583h47.04c2.577,0,4.667-2.089,4.667-4.667v-37.061
				C912.618,572.865,910.305,570.552,907.452,570.552z"/>
			<path style="fill:#534459;" d="M895.482,581.037h-17.711c-3.636,0-6.583,2.947-6.583,6.583v13.377
				c0,2.531,2.052,4.583,4.583,4.583h20.211c2.577,0,4.667-2.089,4.667-4.667v-14.71
				C900.649,583.35,898.335,581.037,895.482,581.037z"/>
		</g>
		<g>
			<rect x="231.393" y="405.095" style="fill:#2E2633;" width="7.799" height="77.686"/>
			<rect x="176.148" y="405.095" style="fill:#2E2633;" width="7.799" height="77.686"/>
			<path style="fill:#433749;" d="M260.587,361.187H157.691c-3.636,0-6.583,2.947-6.583,6.583v49.623
				c0,2.531,2.052,4.583,4.583,4.583h105.395c2.577,0,4.667-2.089,4.667-4.667v-50.956
				C265.753,363.5,263.44,361.187,260.587,361.187z"/>
			<path style="fill:#534459;" d="M242.279,364.944h-66.28c-3.636,0-6.583,2.948-6.583,6.583v20.065
				c0,2.531,2.052,4.583,4.583,4.583h68.78c2.577,0,4.667-2.089,4.667-4.667V370.11
				C247.446,367.257,245.133,364.944,242.279,364.944z"/>
			<path style="fill:#433749;" d="M285.341,432.12h-153.32c-4.004,0-7.25,3.246-7.25,7.25v269.313h167.32V438.87
				C292.091,435.142,289.069,432.12,285.341,432.12z"/>
			<path style="fill:#534459;" d="M270.788,441.532H141.12c-4.004,0-7.25,3.246-7.25,7.25v169.153h143.668V448.282
				C277.538,444.554,274.516,441.532,270.788,441.532z"/>
			<path style="fill:#534459;" d="M262.918,629.834H154.443c-4.004,0-7.25,3.246-7.25,7.25v39.736h122.475v-40.236
				C269.668,632.856,266.646,629.834,262.918,629.834z"/>
			<path style="fill:#615068;" d="M234.374,445.171h-87.075c-6.165,7.816-4.533,18.032,6.42,28.932
				c22.49,22.379,75.659,39.138,118.758,37.433c0.414-0.016,0.81-0.046,1.219-0.065v-58.497
				C273.696,448.665,256.09,445.171,234.374,445.171z"/>
			<path style="fill:#433749;" d="M76.013,708.683h60.809c0,0,2.324-114.567-33.309-114.567
				C67.88,594.116,76.013,708.683,76.013,708.683z"/>
			<path style="fill:#433749;" d="M121.972,570.552h-44.54c-3.636,0-6.583,2.948-6.583,6.583v35.728
				c0,2.531,2.052,4.583,4.583,4.583h47.04c2.577,0,4.667-2.089,4.667-4.667v-37.061
				C127.139,572.865,124.826,570.552,121.972,570.552z"/>
			<path style="fill:#534459;" d="M116.903,576.267H89.579c-3.636,0-6.583,2.947-6.583,6.583v19.028
				c0,2.531,2.052,4.583,4.583,4.583h29.823c2.577,0,4.667-2.089,4.667-4.667v-20.361
				C122.069,578.58,119.756,576.267,116.903,576.267z"/>
			<path style="fill:#534459;" d="M81.058,708.683h47.392c0,0,1.811-94.577-25.96-94.577S81.058,708.683,81.058,708.683z"/>
			<path style="fill:#433749;" d="M338.247,708.683h-63.804c0,0-2.438-114.567,34.95-114.567
				C346.781,594.116,338.247,708.683,338.247,708.683z"/>
			<path style="fill:#534459;" d="M339.87,708.683H285.61c0,0-2.074-91.236,29.722-91.236
				C347.127,617.447,339.87,708.683,339.87,708.683z"/>
		</g>
		<g>
			<path style="fill:#F47373;" d="M339.108,392.389l-3.245,1.217l18.662,37.731c0,0-13.591,30.428-14.2,31.036l2.84,1.826
				l14.808-32.659L339.108,392.389z"/>
			<path style="fill:#433749;" d="M565.796,365.312H443.929c-3.636,0-6.583,2.947-6.583,6.583v49.623
				c0,2.531,2.052,4.583,4.583,4.583h124.367c2.577,0,4.667-2.089,4.667-4.667v-50.956
				C570.962,367.625,568.649,365.312,565.796,365.312z"/>
			<path style="fill:#534459;" d="M562.851,369.069h-79.193c-3.636,0-6.583,2.948-6.583,6.583v20.065
				c0,2.531,2.052,4.583,4.583,4.583h81.693c2.577,0,4.667-2.089,4.667-4.667v-21.398
				C568.017,371.382,565.704,369.069,562.851,369.069z"/>
			<path style="fill:#433749;" d="M593.102,432.12H412.094c-4.004,0-7.25,3.246-7.25,7.25v269.313h195.008V438.87
				C599.852,435.142,596.83,432.12,593.102,432.12z"/>
			<path style="fill:#534459;" d="M566.969,629.834H438.227c-4.004,0-7.25,3.246-7.25,7.25v39.736h142.742v-40.236
				C573.719,632.856,570.697,629.834,566.969,629.834z"/>
			<path style="fill:#534459;" d="M586.977,435.776h-20.586c-1.457,9.313-1.072,21.485,1.518,34.472
				c5.317,26.664,17.887,46.632,28.076,44.6c0.098-0.019,0.191-0.054,0.288-0.078v-69.698
				C596.273,439.938,592.111,435.776,586.977,435.776z"/>
			<path style="fill:#3A2F3F;" d="M459.949,551.571c-27.325-7.38-40.721,18.874-44.704,38.743
				c-3.983,19.869,3.094,61.171,17.332,114.534h4.815c0,0,52.435-84.165,57.654-107.869
				C499.754,575.59,487.274,558.951,459.949,551.571z"/>
			<path style="fill:#3A2F3F;" d="M444.169,708.575h-33.927c0,0,18.849-13.023,26.731-13.365
				C444.854,694.867,444.169,708.575,444.169,708.575z"/>
			<path style="fill:#3A2F3F;" d="M542.042,545.134c25.36-7.69,41.348,18.337,44.104,39.041
				c2.757,20.703-10.475,65.069-25.911,120.674h-4.41c0,0-43.002-89.914-51.272-110.618
				C496.283,573.527,516.681,552.823,542.042,545.134z"/>
			<path style="fill:#3A2F3F;" d="M550.943,708.683h28.826c0,0-16.015-11.789-22.712-12.099
				C550.36,696.273,550.943,708.683,550.943,708.683z"/>
			<path style="fill:#3A2F3F;" d="M594.046,573.046c0,0-8.52-34.891-57.992-48.563c-2.677-0.74-6.252-1.412-10.49-1.933
				c22.007,7.12,50.881,28.807,51.963,36.65c2.368,17.165-43.494,30.894-85.456,36.012c-41.962,5.118-77.68-4.676-79.778-21.876
				c-1.233-10.112,9.534-25.468,27.137-37.452c-16.454,8.043-31.244,20.149-40.933,37.972
				c-31.081,57.179,31.693,79.291,104.516,48.363C599.136,632.661,594.046,573.046,594.046,573.046z"/>
			<path style="fill:#433749;" d="M340.443,708.683h70.871c0,0,2.709-114.567-38.821-114.567
				C330.964,594.115,340.443,708.683,340.443,708.683z"/>
			<path style="fill:#433749;" d="M394.863,570.552h-53.855c-3.636,0-6.583,2.947-6.583,6.583v35.728
				c0,2.531,2.052,4.583,4.583,4.583h56.354c2.577,0,4.667-2.089,4.667-4.667v-37.061
				C400.029,572.865,397.716,570.552,394.863,570.552z"/>
			<path style="fill:#534459;" d="M370.455,584.49H344.88c-3.636,0-6.583,2.947-6.583,6.583v13.581c0,2.531,2.052,4.583,4.583,4.583
				h28.074c2.577,0,4.667-2.089,4.667-4.667v-14.915C375.621,586.803,373.308,584.49,370.455,584.49z"/>
			<path style="fill:#534459;" d="M346.324,708.683h55.235c0,0,2.111-94.576-30.256-94.576
				C338.935,614.106,346.324,708.683,346.324,708.683z"/>
			<path style="fill:#433749;" d="M653.646,708.683h-74.362c0,0-2.842-114.567,40.734-114.567
				C663.593,594.115,653.646,708.683,653.646,708.683z"/>
			<path style="fill:#534459;" d="M655.538,708.683H592.3c0,0-2.417-91.236,34.64-91.236
				C663.996,617.447,655.538,708.683,655.538,708.683z"/>
			<polygon style="fill:#DB3E3E;" points="644.392,545.273 605.871,545.273 608.881,596.433 641.382,596.433 			"/>
			<path style="fill:#F94B4B;" d="M610.92,550.678c0,7.56,6.18,13.688,13.804,13.688c7.624,0,13.804-6.129,13.804-13.688
				c0-1.372-0.209-2.694-0.587-3.943h-26.433C611.129,547.984,610.92,549.306,610.92,550.678z"/>
			<rect x="603.492" y="542.567" style="fill:#EAD9B9;" width="44.086" height="5.41"/>
			<path style="fill:#433749;" d="M646.448,570.552h-53.855c-3.636,0-6.583,2.947-6.583,6.583v35.728
				c0,2.531,2.052,4.583,4.583,4.583h56.355c2.577,0,4.667-2.089,4.667-4.667v-37.061
				C651.614,572.865,649.301,570.552,646.448,570.552z"/>
			<path style="fill:#534459;" d="M645.505,570.592h-38.986c-3.636,0-6.583,2.948-6.583,6.583v25.1c0,2.531,2.052,4.583,4.583,4.583
				h41.486c2.577,0,4.667-2.089,4.667-4.667v-26.434C650.672,572.905,648.358,570.592,645.505,570.592z"/>
			<path style="fill:#FFB882;" d="M373.848,516.383l-7.222,11.135c0,0-19.747-35.081-27.987-44.99l-4.654,3.58
				c-8.287,46.526-1.666,87.153,19.099,93.473c20.765,6.32,39.272-2.709,49.655-34.307L373.848,516.383z"/>
			<path style="fill:#FF9566;" d="M373.848,516.383l-7.222,11.135c0,0-1.644-2.92-4.174-7.302
				c-0.18,12.917-2.989,22.052-7.814,22.854c-7.22,1.201-16.212-16.699-20.083-39.981c-0.675-4.061-1.146-8.012-1.431-11.783
				c-6.902,44.32-0.026,82.191,19.96,88.274c20.765,6.32,39.273-2.709,49.655-34.307L373.848,516.383z"/>
			<path style="fill:#FF9566;" d="M550.499,375.543c-9.63-36.113-60.188-86.671-60.188-86.671l-4.213,6.019
				c1.806,37.918,18.056,72.225,18.056,72.225s-6.621,16.251-17.435,73.19l69.197,46.584
				C555.916,486.891,560.128,411.656,550.499,375.543z"/>
			<path style="fill:#FFB882;" d="M551.562,374.606c-4.871-18.267-23.801-46.791-41.111-63.602l-0.238,24.125
				c11.954,15.66,21.961,38.331,26.086,53.803c2.048,7.679,3.466,17.131,4.436,27.248l15.41,3.516
				C555.329,403.459,554.722,386.457,551.562,374.606z"/>
			<polygon style="fill:#CEBA8D;" points="491.653,399.895 474.648,440.38 563.662,499.771 562.536,445.361 			"/>
			<path style="fill:#BCA577;" d="M562.536,445.361l-5.367-3.442c0.747,4.642,2.507,14.639-1.801,18.329
				c-7.062,6.049-28-5.239-47.392-25.911c-8.542-9.105-15.301-18.451-19.616-26.603l-13.712,32.646l89.014,59.391L562.536,445.361z"
				/>
			<path style="fill:#BCA577;" d="M391.444,561.229l-24.613-38.136c0,0,17.829-58.538,42.734-61.937L391.444,561.229z"/>
			<path style="fill:#CEBA8D;" d="M409.659,611.48c-21.667,12.639-40.326-41.53-16.853-69.818c0,0-19.035-35.261,3.796-68.419
				c34.437-50.013,90.699-44.132,125.006-20.057c34.307,24.075,80.651,98.106,65.003,127.598
				C570.962,610.276,409.659,611.48,409.659,611.48z"/>
			<path style="fill:#BCA577;" d="M534.076,463.59c19.379,27.587-7.688,26.03-12.152,27.588c5.675,2.757,53.98,22.178,55.332,53.282
				c0.648,14.906-70.793-7.511-101.75,0.49c-30.957,8.001-74.227,19.266-73.243,4.378c1.893-28.67,33.219-43.894,56.385-53.196
				c-21.341,4.863-39.657,12.602-52.442,21.845c-7.523-5.45-13.166-12.641-16.066-21.337c-0.773-2.318-1.306-4.673-1.653-7.048
				c-8.954,27.443,0.253,51.081,0.253,51.081c-23.473,28.288-0.747,83.445,20.92,70.806c0,0,161.303-1.204,176.952-30.696
				C600.422,554.756,571.036,489.826,534.076,463.59z"/>
			<path style="fill:#6978A8;" d="M398.496,566.961c31.174-57.35,115.142-55.569,137.558-49.374
				c49.472,13.672,57.992,48.563,57.992,48.563s3.825,54.568-92.299,44.127C428.924,641.205,367.415,624.139,398.496,566.961z"/>
			<path style="fill:#516491;" d="M399.105,570.003c31.174-57.35,115.142-55.569,137.558-49.374
				c42.593,11.771,54.821,39.251,57.401,46.671c0.01-0.736-0.018-1.151-0.018-1.151s-8.52-34.891-57.992-48.563
				c-22.416-6.195-106.383-7.975-137.557,49.374c-7.621,14.019-9.664,25.621-7.35,34.701
				C389.943,593.08,392.312,582.5,399.105,570.003z"/>
			<path style="fill:#516491;" d="M594.046,566.149c0,0-8.52-34.891-57.992-48.563c-2.677-0.74-6.252-1.412-10.49-1.933
				c22.007,7.12,50.881,28.807,51.963,36.65c2.368,17.165-43.494,30.894-85.456,36.012c-41.962,5.118-77.68-4.676-79.778-21.876
				c-1.233-10.112,9.534-25.468,27.137-37.452c-16.454,8.043-31.244,20.149-40.933,37.972
				c-31.081,57.179,31.693,79.292,104.516,48.363C599.136,625.764,594.046,566.149,594.046,566.149z"/>
			<path style="fill:#6978A8;" d="M557.188,545.134c25.36-7.69,41.348,18.337,44.104,39.041
				c2.757,20.703-10.475,65.069-25.911,120.674h-4.41c0,0-43.002-89.914-51.272-110.618
				C511.429,573.527,531.828,552.823,557.188,545.134z"/>
			<path style="fill:#516491;" d="M601.292,584.175c-2.428-18.241-17.499-47.211-37.83-47.017c16.228,7.975,21.991,29.826,23.801,42
				c2.804,18.853-5.57,71.789-19.744,63.798c-17.223-9.71-40.551-43.12-48.385-61.9c-0.251-0.602-0.485-1.197-0.704-1.786
				c-1.051,4.862-1.884,11.85,0.134,16.901c8.27,20.704,52.406,108.678,52.406,108.678h4.41
				C590.818,649.244,604.049,604.879,601.292,584.175z"/>
			<path style="fill:#6978A8;" d="M442.161,545.134c-27.686-7.69-39.796,19.666-42.806,40.37
				c-3.009,20.704,6.091,63.74,22.944,119.345h4.815c0,0,48.311-87.7,52.368-112.4C483.143,570.161,469.847,552.823,442.161,545.134
				z"/>
			<path style="fill:#516491;" d="M476.596,565.039c0.959,3.979,3.697,11.35,3.697,15.394c0,41.4-33.914,72.225-51.727,72.225
				c-17.813,0-32.254-33.562-32.254-74.962c0-1.042,0.016-2.076,0.034-3.108c-1.095,3.228-1.882,6.468-2.336,9.588
				c-3.009,20.704,11.436,65.069,28.289,120.674h4.815c0,0,51.759-78.166,55.975-110.618
				C484.53,583.132,484.344,573.714,476.596,565.039z"/>
			<path style="fill:#773838;" d="M406.455,455.679c-19.068,2.231-21.908-20.691-21.908-20.691s-14.067-9.517-12.374-25.357
				c3.448-32.253,29.414-43.613,44.019-40.976c5.251,0.948,26.034,16.988,26.034,16.988L406.455,455.679z"/>
			<path style="fill:#562626;" d="M412.27,401.112c-14.495,0-27.189-4.451-34.214-11.116c-2.936,5.418-5.058,11.923-5.883,19.636
				c-1.694,15.84,12.374,25.356,12.374,25.356s2.84,22.922,21.908,20.691l30.352-59.428
				C430.029,399.294,421.52,401.112,412.27,401.112z"/>
			<path style="fill:#FFB882;" d="M404.717,462.424c-3.246-21.367-4.96-36.723-4.057-37.325s49.766,27.047,49.766,27.047
				S425.814,474.866,404.717,462.424z"/>
			<g style="opacity:0.6;">
				<path style="fill:#843131;" d="M451.082,483.47c28.334-20.062,43.24-46.95,31.289-61.479l-5.814,13.842
					c-14.533-1.75-29.664-0.061-43.891,6.339c-7.727-4.312-16.449-9.139-22.839-12.561c-2.948,1.958-5.855,4.07-8.698,6.332
					c0.721,6.587,1.962,15.779,3.588,26.481c0.037,0.022,0.075,0.038,0.112,0.06c-14.328,6.016-25.866,29.126-32.326,45.007
					C373.529,508.637,406.638,514.938,451.082,483.47z"/>
			</g>
			<path style="fill:#FFB882;" d="M404.59,444.831c18.9,33.325,67.644,28.848,78.089-2.984
				c10.445-31.832-12.435-31.832-35.314-55.209c-11.44-11.688-25.746-17.22-37.124-13.925
				c-11.378,3.295-19.827,15.418-20.573,21.386C388.177,406.035,391.24,421.293,404.59,444.831z"/>
			<polygon style="fill:#FF9566;" points="427.06,374.73 393.901,416.51 413.133,428.448 428.284,403.699 429.411,397.64 
				440.844,381.237 437.153,378.663 			"/>
			<g>
				<path style="fill:#492D28;" d="M466.629,411.48c-6.642-7.392-20.262-12.682-25.529-8.458c-5.267,4.223-0.186,16.36,6.456,23.752
					c6.641,7.392,12.329,7.241,17.596,3.018C470.418,425.568,473.27,418.872,466.629,411.48z"/>
				<path style="fill:#EA7B59;" d="M428.862,397.67c0.888-3.404,4.711-6.405,7.396-3.178c2.684,3.227,1.436,7.495,0.106,8.553
					C435.034,404.103,427.575,402.603,428.862,397.67z"/>
				<path style="fill:#FFB882;" d="M428.838,399.463c0.744-2.858,3.95-5.376,6.203-2.665c2.253,2.711,1.207,6.294,0.092,7.182
					C434.018,404.867,427.76,403.605,428.838,399.463z"/>
				<path style="fill:#AF5145;" d="M464.679,429.401c3.969-3.183,6.444-7.89,3.873-13.225c-3.379-0.087-7.368,0.541-11.502,1.972
					c-4.249,1.471-7.951,3.548-10.732,5.832c0.683,0.929,1.399,1.817,2.137,2.639C454.58,433.434,459.824,433.295,464.679,429.401z"
					/>
				<path style="fill:#492D28;" d="M415.514,404.926c-5.026,4.917-4.922,11.2-1.656,7.85
					C417.123,409.426,415.514,404.926,415.514,404.926z"/>
				<path style="fill:#492D28;" d="M426.734,387.554c4.28-5.409,10.52-5.962,7.585-2.431
					C431.385,388.654,426.734,387.554,426.734,387.554z"/>
			</g>
			<path style="fill:#FF9566;" d="M479.099,412.674c-0.239,3.383-1.029,7.229-2.505,11.728
				c-10.445,31.832-59.188,36.309-78.089,2.984c-3.06-5.395-1.32,4.388,6.086,17.445c18.9,33.325,67.644,28.848,78.089-2.984
				C487.504,427.144,485.21,419.235,479.099,412.674z"/>
			<path style="fill:#562626;" d="M385.967,415.717c16.837,6.086,33.673,26.371,33.673,26.371l-12.787,2.85l-13.99-9.747
				L385.967,415.717z"/>
			<polygon style="fill:#FFF7D4;" points="394.284,440.871 394.825,412.336 403.886,417.069 397.394,441.953 			"/>
			<path style="fill:#FFB882;" d="M409.73,452.955c-13.863-2.607-23.656-8.938-17.893-14.153c5.764-5.214,14.958-1.49,17.806,4.097
				C412.491,448.486,409.73,452.955,409.73,452.955z"/>
			<path style="fill:#FFC648;" d="M430.274,323.631c13.994,34.758,23.925,40.627,51.912,58.683c0,0,15.348-69.517,32.953-91.636
				c0,0-27.987-37.015-42.884-38.821l-12.188,34.758l-5.868,3.16l-2.257,7.674L430.274,323.631z"/>
			<polygon style="fill:#BE72D6;" points="295.556,492.823 322.069,441.276 356.959,467.241 321.033,510.966 			"/>
			<path style="fill:#9B4FB7;" d="M322.069,441.276l-7.981,15.517c5.103-2.277,9.93-2.519,13.52-0.189
				c8.105,5.262,6.837,21.601-2.833,36.494c-3.319,5.112-7.2,9.363-11.189,12.564l7.447,5.303l35.926-43.725L322.069,441.276z"/>
			<path style="fill:#773838;" d="M426.391,371.074c-4.267-0.519-12.333,3.841-13.916,7.656c-1.583,3.814,5.039,4.897,5.812,2.69
				c0.773-2.207,5.118-5.449,10.943-6.95C429.229,374.47,430.658,371.593,426.391,371.074z"/>
			<polygon style="fill:#FFF7D4;" points="425.978,369.727 392.819,411.507 412.051,423.444 440.899,375.364 			"/>
			<g>
				<polygon style="fill:#F47373;" points="412.684,391.703 399.203,409.731 411.338,417.263 423.423,397.323 				"/>
				<polygon style="fill:#779AD8;" points="426.391,392.425 435.677,377.104 426.262,373.548 416.152,387.067 				"/>
			</g>
			<path style="fill:#EFCBF4;" d="M355.38,468.78l-36.409-23.997c0,0,11.585-16.136,31.03-5.792
				C369.447,449.334,355.38,468.78,355.38,468.78z"/>
			<path style="fill:#9ECBCC;" d="M430.121,708.683h-26.777c0,0,14.876-10.278,21.097-10.548
				C430.662,697.864,430.121,708.683,430.121,708.683z"/>
			<path style="fill:#9ECBCC;" d="M566.731,708.683h25.131c0,0-13.961-10.278-19.8-10.548
				C566.223,697.864,566.731,708.683,566.731,708.683z"/>
			<path style="fill:#FFD86C;" d="M502.49,297.395c1.446-4.884,2.527-9.719,3.26-14.419c-8.713-10.371-23.945-26.888-33.47-28.042
				l-11.416,32.556l-5.496,2.96l-2.114,7.188l-13.693,16.546c1.03,16.033,6.978,28.073,16.877,31.004
				C472.637,349.982,493.255,328.585,502.49,297.395z"/>
			<polygon style="fill:#FFC648;" points="454.198,289.776 499.632,309.963 461.149,286.676 			"/>
			<polygon style="fill:#FFC648;" points="490.165,329.167 453.254,297.636 494.763,319.7 			"/>
			<path style="fill:#E8872E;" d="M482.186,382.315c-9.871-24.478-52.841-59.62-51.912-58.683
				c0.929,0.937-2.587,19.87,16.887,35.016C466.634,373.794,482.186,382.315,482.186,382.315z"/>
			<path style="fill:#EA7B59;" d="M406.661,450.174c-9.232-1.736-15.754-5.952-11.915-9.425c3.839-3.472,9.961-0.992,11.858,2.728
				C408.5,447.198,406.661,450.174,406.661,450.174z"/>
			<path style="fill:#FFB882;" d="M408.586,451.652c-6.626-1.246-11.307-4.272-8.552-6.764c2.755-2.492,7.149-0.712,8.511,1.958
				C409.905,449.516,408.586,451.652,408.586,451.652z"/>
			<path style="fill:#FFD86C;" d="M469.136,379.203c0-6.554,1.762-11.968-1.319-11.968c-3.081,0-9.838,5.414-9.838,11.968
				c0,6.554,6.757,11.766,9.838,11.766C470.899,390.969,469.136,385.757,469.136,379.203z"/>
			<path style="fill:#FFD86C;" d="M447.149,397.428c0.703,6.515-0.469,12.086,2.593,11.755c3.062-0.332,9.197-6.441,8.495-12.956
				c-0.702-6.515-7.977-10.968-11.038-10.637C444.136,385.923,446.446,390.913,447.149,397.428z"/>
			<path style="fill:#FFD86C;" d="M451.045,366.778c6.542-0.394,12.053,1.04,11.867-2.035c-0.185-3.075-5.996-9.495-12.537-9.102
				c-6.542,0.394-11.338,7.452-11.153,10.527C439.407,369.244,444.503,367.172,451.045,366.778z"/>
			<path style="fill:#EFC150;" d="M442.617,336.209c-0.106,0.158-0.222,0.308-0.32,0.474c-3.318,5.652-0.129,13.567,2.528,15.126
				c2.325,1.365,3.472-2.589,5.946-7.386L442.617,336.209z"/>
			<path style="fill:#773838;" d="M398.699,393.334c-3.895,1.457-8.587,10.641-8.027,16.004c0.56,5.363,6.743,3.435,6.298,0.401
				c-0.445-3.033,1.634-9.056,5.847-13.704C402.817,396.036,402.594,391.876,398.699,393.334z"/>
			<path style="fill:#E2AAE8;" d="M356.767,444.311c0.251,1.346,0.158,2.64-0.366,3.807c-2.269,5.06-11.443,5.872-20.489,1.814
				c-5.626-2.524-9.874-6.337-11.74-10.076c-3.387,2.409-5.201,4.927-5.201,4.927l36.409,23.997
				C355.38,468.78,365.444,454.86,356.767,444.311z"/>
			
				<rect x="313.509" y="453.34" transform="matrix(0.8143 0.5805 -0.5805 0.8143 327.3573 -111.3215)" style="fill:#EFCBF4;" width="48.269" height="5.139"/>
			<path style="fill:#BE72D6;" d="M345.432,478.962c-12.036,0.551-23.45-2.095-39.152,0.703l-6.809,13.239l21.769,15.502
				L345.432,478.962z"/>
		</g>
		<g>
			<path style="fill:#3A2F3F;" d="M717.625,664.761l0-0.023c0.001-0.832-0.587-1.508-1.315-1.51l-24.592-0.054
				c-0.727-0.002-1.319,0.672-1.32,1.504l0,0.047c-0.001,0.724,0.445,1.329,1.041,1.476l-0.015,8.772l-0.058,33.657l15.326,0.034
				c-0.004-0.007-0.008-0.015-0.012-0.022l9.903,0.022l0.046-26.712c0.008,0.076,0.016,0.149,0.024,0.226l0.006-15.949
				c0.555-0.176,0.966-0.751,0.967-1.443l0-0.023C717.625,664.762,717.625,664.762,717.625,664.761
				C717.625,664.761,717.625,664.761,717.625,664.761z"/>
			<path style="fill:#3A2F3F;" d="M680.097,682.462v-0.01l-25.236-0.056c-0.83-0.425-1.715-0.661-2.635-0.663
				c-2.18-0.005-4.165,1.282-5.68,3.387l0,0v0c-0.218,0.302-0.424,0.621-0.621,0.956c-0.009,0.015-0.017,0.029-0.026,0.044
				c-0.115,0.197-0.231,0.393-0.338,0.6l-0.84-3.396c0,0,0,0,0,0l-0.432-1.747l1.526-2.08h0l8.91-12.147c0,0,0,0,0,0l1.261-1.72
				l0.062,0.024c0.174,0.066,0.35,0.089,0.522,0.08c0.016-0.001,0.032,0.003,0.048,0.001c0.153-0.013,0.299-0.061,0.439-0.127
				c0.032-0.015,0.065-0.025,0.096-0.042c0.032-0.018,0.061-0.044,0.092-0.065c0.049-0.033,0.099-0.063,0.144-0.103
				c0.019-0.017,0.034-0.038,0.052-0.056c0.053-0.051,0.106-0.103,0.153-0.163c0.019-0.025,0.034-0.056,0.052-0.083
				c0.04-0.059,0.081-0.116,0.114-0.182c0.018-0.035,0.029-0.075,0.044-0.111c0.027-0.063,0.056-0.125,0.076-0.193l0.001-0.002
				c0.255-0.867-0.154-1.806-0.912-2.096l-25.429-9.74c-0.759-0.291-1.581,0.177-1.836,1.045c-0.255,0.867,0.154,1.806,0.912,2.096
				l0.141,0.054l-2.82,16.614l-1.487,6.848l-0.293-0.001c-0.281-0.028-0.562-0.057-0.848-0.058
				c-0.286-0.001-0.567,0.027-0.848,0.054l-6.589-0.015c0,0,0,0,0,0l-14.19-0.031l-3.664-0.008c0,0-0.001,0-0.001,0
				c-0.001,0-0.001,0-0.001,0h-0.039v0.003c-2.02,0.005-3.909,0.724-5.543,1.958h0c-0.002,0.002-0.005,0.004-0.007,0.006
				c-0.379,0.287-0.741,0.604-1.091,0.945c-0.053,0.052-0.106,0.102-0.158,0.155c-0.165,0.167-0.327,0.338-0.485,0.517
				c-0.039,0.044-0.076,0.092-0.115,0.137c-0.271,0.317-0.53,0.65-0.777,1c-0.075,0.105-0.149,0.211-0.221,0.319
				c-0.116,0.174-0.229,0.35-0.339,0.531c-0.098,0.162-0.19,0.329-0.283,0.496c-0.134,0.242-0.263,0.488-0.386,0.741
				c-0.096,0.197-0.189,0.396-0.278,0.599c-0.067,0.154-0.133,0.309-0.196,0.466c-0.119,0.298-0.232,0.601-0.336,0.911
				c-0.04,0.121-0.078,0.244-0.116,0.367c-0.094,0.303-0.18,0.612-0.259,0.924c-0.032,0.127-0.063,0.255-0.092,0.383
				c-0.09,0.394-0.172,0.792-0.237,1.199c-0.005,0.033-0.008,0.067-0.013,0.1c-0.06,0.393-0.105,0.792-0.141,1.195
				c-0.01,0.113-0.019,0.226-0.027,0.34c-0.031,0.438-0.052,0.879-0.053,1.327c-0.014,8.089,4.975,14.657,11.143,14.671
				c0.06,0,0.117-0.01,0.176-0.011h24.954v0c0.054,0.001,0.107,0.011,0.162,0.011c0.291,0.001,0.578-0.027,0.863-0.055l6.939,0.016
				c0,0,0,0,0,0l17.928,0.04l-0.039-0.157c0.402,0.092,0.811,0.156,1.229,0.157c0.264,0.001,0.524-0.024,0.782-0.06l26.964,0.06
				c0,0,0,0,0,0l0.127,0v-0.01c4.44-0.098,8.028-5.774,8.04-12.781c0-0.109-0.007-0.215-0.009-0.323
				c0.001-0.091,0.009-0.18,0.009-0.272C688.106,688.272,684.536,682.58,680.097,682.462z"/>
		</g>
		<g>
			<g>
				<path style="fill:#5580BF;" d="M661.017,668.935l-24.124-7.658l-3.14,16.175l-7.738,31.152l30.542,0.059l-6.629-23.431
					l11.753-14.011C662.337,670.441,661.989,669.244,661.017,668.935z"/>
				<path style="fill:#41608C;" d="M651.438,683.434c-5.631,0.266-10.256-1.76-10.537-4.736c-0.298-3.152,3.154-8.11,9.233-8.685
					c3.755-0.355,7.631,1.047,10.119,2.913l1.43-1.704c0.656-0.781,0.308-1.978-0.664-2.287l-24.124-7.658l-3.139,16.175
					l-7.738,31.152l12.807,0.025c-0.174-0.827-0.333-1.666-0.46-2.529c-1.641-11.112,1.321-20.754,6.616-21.536
					c1.813-0.268,3.661,0.558,5.378,2.18l-0.427-1.511L651.438,683.434z"/>
				<path style="fill:#FFF2BB;" d="M662.473,668.742l-25.156-8.425c-0.751-0.251-1.564,0.153-1.816,0.904l0,0
					c-0.252,0.75,0.152,1.562,0.903,1.813l25.157,8.425c0.75,0.251,1.562-0.153,1.814-0.903l0.001-0.002
					C663.627,669.805,663.223,668.993,662.473,668.742z"/>
				<path style="fill:#EFD79A;" d="M661.97,670.163l-25.156-8.425c-0.505-0.169-0.832-0.599-0.929-1.087
					c-0.165,0.156-0.307,0.339-0.384,0.57c-0.251,0.75,0.154,1.563,0.904,1.814l25.156,8.425c0.751,0.251,1.563-0.153,1.814-0.904
					c0.082-0.245,0.072-0.49,0.025-0.726C663.028,670.181,662.49,670.337,661.97,670.163z"/>
			</g>
			
				<rect x="696.538" y="670.386" transform="matrix(1 0.0019 -0.0019 1 1.3418 -1.3771)" style="fill:#F94B4B;" width="24.947" height="38.253"/>
			<g>
				<path style="fill:#DD2F2F;" d="M721.516,685.752l0.006-15.306l-2.136-0.02C720.126,674.865,720.839,679.989,721.516,685.752z"/>
				<path style="fill:#DD2F2F;" d="M705.748,692.047c-1.409-8.964-0.449-17.105,2.139-21.644l-11.312-0.022l-0.075,38.253
					l15.161,0.029C709.001,704.658,706.807,698.785,705.748,692.047z"/>
				
					<ellipse transform="matrix(0.2289 -0.9734 0.9734 0.2289 -122.2381 1223.1219)" style="fill:#FFF2BB;" cx="710.943" cy="688.72" rx="8.497" ry="8.497"/>
			</g>
			<path style="fill:#FFF2BB;" d="M721.177,669.36l-24.328-0.047c-0.72-0.002-1.305,0.581-1.306,1.301l0,0.041
				c-0.001,0.72,0.581,1.305,1.301,1.306l24.328,0.047c0.72,0.001,1.305-0.581,1.306-1.301l0-0.041
				C722.479,669.946,721.897,669.362,721.177,669.36z"/>
			<path style="fill:#EFD79A;" d="M721.152,670.643l-24.287-0.046c-0.475-0.001-0.872-0.265-1.105-0.642
				c-0.125,0.202-0.216,0.425-0.216,0.68c-0.002,0.731,0.59,1.325,1.321,1.327l24.287,0.046c0.731,0.001,1.325-0.59,1.326-1.321
				c0-0.256-0.091-0.482-0.217-0.685C722.027,670.379,721.628,670.644,721.152,670.643z"/>
			<g>
				<path style="fill:#F94B4B;" d="M632.329,683.376l-26.196-0.051c0,0-0.001,0-0.001,0s-0.001,0-0.001,0h-0.038v0.002
					c-6.083,0.013-11.02,5.664-11.033,12.645c-0.014,6.997,4.922,12.679,11.023,12.691c0.059,0,0.116-0.009,0.174-0.01h24.686
					L632.329,683.376z"/>
				<path style="fill:#E22D2D;" d="M610.987,692.89c-0.059,0.001-0.116,0.01-0.174,0.01c-4.616-0.009-8.559-3.265-10.203-7.878
					c-3.306,2.184-5.541,6.263-5.55,10.951c-0.014,6.997,4.922,12.679,11.023,12.691c0.059,0,0.116-0.009,0.174-0.01h24.686
					l0.865-15.765H610.987z"/>
				<path style="fill:#FFF2BB;" d="M642.176,696.016c0.014-6.997-4.922-12.679-11.023-12.691
					c-6.102-0.012-11.059,5.651-11.073,12.648c-0.014,6.997,4.922,12.679,11.023,12.69
					C637.205,708.676,642.162,703.013,642.176,696.016z"/>
				<path style="fill:#EFD79A;" d="M641.106,696.199c0.012-6.006-4.224-10.883-9.462-10.893c-5.238-0.01-9.493,4.85-9.505,10.857
					c-0.012,6.006,4.224,10.883,9.462,10.893C636.839,707.065,641.094,702.205,641.106,696.199z"/>
				<path style="fill:#FFF2BB;" d="M639.55,696.321c0.011-5.49-3.755-9.949-8.41-9.958c-4.656-0.009-8.439,4.434-8.449,9.925
					c-0.011,5.49,3.755,9.949,8.41,9.958C635.756,706.255,639.539,701.811,639.55,696.321z"/>
				<path style="fill:#EFD79A;" d="M634.065,698.387c2.185,0,3.957,0.258,3.957-2.473c0-2.731-1.772-2.473-3.957-2.473
					c-2.185,0-3.957-0.258-3.957,2.473C630.108,698.645,631.879,698.387,634.065,698.387z"/>
				<path style="fill:#603F3A;" d="M633.878,698.015c1.947,0,3.526,0.218,3.526-2.098s-1.579-2.098-3.526-2.098
					c-1.947,0-3.526-0.219-3.526,2.098S631.931,698.014,633.878,698.015z"/>
				<path style="fill:#FFF2BB;" d="M607.255,683.328c0,0.035-0.008,0.071-0.005,0.106c0.172,1.682,4.276,2.64,9.167,2.14
					c3.183-0.325,5.906-1.188,7.379-2.214L607.255,683.328z"/>
			</g>
			<g>
				<path style="fill:#FFD836;" d="M693.263,697.084c0.012-6.061-3.519-10.984-7.91-11.086v-0.009l-27.322-0.053l-0.043,22.16
					l27.196,0.053c0,0,0,0,0,0l0,0l0.126,0v-0.009C689.701,708.055,693.251,703.146,693.263,697.084z"/>
				<path style="fill:#F9BA2B;" d="M688.272,697.68v0.009l-0.142,0c0,0,0,0,0,0l0,0l-30.121-0.052l-0.021,10.974l27.196,0.053
					c0,0,0,0,0,0l0,0l0.126,0v-0.009c4.392-0.085,7.942-4.995,7.954-11.056c0.001-0.601-0.042-1.187-0.108-1.762
					C691.751,696.972,690.076,697.649,688.272,697.68z"/>
				<path style="fill:#FFF2BB;" d="M666.229,697.032c0.012-6.433-3.77-11.656-8.449-11.665c-4.679-0.009-8.482,5.199-8.494,11.632
					c-0.013,6.433,3.77,11.656,8.449,11.665C662.414,708.673,666.217,703.465,666.229,697.032z"/>
				<path style="fill:#EFE1A5;" d="M660.6,699.689c-4.612-0.009-8.345-5.086-8.439-11.392c-1.754,2.131-2.868,5.234-2.875,8.702
					c-0.013,6.433,3.77,11.656,8.449,11.665c4.679,0.009,8.482-5.199,8.494-11.632c0-0.092-0.008-0.181-0.009-0.273
					C664.721,698.58,662.756,699.693,660.6,699.689z"/>
				<path style="fill:#EFD79A;" d="M663.527,697.028c0.01-5.344-2.993-9.682-6.709-9.69c-3.716-0.007-6.736,4.319-6.747,9.664
					c-0.01,5.344,2.994,9.682,6.709,9.69C660.496,706.699,663.517,702.372,663.527,697.028z"/>
				<path style="fill:#E0C485;" d="M663.223,697.026c0.009-4.759-2.666-8.622-5.974-8.628c-3.309-0.007-5.999,3.846-6.008,8.605
					c-0.009,4.759,2.665,8.622,5.974,8.628C660.524,705.638,663.214,701.785,663.223,697.026z"/>
				<path style="fill:#EFD79A;" d="M655.091,693.299c0,1.911-0.141,3.461,1.351,3.461c1.492,0,1.351-1.549,1.351-3.461
					c0-1.911,0.141-3.461-1.351-3.461C654.95,689.838,655.091,691.388,655.091,693.299z"/>
				<path style="fill:#603F3A;" d="M655.294,693.135c0,1.703-0.12,3.083,1.146,3.083c1.266,0,1.146-1.381,1.146-3.083
					c0-1.703,0.12-3.084-1.146-3.083C655.175,690.052,655.294,691.432,655.294,693.135z"/>
			</g>
		</g>
		<path style="fill:#3A2F3F;" d="M819.932,622.437l0.016-0.078l3.754,0.245l-1.952-9.317l0.212-1.093h0l1.35-6.815l-30.867-6.159
			l0.208-1.767h0l2.722-23.121c0.816-0.556,1.349-1.412,1.349-2.383v0c0-1.294-0.933-2.391-2.242-2.83
			c-0.367-0.258-0.828-0.418-1.337-0.418h-14.86l5.787-17.573l20.807,6.569l1.086-3.298l-23.504-5.86l-0.621,1.885l0.108,0.034
			l-6.007,18.244h-12.698c-0.357,0-0.689,0.083-0.985,0.218c-1.879,0.049-3.388,1.383-3.388,3.03c0,1.372,1.052,2.519,2.488,2.896
			l0.711,9.665l-28.435,3.026l-4.957,2.157l19.115,17.899l-20.917,0.336l-0.901,6.078l3.38,6.078l35.367,0.478l0.008,0.11
			l3.775-0.059l4.336,0.059l0.079-0.127l15.383-0.239L819.932,622.437z"/>
		<g>
			
				<rect x="771.983" y="537.368" transform="matrix(0.9613 0.2755 -0.2755 0.9613 182.0644 -191.6527)" style="fill:#E5D0A3;" width="2.253" height="29.517"/>
			<polygon style="fill:#FF3B3B;" points="754.674,564.054 758.279,620.385 783.515,619.934 789.148,564.956 			"/>
			<polygon style="fill:#D62727;" points="775.725,591.955 765.393,572.085 788.57,570.595 789.148,564.956 754.674,564.054 
				758.279,620.385 783.515,619.934 786.203,593.701 			"/>
			<polygon style="fill:#F7BB8D;" points="778.558,619.709 781.488,594.698 816.863,602.81 813.483,622.412 			"/>
			<polygon style="fill:#DB9B65;" points="793.262,614.145 791.831,597.07 781.488,594.698 778.558,619.709 817.253,622.604 
				815.3,611.897 			"/>
			<polygon style="fill:#A0643C;" points="784.667,609.837 815.513,610.641 815.241,612.251 786.058,614.805 			"/>
			<polygon style="fill:#F7BB8D;" points="772.474,609.119 773.601,597.177 758.505,578.475 727.185,582.306 722.228,584.784 
				742.958,607.091 			"/>
			<polygon style="fill:#BF7C4B;" points="724.932,585.234 753.548,582.982 770.221,607.091 743.183,606.415 			"/>
			<polygon style="fill:#DB9B65;" points="722.904,619.709 719.524,612.724 720.426,605.739 769.32,604.837 772.474,609.119 
				766.391,620.385 			"/>
			<polygon style="fill:#C18152;" points="722.904,619.709 719.524,612.724 772.474,609.119 766.391,620.385 			"/>
			<polygon style="fill:#F7BB8D;" points="769.32,604.837 744.133,605.302 744.133,611.029 749.498,620.039 766.391,620.385 
				772.474,609.119 			"/>
			<path style="fill:#E5D0A3;" d="M786.782,560.9h-30.869c-1.929,0-3.492,1.564-3.492,3.492l0,0c0,1.929,1.564,3.492,3.492,3.492
				h30.869c1.929,0,3.493-1.564,3.493-3.492v0C790.275,562.464,788.711,560.9,786.782,560.9z"/>
			<path style="fill:#FFF1CF;" d="M786.697,560.66h-29.902c-1.183,0-2.143,0.959-2.143,2.143l0,0c0,1.183,0.959,2.143,2.143,2.143
				h29.902c1.183,0,2.143-0.959,2.143-2.143v0C788.839,561.62,787.88,560.66,786.697,560.66z"/>
			<polygon style="fill:#FFF1CF;" points="798.43,548.014 799.516,544.225 776.012,537.49 775.392,539.656 			"/>
		</g>
		<path style="fill:#29212D;" d="M276.167,622.217c0-1.336-32.41-2.418-72.389-2.418c-39.98,0-72.389,1.083-72.389,2.418
			c0,1.336,32.41,2.418,72.389,2.418C243.757,624.635,276.167,623.552,276.167,622.217z"/>
		<polygon style="fill:#29212D;" points="283.26,574.656 245.212,573.688 206.518,623.023 285.679,623.023 		"/>
		<g>
			<polygon style="fill:#FFB164;" points="168.296,558.095 120.725,558.095 133.623,618.789 213.679,618.789 224.068,608.4 			"/>
			<polygon style="fill:#DD9A52;" points="143.69,611.602 120.725,558.095 115.647,569.417 133.623,618.789 213.679,618.789 
				224.068,608.4 			"/>
			<polygon style="fill:#A55E37;" points="118.768,567.213 137.698,616.636 213.918,615.677 140.335,614.638 119.487,565.536 			"/>
			<path style="fill:#FFCEA1;" d="M156.01,568.57c-12.628-0.043-18.621,7.51-13.385,16.869c5.236,9.359,19.718,16.982,32.346,17.025
				c12.628,0.043,18.621-7.51,13.385-16.869C183.12,576.235,168.639,568.613,156.01,568.57z"/>
			
				<ellipse transform="matrix(0.3905 -0.9206 0.9206 0.3905 -438.6282 508.5314)" style="fill:#FFB164;" cx="164.756" cy="585.541" rx="12.886" ry="22.408"/>
			<path style="fill:#FFCEA1;" d="M157.389,572.862c-2.054-0.007-3.029,1.222-2.177,2.744c0.852,1.522,3.207,2.762,5.262,2.769
				c2.054,0.007,3.029-1.222,2.177-2.744C161.799,574.109,159.443,572.869,157.389,572.862z"/>
			<path style="fill:#FFCEA1;" d="M149.08,581.811c-2.054-0.007-3.029,1.222-2.177,2.744c0.852,1.522,3.207,2.762,5.261,2.769
				c2.054,0.007,3.029-1.222,2.177-2.744C153.49,583.057,151.134,581.818,149.08,581.811z"/>
			<path style="fill:#FFCEA1;" d="M169.533,594.274c-2.054-0.007-3.029,1.222-2.177,2.744c0.852,1.522,3.207,2.762,5.261,2.769
				c2.054,0.007,3.029-1.222,2.177-2.744C173.943,595.521,171.587,594.281,169.533,594.274z"/>
			<path style="fill:#FFCEA1;" d="M162.343,583.249c-2.054-0.007-3.029,1.222-2.177,2.744s3.207,2.762,5.261,2.769
				c2.054,0.007,3.029-1.222,2.177-2.744C166.753,584.495,164.397,583.256,162.343,583.249z"/>
			<path style="fill:#FFCEA1;" d="M171.611,577.656c-2.054-0.007-3.029,1.222-2.177,2.744c0.852,1.523,3.207,2.762,5.262,2.769
				c2.054,0.007,3.029-1.222,2.177-2.744C176.02,578.903,173.665,577.663,171.611,577.656z"/>
			<path style="fill:#FFCEA1;" d="M176.085,586.445c-2.054-0.007-3.029,1.222-2.177,2.744c0.852,1.523,3.207,2.762,5.261,2.769
				c2.054,0.007,3.029-1.222,2.177-2.744C180.495,587.691,178.139,586.451,176.085,586.445z"/>
		</g>
		<g>
			<path style="fill:#FFAD36;" d="M267.403,560.784c3.361-4.766,1.833-7.689-1.075-9.737c-2.908-2.048-6.094-2.446-9.455,2.319
				c-3.361,4.766-3.728,10.289-0.821,12.338C258.959,567.752,264.042,565.549,267.403,560.784z"/>
			<path style="fill:#FFC639;" d="M254.476,544.978c0.054-5.831-2.865-7.366-6.422-7.396c-3.557-0.03-6.403,1.455-6.458,7.286
				c-0.054,5.831,2.785,10.584,6.342,10.614C251.495,555.512,254.422,550.809,254.476,544.978z"/>
			<path style="fill:#FFAD36;" d="M270.936,546.556c0.054-5.831-2.866-7.366-6.422-7.396c-3.557-0.03-6.403,1.454-6.458,7.286
				c-0.054,5.832,2.785,10.584,6.342,10.614C267.954,557.091,270.882,552.388,270.936,546.556z"/>
			<path style="fill:#F7A12F;" d="M282.559,551.311c0.709-5.789-2.019-7.642-5.55-8.072c-3.531-0.43-6.526,0.725-7.236,6.514
				c-0.709,5.788,1.578,10.83,5.109,11.26C278.413,561.443,281.849,557.099,282.559,551.311z"/>
			<path style="fill:#FFC639;" d="M262.804,550.219c0.054-5.831-2.866-7.366-6.422-7.396c-3.557-0.03-6.403,1.455-6.458,7.286
				c-0.054,5.832,2.785,10.584,6.342,10.614C259.822,560.753,262.75,556.05,262.804,550.219z"/>
			<path style="fill:#FFC639;" d="M276.262,555.284c0.054-5.831-2.866-7.366-6.422-7.396c-3.557-0.03-6.403,1.455-6.458,7.286
				c-0.054,5.831,2.785,10.583,6.342,10.614C273.28,565.818,276.208,561.116,276.262,555.284z"/>
			<path style="fill:#FFAD36;" d="M283.273,565.819c4.243-4.006,3.327-7.175,0.885-9.761c-2.442-2.586-5.485-3.609-9.728,0.397
				c-4.243,4.006-5.703,9.349-3.261,11.935C273.611,570.976,279.03,569.825,283.273,565.819z"/>
			<path style="fill:#FFAD36;" d="M254.571,554.355c3.584-4.604,2.197-7.598-0.609-9.782c-2.807-2.184-5.97-2.733-9.554,1.872
				c-3.584,4.604-4.215,10.108-1.408,12.292C245.806,560.921,250.986,558.959,254.571,554.355z"/>
			<path style="fill:#FFC639;" d="M242.777,545.094c-1.308-5.686-4.505-6.501-7.971-5.704c-3.466,0.797-5.888,2.904-4.581,8.591
				c1.308,5.686,5.177,9.65,8.644,8.853C242.335,556.036,244.085,550.78,242.777,545.094z"/>
			<path style="fill:#EF435D;" d="M216.977,606.213l10.789-56.401l58.843,16.21l-22.56,56.761
				C264.049,622.783,225.687,617.641,216.977,606.213z"/>
			<path style="fill:#D6294B;" d="M248.22,583.707c0.322-10.077,2.782-19.261,6.626-26.435l-27.08-7.46l-10.789,56.401
				c7.424,9.741,36.387,14.914,44.778,16.23C253.239,615.256,247.683,600.527,248.22,583.707z"/>
			<polygon style="fill:#F7E4BC;" points="285.716,569.077 287.624,564.418 226.862,548.146 225.897,553.058 			"/>
		</g>
		<polygon style="opacity:0.6;fill:#843131;" points="409.905,623.496 392.892,708.683 419.978,708.683 427.072,698.153 		"/>
		<path style="fill:#29212D;" d="M854.959,621.733c0-0.89-32.049-1.612-71.583-1.612c-39.534,0-71.583,0.722-71.583,1.612
			c0,0.89,32.049,1.612,71.583,1.612C822.91,623.345,854.959,622.624,854.959,621.733z"/>
		<g>
			<path style="fill:#433749;" d="M331.336,570.552h-44.54c-3.636,0-6.583,2.948-6.583,6.583v35.728
				c0,2.531,2.052,4.583,4.583,4.583h47.04c2.577,0,4.667-2.089,4.667-4.667v-37.061
				C336.503,572.865,334.19,570.552,331.336,570.552z"/>
			<path style="fill:#534459;" d="M319.367,581.037h-17.711c-3.636,0-6.583,2.947-6.583,6.583v13.377
				c0,2.531,2.052,4.583,4.583,4.583h20.211c2.577,0,4.667-2.089,4.667-4.667v-14.71C324.533,583.35,322.22,581.037,319.367,581.037
				z"/>
		</g>
		<g>
			<polygon style="fill:#FFB164;" points="410.289,708.752 285.862,708.752 322.346,612.743 404.529,618.888 409.905,623.496 			"/>
			<polygon style="fill:#DD9A52;" points="396.733,708.752 285.862,708.752 322.346,612.743 404.529,618.888 			"/>
			<g>
				<path style="fill:#E8AD7C;" d="M364.402,646.393c-13.49-9.585-33.475-5.8-44.638,8.453
					c-11.163,14.253-9.277,33.576,4.213,43.161c13.49,9.585,33.475,5.8,44.638-8.452
					C379.778,675.302,377.892,655.978,364.402,646.393z M364.333,686.548c-9.783,12.346-27.105,15.695-38.69,7.479
					c-11.586-8.216-13.047-24.885-3.264-37.231c9.782-12.346,27.105-15.695,38.69-7.479
					C372.655,657.532,374.116,674.201,364.333,686.548z"/>
				<path style="fill:#E8AD7C;" d="M358.184,652.158c-2.195-1.559-5.446-0.943-7.262,1.375c-1.816,2.318-1.509,5.462,0.686,7.021
					c2.194,1.559,5.446,0.943,7.262-1.375C360.685,656.86,360.378,653.717,358.184,652.158z"/>
				<path style="fill:#E8AD7C;" d="M333.207,655.728c-2.195-1.559-5.446-0.943-7.262,1.375c-1.816,2.318-1.509,5.462,0.685,7.02
					c2.195,1.559,5.446,0.943,7.262-1.375C335.708,660.43,335.401,657.287,333.207,655.728z"/>
				<path style="fill:#E8AD7C;" d="M332.823,684.89c-2.195-1.559-5.446-0.943-7.262,1.375c-1.816,2.318-1.509,5.461,0.686,7.02
					c2.194,1.559,5.446,0.943,7.261-1.375C335.325,689.591,335.018,686.448,332.823,684.89z"/>
				<path style="fill:#E8AD7C;" d="M344.875,667.327c-2.195-1.559-5.446-0.943-7.262,1.375c-1.816,2.318-1.509,5.462,0.686,7.02
					c2.194,1.559,5.446,0.943,7.262-1.375C347.377,672.029,347.07,668.886,344.875,667.327z"/>
				<path style="fill:#E8AD7C;" d="M364.863,668.173c-2.194-1.559-5.446-0.943-7.262,1.375c-1.816,2.318-1.509,5.462,0.685,7.021
					c2.195,1.559,5.446,0.943,7.262-1.375C367.365,672.875,367.058,669.732,364.863,668.173z"/>
				<path style="fill:#E8AD7C;" d="M353.906,681.222c-2.195-1.559-5.446-0.943-7.262,1.375c-1.816,2.318-1.509,5.462,0.685,7.02
					c2.195,1.559,5.446,0.943,7.262-1.375C356.407,685.924,356.101,682.781,353.906,681.222z"/>
			</g>
			<g>
				<path style="fill:#E8AD7C;" d="M337.193,620.38c0.497,0.039,1.764-0.051,2.658,0.019c2.664,0.207,4.372,0.34,4.98,1.379
					c0.357,0.646,0.849,1.322,0.487,2.548c-0.655,2.216-2.704,3.161-4.53,3.562c-1.107,0.232-2.292,0.326-3.549,0.248l-0.632,1.992
					l-0.801,2.578c-0.136,0.458-0.401,0.531-0.639,0.513c-0.16-0.013-0.308-0.061-0.427-0.071c-0.318-0.025-1.234-0.021-1.552-0.046
					c-0.317-0.025-0.306-0.267-0.204-0.616c0.098-0.329,0.961-2.977,1.248-3.947l1.483-5.016c0.081-0.276,0.302-0.95,0.552-1.588
					l0.438-1.201C336.827,620.313,336.935,620.36,337.193,620.38z M339.046,627.247c0.829,0.008,1.841-0.044,2.538-0.27
					c1.033-0.333,1.694-0.918,2.051-2.125c0.119-0.404,0.221-0.883,0.269-1.46c0.106-1.115-1.016-1.651-2.164-1.89
					c-0.382-0.088-0.794-0.138-1.25-0.173c-0.339-0.026-0.701-0.036-1.084-0.046l-1.868,5.903
					C338.05,627.244,338.553,627.265,339.046,627.247z"/>
				<path style="fill:#E8AD7C;" d="M347.518,621.688c0.172-0.585,0.389-0.7,0.607-0.683c0.039,0.003,0.099,0.008,0.153,0.031
					c0.333,0.044,1.004,0.041,1.566,0.14c0.326,0.063,0.398,0.162,0.349,0.327c-0.032,0.108-0.109,0.235-0.177,0.398
					c-0.185,0.416-0.652,1.447-1.187,3.184c-0.159,0.474-0.31,0.988-0.452,1.464c-0.384,1.3-0.691,2.474-0.784,2.786
					c-0.096,0.329-0.378,1.486-0.573,2.146c-0.061,0.201-0.104,0.347-0.145,0.419c-0.04,0.072-0.09,0.236-0.145,0.42
					c-0.151,0.512-0.34,1.284-0.421,1.559c-0.081,0.349-0.406,0.342-0.697,0.301l-1.808-0.141c-0.464-0.018-0.383-0.291-0.31-0.605
					c0.027-0.297,0.389-0.905,0.578-1.547c0.2-0.677,1.4-3.842,1.547-4.337c0.14-0.476,0.973-3.015,1.103-3.454
					c0.063-0.218,0.209-0.638,0.331-0.985l0.236-0.656L347.518,621.688z"/>
				<path style="fill:#E8AD7C;" d="M355.821,623.102c-0.318-0.025-0.847-0.027-1.224-0.057c-0.139-0.011-0.279-0.022-0.351-0.048
					c-0.169-0.049-0.826-0.1-1.401-0.145c-0.378-0.029-0.715-0.056-0.834-0.065c-0.293-0.042-0.186-0.128-0.148-0.255
					c0.038-0.128,0.089-0.368,0.151-0.718c0.084-0.35,0.374-0.234,0.672-0.211c0.636,0.05,1.71,0.058,2.526,0.122
					c0.795,0.062,2.879,0.299,3.317,0.333c0.199,0.016,0.655,0.051,1.173,0.091c0.794,0.062,1.708,0.133,1.998,0.117
					c0.058,0.005,0.104-0.01,0.143-0.007c0.299,0.023,0.209,0.185,0.171,0.313c-0.043,0.146-0.153,0.662-0.46,0.938
					c-0.304,0.275-2.808,2.553-3.814,3.412c-0.522,0.464-1.957,1.74-3.333,2.887l-2.59,2.232c0.266,0.06,0.534,0.117,0.787,0.156
					c0.441,0.091,0.991,0.152,1.41,0.184c0.852,0.066,1.401,0.072,2.176,0.132c0.775,0.06,2.894,0.113,3.33,0.147
					c0.418,0.033,0.271,0.32,0.21,0.596c-0.081,0.276-0.342,1.023-0.434,1.334c-0.012,0.036-0.022,0.073-0.033,0.111
					c-0.071,0.238-0.096,0.254-0.36,0.253c-0.274,0.035-0.635-0.049-1.528,0.011c-0.288,0.015-0.706-0.018-1.163-0.053
					c-0.894-0.07-1.977-0.191-2.513-0.233l-4.869-0.379c-0.756-0.059-0.524-0.359-0.437-0.651c0.07-0.238,0.484-1.293,0.577-1.604
					c0.086-0.293,0.625-0.607,1.178-1.033c0.514-0.427,3.219-2.709,3.771-3.265c0.526-0.54,2.277-1.995,2.927-2.544
					c0.33-0.294,0.724-0.729,1.066-1.134l0.569-0.686c-0.06-0.005-0.119-0.009-0.174-0.033l-0.385-0.069L355.821,623.102z"/>
				<path style="fill:#E8AD7C;" d="M370.214,623.847c-0.516-0.04-2.685-0.264-4.117-0.376c-0.576-0.045-1.038-0.061-1.224-0.058
					c-0.671,0.003-0.716-0.187-0.678-0.314c0.038-0.128,0.108-0.366,0.29-0.709c0.058-0.126,0.169-0.156,0.288-0.146
					c0.198,0.015,0.43,0.128,0.688,0.148l1.953,0.134c0.536,0.042,1.544,0.138,2.161,0.186c0.616,0.048,2.067,0.161,2.666,0.263
					c0.445,0.073,1.086,0.178,1.583,0.217c0.159,0.012,0.318,0.025,0.422,0.015c0.06,0.005,0.104-0.011,0.145-0.008
					c0.257,0.02,0.136,0.16,0.104,0.271c-0.038,0.127-0.108,0.292-0.281,0.671c-0.172,0.379-0.828,0.742-1.492,1.27
					c-0.651,0.548-2.232,1.979-2.848,2.551c-0.591,0.553-2.607,2.213-3.037,2.572c-0.432,0.359-1.678,1.405-2.185,1.816
					c-0.283,0.201-0.704,0.656-1.125,1.053l-0.749,0.748c0.93,0.09,1.783,0.157,2.518,0.214c1.272,0.099,2.578,0.22,2.758,0.234
					c0.317,0.025,1.368,0.181,1.745,0.211l1.319,0.084c0.018,0.001,0.018,0.001,0.038,0.003c0.18,0.014,0.108,0.12,0.086,0.193
					c-0.022,0.073-0.089,0.367-0.154,0.587c-0.048,0.165-0.145,0.214-0.323,0.2c-0.08-0.006-0.174-0.033-0.286-0.06
					c-0.363-0.085-0.794-0.138-1.255-0.154c-0.477-0.037-3.943-0.213-4.658-0.268c-0.715-0.056-2.961-0.23-3.474-0.214
					c-0.039-0.003-0.099-0.008-0.119-0.009c-0.337-0.026-0.199-0.221-0.161-0.35c0.044-0.147,0.219-0.396,0.581-0.724
					c0.326-0.273,3.252-2.817,3.881-3.293c0.658-0.51,3.33-2.738,4.628-3.76c0.664-0.529,1.468-1.252,2.115-1.859l1.135-1.091
					l-1.192-0.093C371.322,623.953,370.587,623.896,370.214,623.847z"/>
				<path style="fill:#E8AD7C;" d="M372.981,633.951c0.147-0.289,0.468-0.825,0.772-1.307c0.311-0.5,1.002-1.532,1.259-2.055
					c0.307-0.557,0.806-1.286,1.029-1.7c0.231-0.43,0.773-1.306,1.094-1.844c0.337-0.516,0.616-0.981,0.837-1.246
					c0.18-0.267,0.9-1.259,1.146-1.746c0.311-0.5,0.577-0.854,0.955-0.825c0.179,0.014,0.199,0.428,0.266,0.957
					c0.078,0.493,0.037,2.007,0.051,2.309c-0.038,0.333,0.202,2.544,0.205,2.88c0.049,0.378,0.214,2.226,0.298,2.702
					c0.029,0.452,0.131,1.826,0.12,2.406c-0.013,0.599,0.177,1.811,0.205,2.058c0.014,0.094,0.017,0.151,0.006,0.186
					c-0.016,0.057-0.062,0.071-0.24,0.057l-1.113-0.087c-0.099-0.008-0.153-0.03-0.17-0.182c-0.03-0.246-0.025-0.47-0.025-0.676
					c-0.034-0.359-0.011-0.713,0.006-0.843c0.022-0.279,0.024-0.972-0.049-1.277c-0.03-0.171-0.072-0.512-0.084-0.812l-0.024-0.545
					c-0.052-0.303-0.092-0.306-0.229-0.317c-0.221-0.017-0.418-0.033-0.622-0.03c-0.344-0.007-0.725-0.019-0.865-0.03
					c-0.164,0.005-0.841-0.047-1.477-0.097l-1.212-0.094c-0.018-0.002-0.018-0.002-0.038-0.003
					c-0.081-0.006-0.156,0.046-0.238,0.189l-0.094,0.18l-0.182,0.341c-0.185,0.286-0.908,1.69-1.009,1.831
					c-0.063,0.146-0.235,0.451-0.359,0.592c-0.08,0.068-0.222,0.338-0.37,0.57c-0.103,0.141-0.193,0.303-0.28,0.465
					c-0.103,0.143-0.089,0.162-0.266,0.148l-0.398-0.031c-0.139-0.011-0.137-0.087-0.029-0.246c0.005-0.018,0.016-0.055,0.046-0.09
					c0.037-0.053,0.059-0.127,0.156-0.249l0.379-0.665C372.556,634.629,372.819,634.295,372.981,633.951z M379.408,630.705
					c0.022-0.072,0.005-0.225-0.019-0.412c-0.062-0.342-0.048-1.559-0.104-2.125c-0.037-0.565-0.057-2.007-0.024-2.324
					c-0.001-0.338-0.011-0.994-0.112-1.001c-0.078-0.006-0.319,0.463-0.582,0.872c-0.219,0.396-1.202,2.006-1.492,2.431
					c-0.228,0.432-1.033,1.774-1.305,2.146c-0.037,0.055-0.066,0.089-0.077,0.125c-0.07,0.238,0.322,0.213,0.502,0.227
					c0.198,0.015,0.905,0.033,1.163,0.053c0.124-0.01,0.388-0.008,0.687,0.015c0.398,0.031,0.848,0.085,1.067,0.102
					C379.31,630.829,379.381,630.797,379.408,630.705z"/>
			</g>
		</g>
		<path style="fill:#FFDF5A;" d="M926.059,707.827H48.196c0,0,207.495,17.412,438.206,17.412S926.059,707.827,926.059,707.827z"/>
	</g>
</g>
</svg>
